  0
SECTION
  2
HEADER
  9
$ACADVER
  1
AC1009
  9
$EXTMIN
 10
0.0
 20
0.0
 30
0.0
  9
$EXTMAX
 10
1000.0
 20
1000.0
 30
0.0
  9
$FILLMODE
 70
 0
  9
$SPLFRAME
 70
 1
  0
ENDSEC
  0
SECTION
  2
TABLES
  0
TABLE
  2
LAYER
 70
1
  0
LAYER
  2
0
 70
     0
 62
     7
  6
CONTINUOUS
  0
ENDTAB
  0
ENDSEC
  0
SECTION
  2
ENTITIES
  0
POLYLINE
  8
0
 62
     51
 66
     1
 10
0
 20
0
 30
0.0
 70
     1
 40
0
 41
0
  0
VERTEX
  8
0
 10
10.1234
 20
17.6789
 30
0.0
 40
0
 41
0
  0
VERTEX
  8
0
 10
10.1234
 20
17.6779
 30
0.0
 40
0
 41
0
  0
VERTEX
  8
0
 10
10.1204
 20
17.6749
 30
0.0
 40
0
 41
0
  0
VERTEX
  8
0
 10
10.1195
 20
17.6749
 30
0.0
 40
0
 41
0
  0
VERTEX
  8
0
 10
10.1185
 20
17.6749
 30
0.0
 40
0
 41
0
  0
VERTEX
  8
0
 10
10.1156
 20
17.6779
 30
0.0
 40
0
 41
0
  0
VERTEX
  8
0
 10
10.1156
 20
17.6789
 30
0.0
 40
0
 41
0
  0
VERTEX
  8
0
 10
10.1156
 20
17.6799
 30
0.0
 40
0
 41
0
  0
VERTEX
  8
0
 10
10.1185
 20
17.6828
 30
0.0
 40
0
 41
0
  0
VERTEX
  8
0
 10
10.1195
 20
17.6828
 30
0.0
 40
0
 41
0
  0
VERTEX
  8
0
 10
10.1204
 20
17.6828
 30
0.0
 40
0
 41
0
  0
VERTEX
  8
0
 10
10.1234
 20
17.6799
 30
0.0
 40
0
 41
0
  0
VERTEX
  8
0
 10
10.1234
 20
17.6789
 30
0.0
 40
0
 41
0
  0
SEQEND
 8
0
  0
TEXT
  8
0
 62
     9
 10
10.1982
 20
17.6001
 30
0
 40
0.11811
  1
ii:l
 50
0
  7
DejaVuSans-Bold
  0
TEXT
  8
0
 62
     9
 10
10.3672
 20
17.6001
 30
0
 40
0.11811
  1
:M5
 50
0
  7
DejaVuSans-Bold
  0
POLYLINE
  8
0
 62
     250
 66
     1
 10
0
 20
0
 30
0.0
 40
0.850394
 41
0.850394
  0
VERTEX
  8
0
 10
15.2822
 20
19.4485
 30
0.0
 40
0.011811
 41
0.011811
  0
VERTEX
  8
0
 10
12.517
 20
17.1487
 30
0.0
 40
0.011811
 41
0.011811
  0
SEQEND
 8
0
  0
TEXT
  8
0
 62
     9
 10
15.361
 20
19.3697
 30
0
 40
0.11811
  1
ii:l
 50
0
  7
DejaVuSans-Bold
  0
TEXT
  8
0
 62
     9
 10
15.53
 20
19.3697
 30
0
 40
0.11811
  1
:P4
 50
0
  7
DejaVuSans-Bold
  0
TEXT
  8
0
 62
     9
 10
12.6769
 20
17.0701
 30
0
 40
0.11811
  1
:
 50
0
  7
DejaVuSans-Bold
  0
TEXT
  8
0
 62
     9
 10
12.7648
 20
17.0701
 30
0
 40
0.11811
  1
:
 50
0
  7
DejaVuSans-Bold
  0
POLYLINE
  8
0
 62
     254
 66
     1
 10
0
 20
0
 30
0.0
 40
1.41732
 41
1.41732
  0
VERTEX
  8
0
 10
20.8201
 20
18.581
 30
0.0
 40
0.019685
 41
0.019685
  0
VERTEX
  8
0
 10
23.9381
 20
10.0538
 30
0.0
 40
0.019685
 41
0.019685
  0
SEQEND
 8
0
  0
TEXT
  8
0
 62
     9
 10
24.0168
 20
9.97507
 30
0
 40
0.11811
  1
ii:l
 50
0
  7
DejaVuSans-Bold
  0
TEXT
  8
0
 62
     9
 10
24.1858
 20
9.97507
 30
0
 40
0.11811
  1
:K21a
 50
0
  7
DejaVuSans-Bold
  0
POLYLINE
  8
0
 62
     161
 66
     1
 10
0
 20
0
 30
0.0
 40
1.41732
 41
1.41732
  0
VERTEX
  8
0
 10
8.38585
 20
9.28136
 30
0.0
 40
0.019685
 41
0.019685
  0
VERTEX
  8
0
 10
14.3089
 20
9.28136
 30
0.0
 40
0.019685
 41
0.019685
  0
SEQEND
 8
0
  0
TEXT
  8
0
 62
     9
 10
14.3876
 20
9.20262
 30
0
 40
0.11811
  1
ii:l
 50
0
  7
DejaVuSans-Bold
  0
TEXT
  8
0
 62
     9
 10
14.5567
 20
9.20262
 30
0
 40
0.11811
  1
:P11
 50
0
  7
DejaVuSans-Bold
  0
POLYLINE
  8
0
 62
     51
 66
     1
 10
0
 20
0
 30
0.0
 70
     1
 40
0
 41
0
  0
VERTEX
  8
0
 10
11.1559
 20
17.2704
 30
0.0
 40
0
 41
0
  0
VERTEX
  8
0
 10
11.1559
 20
17.2694
 30
0.0
 40
0
 41
0
  0
VERTEX
  8
0
 10
11.1529
 20
17.2665
 30
0.0
 40
0
 41
0
  0
VERTEX
  8
0
 10
11.1519
 20
17.2665
 30
0.0
 40
0
 41
0
  0
VERTEX
  8
0
 10
11.1509
 20
17.2665
 30
0.0
 40
0
 41
0
  0
VERTEX
  8
0
 10
11.148
 20
17.2694
 30
0.0
 40
0
 41
0
  0
VERTEX
  8
0
 10
11.148
 20
17.2704
 30
0.0
 40
0
 41
0
  0
VERTEX
  8
0
 10
11.148
 20
17.2714
 30
0.0
 40
0
 41
0
  0
VERTEX
  8
0
 10
11.1509
 20
17.2743
 30
0.0
 40
0
 41
0
  0
VERTEX
  8
0
 10
11.1519
 20
17.2743
 30
0.0
 40
0
 41
0
  0
VERTEX
  8
0
 10
11.1529
 20
17.2743
 30
0.0
 40
0
 41
0
  0
VERTEX
  8
0
 10
11.1559
 20
17.2714
 30
0.0
 40
0
 41
0
  0
VERTEX
  8
0
 10
11.1559
 20
17.2704
 30
0.0
 40
0
 41
0
  0
SEQEND
 8
0
  0
TEXT
  8
0
 62
     9
 10
11.2307
 20
17.1917
 30
0
 40
0.11811
  1
ii:l
 50
0
  7
DejaVuSans-Bold
  0
TEXT
  8
0
 62
     9
 10
11.3996
 20
17.1917
 30
0
 40
0.11811
  1
:h28
 50
0
  7
DejaVuSans-Bold
  0
POLYLINE
  8
0
 62
     51
 66
     1
 10
0
 20
0
 30
0.0
 70
     1
 40
0
 41
0
  0
VERTEX
  8
0
 10
12.1883
 20
16.8619
 30
0.0
 40
0
 41
0
  0
VERTEX
  8
0
 10
12.1883
 20
16.861
 30
0.0
 40
0
 41
0
  0
VERTEX
  8
0
 10
12.1853
 20
16.8579
 30
0.0
 40
0
 41
0
  0
VERTEX
  8
0
 10
12.1843
 20
16.8579
 30
0.0
 40
0
 41
0
  0
VERTEX
  8
0
 10
12.1833
 20
16.8579
 30
0.0
 40
0
 41
0
  0
VERTEX
  8
0
 10
12.1804
 20
16.861
 30
0.0
 40
0
 41
0
  0
VERTEX
  8
0
 10
12.1804
 20
16.8619
 30
0.0
 40
0
 41
0
  0
VERTEX
  8
0
 10
12.1804
 20
16.8629
 30
0.0
 40
0
 41
0
  0
VERTEX
  8
0
 10
12.1833
 20
16.8658
 30
0.0
 40
0
 41
0
  0
VERTEX
  8
0
 10
12.1843
 20
16.8658
 30
0.0
 40
0
 41
0
  0
VERTEX
  8
0
 10
12.1853
 20
16.8658
 30
0.0
 40
0
 41
0
  0
VERTEX
  8
0
 10
12.1883
 20
16.8629
 30
0.0
 40
0
 41
0
  0
VERTEX
  8
0
 10
12.1883
 20
16.8619
 30
0.0
 40
0
 41
0
  0
SEQEND
 8
0
  0
TEXT
  8
0
 62
     9
 10
12.2631
 20
16.7832
 30
0
 40
0.11811
  1
ii:l
 50
0
  7
DejaVuSans-Bold
  0
TEXT
  8
0
 62
     9
 10
12.432
 20
16.7832
 30
0
 40
0.11811
  1
:h27
 50
0
  7
DejaVuSans-Bold
  0
POLYLINE
  8
0
 62
     250
 66
     1
 10
0
 20
0
 30
0.0
 40
0.850394
 41
0.850394
  0
VERTEX
  8
0
 10
0.393718
 20
13.193
 30
0.0
 40
0.011811
 41
0.011811
  0
VERTEX
  8
0
 10
0.393718
 20
12.7993
 30
0.0
 40
0.011811
 41
0.011811
  0
SEQEND
 8
0
  0
POLYLINE
  8
0
 62
     250
 66
     1
 10
0
 20
0
 30
0.0
 40
0.850394
 41
0.850394
  0
VERTEX
  8
0
 10
0.393718
 20
18.5079
 30
0.0
 40
0.011811
 41
0.011811
  0
VERTEX
  8
0
 10
0.499349
 20
18.5079
 30
0.0
 40
0.011811
 41
0.011811
  0
VERTEX
  8
0
 10
0.816407
 20
18.5196
 30
0.0
 40
0.011811
 41
0.011811
  0
VERTEX
  8
0
 10
1.21186
 20
18.5526
 30
0.0
 40
0.011811
 41
0.011811
  0
VERTEX
  8
0
 10
1.58003
 20
18.6043
 30
0.0
 40
0.011811
 41
0.011811
  0
VERTEX
  8
0
 10
1.9209
 20
18.6717
 30
0.0
 40
0.011811
 41
0.011811
  0
VERTEX
  8
0
 10
2.23454
 20
18.7518
 30
0.0
 40
0.011811
 41
0.011811
  0
VERTEX
  8
0
 10
2.52089
 20
18.8421
 30
0.0
 40
0.011811
 41
0.011811
  0
VERTEX
  8
0
 10
2.78
 20
18.9396
 30
0.0
 40
0.011811
 41
0.011811
  0
VERTEX
  8
0
 10
3.01183
 20
19.0414
 30
0.0
 40
0.011811
 41
0.011811
  0
VERTEX
  8
0
 10
3.21636
 20
19.1446
 30
0.0
 40
0.011811
 41
0.011811
  0
VERTEX
  8
0
 10
3.39361
 20
19.2467
 30
0.0
 40
0.011811
 41
0.011811
  0
VERTEX
  8
0
 10
3.54363
 20
19.3444
 30
0.0
 40
0.011811
 41
0.011811
  0
VERTEX
  8
0
 10
3.66635
 20
19.4353
 30
0.0
 40
0.011811
 41
0.011811
  0
VERTEX
  8
0
 10
3.76178
 20
19.5163
 30
0.0
 40
0.011811
 41
0.011811
  0
VERTEX
  8
0
 10
3.82997
 20
19.5846
 30
0.0
 40
0.011811
 41
0.011811
  0
VERTEX
  8
0
 10
3.87088
 20
19.6372
 30
0.0
 40
0.011811
 41
0.011811
  0
VERTEX
  8
0
 10
3.88456
 20
19.6631
 30
0.0
 40
0.011811
 41
0.011811
  0
VERTEX
  8
0
 10
3.88456
 20
19.6717
 30
0.0
 40
0.011811
 41
0.011811
  0
SEQEND
 8
0
  0
POLYLINE
  8
0
 62
     250
 66
     1
 10
0
 20
0
 30
0.0
 40
0.850394
 41
0.850394
  0
VERTEX
  8
0
 10
5.53765
 20
15.7794
 30
0.0
 40
0.011811
 41
0.011811
  0
VERTEX
  8
0
 10
6.63743
 20
19.0282
 30
0.0
 40
0.011811
 41
0.011811
  0
SEQEND
 8
0
  0
TEXT
  8
0
 62
     9
 10
5.88024
 20
19.1203
 30
0
 40
0.11811
  1
ii:l
 50
0
  7
DejaVuSans-Bold
  0
TEXT
  8
0
 62
     9
 10
6.04921
 20
19.1203
 30
0
 40
0.11811
  1
:M3
 50
0
  7
DejaVuSans-Bold
  0
POLYLINE
  8
0
 62
     93
 66
     1
 10
0
 20
0
 30
0.0
 70
     1
 40
1.41732
 41
1.41732
  0
VERTEX
  8
0
 10
0.397624
 20
18.1143
 30
0.0
 40
0.019685
 41
0.019685
  0
VERTEX
  8
0
 10
0.397624
 20
18.1133
 30
0.0
 40
0.019685
 41
0.019685
  0
VERTEX
  8
0
 10
0.394694
 20
18.1104
 30
0.0
 40
0.019685
 41
0.019685
  0
VERTEX
  8
0
 10
0.393718
 20
18.1104
 30
0.0
 40
0.019685
 41
0.019685
  0
VERTEX
  8
0
 10
0.392686
 20
18.1104
 30
0.0
 40
0.019685
 41
0.019685
  0
VERTEX
  8
0
 10
0.389757
 20
18.1133
 30
0.0
 40
0.019685
 41
0.019685
  0
VERTEX
  8
0
 10
0.389757
 20
18.1143
 30
0.0
 40
0.019685
 41
0.019685
  0
VERTEX
  8
0
 10
0.389757
 20
18.1153
 30
0.0
 40
0.019685
 41
0.019685
  0
VERTEX
  8
0
 10
0.392686
 20
18.1182
 30
0.0
 40
0.019685
 41
0.019685
  0
VERTEX
  8
0
 10
0.393718
 20
18.1182
 30
0.0
 40
0.019685
 41
0.019685
  0
VERTEX
  8
0
 10
0.394694
 20
18.1182
 30
0.0
 40
0.019685
 41
0.019685
  0
VERTEX
  8
0
 10
0.397624
 20
18.1153
 30
0.0
 40
0.019685
 41
0.019685
  0
VERTEX
  8
0
 10
0.397624
 20
18.1143
 30
0.0
 40
0.019685
 41
0.019685
  0
SEQEND
 8
0
  0
TEXT
  8
0
 62
     9
 10
0.47244
 20
18.0356
 30
0
 40
0.11811
  1
ii:l
 50
0
  7
DejaVuSans-Bold
  0
TEXT
  8
0
 62
     9
 10
0.641415
 20
18.0356
 30
0
 40
0.11811
  1
:h1
 50
0
  7
DejaVuSans-Bold
  0
POLYLINE
  8
0
 62
     51
 66
     1
 10
0
 20
0
 30
0.0
 70
     1
 40
0
 41
0
  0
VERTEX
  8
0
 10
0.397624
 20
0.988282
 30
0.0
 40
0
 41
0
  0
VERTEX
  8
0
 10
0.397624
 20
0.987304
 30
0.0
 40
0
 41
0
  0
VERTEX
  8
0
 10
0.394694
 20
0.984375
 30
0.0
 40
0
 41
0
  0
VERTEX
  8
0
 10
0.393718
 20
0.984375
 30
0.0
 40
0
 41
0
  0
VERTEX
  8
0
 10
0.392686
 20
0.984375
 30
0.0
 40
0
 41
0
  0
VERTEX
  8
0
 10
0.389757
 20
0.987304
 30
0.0
 40
0
 41
0
  0
VERTEX
  8
0
 10
0.389757
 20
0.988282
 30
0.0
 40
0
 41
0
  0
VERTEX
  8
0
 10
0.389757
 20
0.989312
 30
0.0
 40
0
 41
0
  0
VERTEX
  8
0
 10
0.392686
 20
0.992242
 30
0.0
 40
0
 41
0
  0
VERTEX
  8
0
 10
0.393718
 20
0.992242
 30
0.0
 40
0
 41
0
  0
VERTEX
  8
0
 10
0.394694
 20
0.992242
 30
0.0
 40
0
 41
0
  0
VERTEX
  8
0
 10
0.397624
 20
0.989312
 30
0.0
 40
0
 41
0
  0
VERTEX
  8
0
 10
0.397624
 20
0.988282
 30
0.0
 40
0
 41
0
  0
SEQEND
 8
0
  0
TEXT
  8
0
 62
     9
 10
0.47244
 20
0.909558
 30
0
 40
0.11811
  1
ii:l
 50
0
  7
DejaVuSans-Bold
  0
TEXT
  8
0
 62
     9
 10
0.641415
 20
0.909558
 30
0
 40
0.11811
  1
:V1
 50
0
  7
DejaVuSans-Bold
  0
POLYLINE
  8
0
 62
     51
 66
     1
 10
0
 20
0
 30
0.0
 70
     1
 40
0
 41
0
  0
VERTEX
  8
0
 10
0.397624
 20
7.48438
 30
0.0
 40
0
 41
0
  0
VERTEX
  8
0
 10
0.397624
 20
7.4834
 30
0.0
 40
0
 41
0
  0
VERTEX
  8
0
 10
0.394694
 20
7.48042
 30
0.0
 40
0
 41
0
  0
VERTEX
  8
0
 10
0.393718
 20
7.48042
 30
0.0
 40
0
 41
0
  0
VERTEX
  8
0
 10
0.392686
 20
7.48042
 30
0.0
 40
0
 41
0
  0
VERTEX
  8
0
 10
0.389757
 20
7.4834
 30
0.0
 40
0
 41
0
  0
VERTEX
  8
0
 10
0.389757
 20
7.48438
 30
0.0
 40
0
 41
0
  0
VERTEX
  8
0
 10
0.389757
 20
7.48535
 30
0.0
 40
0
 41
0
  0
VERTEX
  8
0
 10
0.392686
 20
7.48828
 30
0.0
 40
0
 41
0
  0
VERTEX
  8
0
 10
0.393718
 20
7.48828
 30
0.0
 40
0
 41
0
  0
VERTEX
  8
0
 10
0.394694
 20
7.48828
 30
0.0
 40
0
 41
0
  0
VERTEX
  8
0
 10
0.397624
 20
7.48535
 30
0.0
 40
0
 41
0
  0
VERTEX
  8
0
 10
0.397624
 20
7.48438
 30
0.0
 40
0
 41
0
  0
SEQEND
 8
0
  0
TEXT
  8
0
 62
     9
 10
0.47244
 20
7.40563
 30
0
 40
0.11811
  1
ii:l
 50
0
  7
DejaVuSans-Bold
  0
TEXT
  8
0
 62
     9
 10
0.641415
 20
7.40563
 30
0
 40
0.11811
  1
:B1
 50
0
  7
DejaVuSans-Bold
  0
TEXT
  8
0
 62
     9
 10
0.47244
 20
12.7206
 30
0
 40
0.11811
  1
ii:l
 50
0
  7
DejaVuSans-Bold
  0
TEXT
  8
0
 62
     9
 10
0.641415
 20
12.7206
 30
0
 40
0.11811
  1
:h5
 50
0
  7
DejaVuSans-Bold
  0
TEXT
  8
0
 62
     9
 10
0.885674
 20
0.909558
 30
0
 40
0.11811
  1
V2
 50
0
  7
DejaVuSans-Bold
  0
TEXT
  8
0
 62
     9
 10
0.553642
 20
18.4293
 30
0
 40
0.11811
  1
:
 50
0
  7
DejaVuSans-Bold
  0
TEXT
  8
0
 62
     9
 10
0.641472
 20
18.4293
 30
0
 40
0.11811
  1
:
 50
0
  7
DejaVuSans-Bold
  0
TEXT
  8
0
 62
     9
 10
0.888594
 20
12.7206
 30
0
 40
0.11811
  1
2
 50
0
  7
DejaVuSans-Bold
  0
POLYLINE
  8
0
 62
     51
 66
     1
 10
0
 20
0
 30
0.0
 70
     1
 40
0
 41
0
  0
VERTEX
  8
0
 10
8.38976
 20
12.7993
 30
0.0
 40
0
 41
0
  0
VERTEX
  8
0
 10
8.38976
 20
12.7983
 30
0.0
 40
0
 41
0
  0
VERTEX
  8
0
 10
8.38683
 20
12.7954
 30
0.0
 40
0
 41
0
  0
VERTEX
  8
0
 10
8.38585
 20
12.7954
 30
0.0
 40
0
 41
0
  0
VERTEX
  8
0
 10
8.38482
 20
12.7954
 30
0.0
 40
0
 41
0
  0
VERTEX
  8
0
 10
8.38189
 20
12.7983
 30
0.0
 40
0
 41
0
  0
VERTEX
  8
0
 10
8.38189
 20
12.7993
 30
0.0
 40
0
 41
0
  0
VERTEX
  8
0
 10
8.38189
 20
12.8003
 30
0.0
 40
0
 41
0
  0
VERTEX
  8
0
 10
8.38482
 20
12.8033
 30
0.0
 40
0
 41
0
  0
VERTEX
  8
0
 10
8.38585
 20
12.8033
 30
0.0
 40
0
 41
0
  0
VERTEX
  8
0
 10
8.38683
 20
12.8033
 30
0.0
 40
0
 41
0
  0
VERTEX
  8
0
 10
8.38976
 20
12.8003
 30
0.0
 40
0
 41
0
  0
VERTEX
  8
0
 10
8.38976
 20
12.7993
 30
0.0
 40
0
 41
0
  0
SEQEND
 8
0
  0
TEXT
  8
0
 62
     9
 10
8.46457
 20
12.7206
 30
0
 40
0.11811
  1
ii:l
 50
0
  7
DejaVuSans-Bold
  0
TEXT
  8
0
 62
     9
 10
8.63354
 20
12.7206
 30
0
 40
0.11811
  1
:M10
 50
0
  7
DejaVuSans-Bold
  0
TEXT
  8
0
 62
     9
 10
0.472442
 20
13.1143
 30
0
 40
0.11811
  1
ii:l
 50
0
  7
DejaVuSans-Bold
  0
TEXT
  8
0
 62
     9
 10
0.641415
 20
13.1143
 30
0
 40
0.11811
  1
:M13
 50
0
  7
DejaVuSans-Bold
  0
POLYLINE
  8
0
 62
     51
 66
     1
 10
0
 20
0
 30
0.0
 70
     1
 40
0
 41
0
  0
VERTEX
  8
0
 10
24.2178
 20
0.988282
 30
0.0
 40
0
 41
0
  0
VERTEX
  8
0
 10
24.2178
 20
0.987304
 30
0.0
 40
0
 41
0
  0
VERTEX
  8
0
 10
24.2147
 20
0.984375
 30
0.0
 40
0
 41
0
  0
VERTEX
  8
0
 10
24.2138
 20
0.984375
 30
0.0
 40
0
 41
0
  0
VERTEX
  8
0
 10
24.2128
 20
0.984375
 30
0.0
 40
0
 41
0
  0
VERTEX
  8
0
 10
24.2099
 20
0.987304
 30
0.0
 40
0
 41
0
  0
VERTEX
  8
0
 10
24.2099
 20
0.988282
 30
0.0
 40
0
 41
0
  0
VERTEX
  8
0
 10
24.2099
 20
0.989312
 30
0.0
 40
0
 41
0
  0
VERTEX
  8
0
 10
24.2128
 20
0.992242
 30
0.0
 40
0
 41
0
  0
VERTEX
  8
0
 10
24.2138
 20
0.992242
 30
0.0
 40
0
 41
0
  0
VERTEX
  8
0
 10
24.2147
 20
0.992242
 30
0.0
 40
0
 41
0
  0
VERTEX
  8
0
 10
24.2178
 20
0.989312
 30
0.0
 40
0
 41
0
  0
VERTEX
  8
0
 10
24.2178
 20
0.988282
 30
0.0
 40
0
 41
0
  0
SEQEND
 8
0
  0
TEXT
  8
0
 62
     9
 10
24.2925
 20
0.909558
 30
0
 40
0.11811
  1
##000331
 50
0
  7
DejaVuSans-Bold
  0
POLYLINE
  8
0
 62
     51
 66
     1
 10
0
 20
0
 30
0.0
 70
     1
 40
0
 41
0
  0
VERTEX
  8
0
 10
8.38976
 20
7.48438
 30
0.0
 40
0
 41
0
  0
VERTEX
  8
0
 10
8.38976
 20
7.4834
 30
0.0
 40
0
 41
0
  0
VERTEX
  8
0
 10
8.38683
 20
7.48042
 30
0.0
 40
0
 41
0
  0
VERTEX
  8
0
 10
8.38585
 20
7.48042
 30
0.0
 40
0
 41
0
  0
VERTEX
  8
0
 10
8.38482
 20
7.48042
 30
0.0
 40
0
 41
0
  0
VERTEX
  8
0
 10
8.38189
 20
7.4834
 30
0.0
 40
0
 41
0
  0
VERTEX
  8
0
 10
8.38189
 20
7.48438
 30
0.0
 40
0
 41
0
  0
VERTEX
  8
0
 10
8.38189
 20
7.48535
 30
0.0
 40
0
 41
0
  0
VERTEX
  8
0
 10
8.38482
 20
7.48828
 30
0.0
 40
0
 41
0
  0
VERTEX
  8
0
 10
8.38585
 20
7.48828
 30
0.0
 40
0
 41
0
  0
VERTEX
  8
0
 10
8.38683
 20
7.48828
 30
0.0
 40
0
 41
0
  0
VERTEX
  8
0
 10
8.38976
 20
7.48535
 30
0.0
 40
0
 41
0
  0
VERTEX
  8
0
 10
8.38976
 20
7.48438
 30
0.0
 40
0
 41
0
  0
SEQEND
 8
0
  0
TEXT
  8
0
 62
     9
 10
8.46457
 20
7.40563
 30
0
 40
0.11811
  1
ii:l
 50
0
  7
DejaVuSans-Bold
  0
TEXT
  8
0
 62
     9
 10
8.63354
 20
7.40563
 30
0
 40
0.11811
  1
:B2
 50
0
  7
DejaVuSans-Bold
  0
POLYLINE
  8
0
 62
     51
 66
     1
 10
0
 20
0
 30
0.0
 70
     1
 40
0
 41
0
  0
VERTEX
  8
0
 10
14.3128
 20
7.48438
 30
0.0
 40
0
 41
0
  0
VERTEX
  8
0
 10
14.3128
 20
7.4834
 30
0.0
 40
0
 41
0
  0
VERTEX
  8
0
 10
14.3099
 20
7.48042
 30
0.0
 40
0
 41
0
  0
VERTEX
  8
0
 10
14.3089
 20
7.48042
 30
0.0
 40
0
 41
0
  0
VERTEX
  8
0
 10
14.3079
 20
7.48042
 30
0.0
 40
0
 41
0
  0
VERTEX
  8
0
 10
14.305
 20
7.4834
 30
0.0
 40
0
 41
0
  0
VERTEX
  8
0
 10
14.305
 20
7.48438
 30
0.0
 40
0
 41
0
  0
VERTEX
  8
0
 10
14.305
 20
7.48535
 30
0.0
 40
0
 41
0
  0
VERTEX
  8
0
 10
14.3079
 20
7.48828
 30
0.0
 40
0
 41
0
  0
VERTEX
  8
0
 10
14.3089
 20
7.48828
 30
0.0
 40
0
 41
0
  0
VERTEX
  8
0
 10
14.3099
 20
7.48828
 30
0.0
 40
0
 41
0
  0
VERTEX
  8
0
 10
14.3128
 20
7.48535
 30
0.0
 40
0
 41
0
  0
VERTEX
  8
0
 10
14.3128
 20
7.48438
 30
0.0
 40
0
 41
0
  0
SEQEND
 8
0
  0
TEXT
  8
0
 62
     9
 10
14.3876
 20
7.40563
 30
0
 40
0.11811
  1
ii:l
 50
0
  7
DejaVuSans-Bold
  0
TEXT
  8
0
 62
     9
 10
14.5567
 20
7.40563
 30
0
 40
0.11811
  1
:B22
 50
0
  7
DejaVuSans-Bold
  0
POLYLINE
  8
0
 62
     51
 66
     1
 10
0
 20
0
 30
0.0
 70
     1
 40
0
 41
0
  0
VERTEX
  8
0
 10
24.2178
 20
0.624132
 30
0.0
 40
0
 41
0
  0
VERTEX
  8
0
 10
24.2178
 20
0.623156
 30
0.0
 40
0
 41
0
  0
VERTEX
  8
0
 10
24.2147
 20
0.620171
 30
0.0
 40
0
 41
0
  0
VERTEX
  8
0
 10
24.2138
 20
0.620171
 30
0.0
 40
0
 41
0
  0
VERTEX
  8
0
 10
24.2128
 20
0.620171
 30
0.0
 40
0
 41
0
  0
VERTEX
  8
0
 10
24.2099
 20
0.623156
 30
0.0
 40
0
 41
0
  0
VERTEX
  8
0
 10
24.2099
 20
0.624132
 30
0.0
 40
0
 41
0
  0
VERTEX
  8
0
 10
24.2099
 20
0.625108
 30
0.0
 40
0
 41
0
  0
VERTEX
  8
0
 10
24.2128
 20
0.628039
 30
0.0
 40
0
 41
0
  0
VERTEX
  8
0
 10
24.2138
 20
0.628039
 30
0.0
 40
0
 41
0
  0
VERTEX
  8
0
 10
24.2147
 20
0.628039
 30
0.0
 40
0
 41
0
  0
VERTEX
  8
0
 10
24.2178
 20
0.625108
 30
0.0
 40
0
 41
0
  0
VERTEX
  8
0
 10
24.2178
 20
0.624132
 30
0.0
 40
0
 41
0
  0
SEQEND
 8
0
  0
TEXT
  8
0
 62
     9
 10
24.2925
 20
0.545385
 30
0
 40
0.11811
  1
ii:l
 50
0
  7
DejaVuSans-Bold
  0
TEXT
  8
0
 62
     9
 10
24.4615
 20
0.545385
 30
0
 40
0.11811
  1
:V
 50
0
  7
DejaVuSans-Bold
  0
TEXT
  8
0
 62
     9
 10
24.6822
 20
0.545385
 30
0
 40
0.11811
  1
1
 50
0
  7
DejaVuSans-Bold
  0
POLYLINE
  8
0
 62
     51
 66
     1
 10
0
 20
0
 30
0.0
 70
     1
 40
0
 41
0
  0
VERTEX
  8
0
 10
14.3128
 20
20.939
 30
0.0
 40
0
 41
0
  0
VERTEX
  8
0
 10
14.3128
 20
20.9381
 30
0.0
 40
0
 41
0
  0
VERTEX
  8
0
 10
14.3099
 20
20.9351
 30
0.0
 40
0
 41
0
  0
VERTEX
  8
0
 10
14.3089
 20
20.9351
 30
0.0
 40
0
 41
0
  0
VERTEX
  8
0
 10
14.3079
 20
20.9351
 30
0.0
 40
0
 41
0
  0
VERTEX
  8
0
 10
14.305
 20
20.9381
 30
0.0
 40
0
 41
0
  0
VERTEX
  8
0
 10
14.305
 20
20.939
 30
0.0
 40
0
 41
0
  0
VERTEX
  8
0
 10
14.305
 20
20.9401
 30
0.0
 40
0
 41
0
  0
VERTEX
  8
0
 10
14.3079
 20
20.9431
 30
0.0
 40
0
 41
0
  0
VERTEX
  8
0
 10
14.3089
 20
20.9431
 30
0.0
 40
0
 41
0
  0
VERTEX
  8
0
 10
14.3099
 20
20.9431
 30
0.0
 40
0
 41
0
  0
VERTEX
  8
0
 10
14.3128
 20
20.9401
 30
0.0
 40
0
 41
0
  0
VERTEX
  8
0
 10
14.3128
 20
20.939
 30
0.0
 40
0
 41
0
  0
SEQEND
 8
0
  0
TEXT
  8
0
 62
     9
 10
14.3876
 20
20.8603
 30
0
 40
0.11811
  1
ii:l
 50
0
  7
DejaVuSans-Bold
  0
TEXT
  8
0
 62
     9
 10
14.5567
 20
20.8603
 30
0
 40
0.11811
  1
:h22
 50
0
  7
DejaVuSans-Bold
  0
POLYLINE
  8
0
 62
     51
 66
     1
 10
0
 20
0
 30
0.0
 70
     1
 40
0
 41
0
  0
VERTEX
  8
0
 10
24.2178
 20
8.49815
 30
0.0
 40
0
 41
0
  0
VERTEX
  8
0
 10
24.2178
 20
8.49718
 30
0.0
 40
0
 41
0
  0
VERTEX
  8
0
 10
24.2147
 20
8.49419
 30
0.0
 40
0
 41
0
  0
VERTEX
  8
0
 10
24.2138
 20
8.49419
 30
0.0
 40
0
 41
0
  0
VERTEX
  8
0
 10
24.2128
 20
8.49419
 30
0.0
 40
0
 41
0
  0
VERTEX
  8
0
 10
24.2099
 20
8.49718
 30
0.0
 40
0
 41
0
  0
VERTEX
  8
0
 10
24.2099
 20
8.49815
 30
0.0
 40
0
 41
0
  0
VERTEX
  8
0
 10
24.2099
 20
8.49914
 30
0.0
 40
0
 41
0
  0
VERTEX
  8
0
 10
24.2128
 20
8.50206
 30
0.0
 40
0
 41
0
  0
VERTEX
  8
0
 10
24.2138
 20
8.50206
 30
0.0
 40
0
 41
0
  0
VERTEX
  8
0
 10
24.2147
 20
8.50206
 30
0.0
 40
0
 41
0
  0
VERTEX
  8
0
 10
24.2178
 20
8.49914
 30
0.0
 40
0
 41
0
  0
VERTEX
  8
0
 10
24.2178
 20
8.49815
 30
0.0
 40
0
 41
0
  0
SEQEND
 8
0
  0
TEXT
  8
0
 62
     9
 10
24.2925
 20
8.4194
 30
0
 40
0.11811
  1
ii:l
 50
0
  7
DejaVuSans-Bold
  0
TEXT
  8
0
 62
     9
 10
24.4615
 20
8.4194
 30
0
 40
0.11811
  1
:K
 50
0
  7
DejaVuSans-Bold
  0
TEXT
  8
0
 62
     9
 10
24.6825
 20
8.4194
 30
0
 40
0.11811
  1
1
 50
0
  7
DejaVuSans-Bold
  0
POLYLINE
  8
0
 62
     51
 66
     1
 10
0
 20
0
 30
0.0
 70
     1
 40
0
 41
0
  0
VERTEX
  8
0
 10
14.3128
 20
12.1959
 30
0.0
 40
0
 41
0
  0
VERTEX
  8
0
 10
14.3128
 20
12.1949
 30
0.0
 40
0
 41
0
  0
VERTEX
  8
0
 10
14.3099
 20
12.192
 30
0.0
 40
0
 41
0
  0
VERTEX
  8
0
 10
14.3089
 20
12.192
 30
0.0
 40
0
 41
0
  0
VERTEX
  8
0
 10
14.3079
 20
12.192
 30
0.0
 40
0
 41
0
  0
VERTEX
  8
0
 10
14.305
 20
12.1949
 30
0.0
 40
0
 41
0
  0
VERTEX
  8
0
 10
14.305
 20
12.1959
 30
0.0
 40
0
 41
0
  0
VERTEX
  8
0
 10
14.305
 20
12.1969
 30
0.0
 40
0
 41
0
  0
VERTEX
  8
0
 10
14.3079
 20
12.1999
 30
0.0
 40
0
 41
0
  0
VERTEX
  8
0
 10
14.3089
 20
12.1999
 30
0.0
 40
0
 41
0
  0
VERTEX
  8
0
 10
14.3099
 20
12.1999
 30
0.0
 40
0
 41
0
  0
VERTEX
  8
0
 10
14.3128
 20
12.1969
 30
0.0
 40
0
 41
0
  0
VERTEX
  8
0
 10
14.3128
 20
12.1959
 30
0.0
 40
0
 41
0
  0
SEQEND
 8
0
  0
TEXT
  8
0
 62
     9
 10
14.3876
 20
12.1172
 30
0
 40
0.11811
  1
ii:l
 50
0
  7
DejaVuSans-Bold
  0
TEXT
  8
0
 62
     9
 10
14.5567
 20
12.1172
 30
0
 40
0.11811
  1
:P12
 50
0
  7
DejaVuSans-Bold
  0
TEXT
  8
0
 62
     9
 10
0.867372
 20
7.40563
 30
0
 40
0.11811
  1
4
 50
0
  7
DejaVuSans-Bold
  0
POLYLINE
  8
0
 62
     51
 66
     1
 10
0
 20
0
 30
0.0
 70
     1
 40
0
 41
0
  0
VERTEX
  8
0
 10
24.2178
 20
7.48438
 30
0.0
 40
0
 41
0
  0
VERTEX
  8
0
 10
24.2178
 20
7.4834
 30
0.0
 40
0
 41
0
  0
VERTEX
  8
0
 10
24.2147
 20
7.48042
 30
0.0
 40
0
 41
0
  0
VERTEX
  8
0
 10
24.2138
 20
7.48042
 30
0.0
 40
0
 41
0
  0
VERTEX
  8
0
 10
24.2128
 20
7.48042
 30
0.0
 40
0
 41
0
  0
VERTEX
  8
0
 10
24.2099
 20
7.4834
 30
0.0
 40
0
 41
0
  0
VERTEX
  8
0
 10
24.2099
 20
7.48438
 30
0.0
 40
0
 41
0
  0
VERTEX
  8
0
 10
24.2099
 20
7.48535
 30
0.0
 40
0
 41
0
  0
VERTEX
  8
0
 10
24.2128
 20
7.48828
 30
0.0
 40
0
 41
0
  0
VERTEX
  8
0
 10
24.2138
 20
7.48828
 30
0.0
 40
0
 41
0
  0
VERTEX
  8
0
 10
24.2147
 20
7.48828
 30
0.0
 40
0
 41
0
  0
VERTEX
  8
0
 10
24.2178
 20
7.48535
 30
0.0
 40
0
 41
0
  0
VERTEX
  8
0
 10
24.2178
 20
7.48438
 30
0.0
 40
0
 41
0
  0
SEQEND
 8
0
  0
TEXT
  8
0
 62
     9
 10
24.2925
 20
7.40563
 30
0
 40
0.11811
  1
ii:l
 50
0
  7
DejaVuSans-Bold
  0
TEXT
  8
0
 62
     9
 10
24.4615
 20
7.40563
 30
0
 40
0.11811
  1
:B21a
 50
0
  7
DejaVuSans-Bold
  0
POLYLINE
  8
0
 62
     51
 66
     1
 10
0
 20
0
 30
0.0
 70
     1
 40
0
 41
0
  0
VERTEX
  8
0
 10
19.6901
 20
8.49815
 30
0.0
 40
0
 41
0
  0
VERTEX
  8
0
 10
19.6901
 20
8.49718
 30
0.0
 40
0
 41
0
  0
VERTEX
  8
0
 10
19.6872
 20
8.49419
 30
0.0
 40
0
 41
0
  0
VERTEX
  8
0
 10
19.6863
 20
8.49419
 30
0.0
 40
0
 41
0
  0
VERTEX
  8
0
 10
19.6853
 20
8.49419
 30
0.0
 40
0
 41
0
  0
VERTEX
  8
0
 10
19.6824
 20
8.49718
 30
0.0
 40
0
 41
0
  0
VERTEX
  8
0
 10
19.6824
 20
8.49815
 30
0.0
 40
0
 41
0
  0
VERTEX
  8
0
 10
19.6824
 20
8.49914
 30
0.0
 40
0
 41
0
  0
VERTEX
  8
0
 10
19.6853
 20
8.50206
 30
0.0
 40
0
 41
0
  0
VERTEX
  8
0
 10
19.6863
 20
8.50206
 30
0.0
 40
0
 41
0
  0
VERTEX
  8
0
 10
19.6872
 20
8.50206
 30
0.0
 40
0
 41
0
  0
VERTEX
  8
0
 10
19.6901
 20
8.49914
 30
0.0
 40
0
 41
0
  0
VERTEX
  8
0
 10
19.6901
 20
8.49815
 30
0.0
 40
0
 41
0
  0
SEQEND
 8
0
  0
TEXT
  8
0
 62
     9
 10
19.765
 20
8.4194
 30
0
 40
0.11811
  1
ii:l
 50
0
  7
DejaVuSans-Bold
  0
TEXT
  8
0
 62
     9
 10
19.9339
 20
8.4194
 30
0
 40
0.11811
  1
:K
 50
0
  7
DejaVuSans-Bold
  0
TEXT
  8
0
 62
     9
 10
20.1549
 20
8.4194
 30
0
 40
0.11811
  1
3
 50
0
  7
DejaVuSans-Bold
  0
POLYLINE
  8
0
 62
     51
 66
     1
 10
0
 20
0
 30
0.0
 70
     1
 40
0
 41
0
  0
VERTEX
  8
0
 10
19.2964
 20
20.939
 30
0.0
 40
0
 41
0
  0
VERTEX
  8
0
 10
19.2964
 20
20.9381
 30
0.0
 40
0
 41
0
  0
VERTEX
  8
0
 10
19.2935
 20
20.9351
 30
0.0
 40
0
 41
0
  0
VERTEX
  8
0
 10
19.2925
 20
20.9351
 30
0.0
 40
0
 41
0
  0
VERTEX
  8
0
 10
19.2915
 20
20.9351
 30
0.0
 40
0
 41
0
  0
VERTEX
  8
0
 10
19.2886
 20
20.9381
 30
0.0
 40
0
 41
0
  0
VERTEX
  8
0
 10
19.2886
 20
20.939
 30
0.0
 40
0
 41
0
  0
VERTEX
  8
0
 10
19.2886
 20
20.9401
 30
0.0
 40
0
 41
0
  0
VERTEX
  8
0
 10
19.2915
 20
20.9431
 30
0.0
 40
0
 41
0
  0
VERTEX
  8
0
 10
19.2925
 20
20.9431
 30
0.0
 40
0
 41
0
  0
VERTEX
  8
0
 10
19.2935
 20
20.9431
 30
0.0
 40
0
 41
0
  0
VERTEX
  8
0
 10
19.2964
 20
20.9401
 30
0.0
 40
0
 41
0
  0
VERTEX
  8
0
 10
19.2964
 20
20.939
 30
0.0
 40
0
 41
0
  0
SEQEND
 8
0
  0
TEXT
  8
0
 62
     9
 10
19.3712
 20
20.8603
 30
0
 40
0.11811
  1
ii:l
 50
0
  7
DejaVuSans-Bold
  0
TEXT
  8
0
 62
     9
 10
19.5403
 20
20.8603
 30
0
 40
0.11811
  1
:h24
 50
0
  7
DejaVuSans-Bold
  0
POLYLINE
  8
0
 62
     51
 66
     1
 10
0
 20
0
 30
0.0
 70
     1
 40
0
 41
0
  0
VERTEX
  8
0
 10
19.9393
 20
0.624132
 30
0.0
 40
0
 41
0
  0
VERTEX
  8
0
 10
19.9393
 20
0.623156
 30
0.0
 40
0
 41
0
  0
VERTEX
  8
0
 10
19.9364
 20
0.620171
 30
0.0
 40
0
 41
0
  0
VERTEX
  8
0
 10
19.9354
 20
0.620171
 30
0.0
 40
0
 41
0
  0
VERTEX
  8
0
 10
19.9344
 20
0.620171
 30
0.0
 40
0
 41
0
  0
VERTEX
  8
0
 10
19.9315
 20
0.623156
 30
0.0
 40
0
 41
0
  0
VERTEX
  8
0
 10
19.9315
 20
0.624132
 30
0.0
 40
0
 41
0
  0
VERTEX
  8
0
 10
19.9315
 20
0.625108
 30
0.0
 40
0
 41
0
  0
VERTEX
  8
0
 10
19.9344
 20
0.628039
 30
0.0
 40
0
 41
0
  0
VERTEX
  8
0
 10
19.9354
 20
0.628039
 30
0.0
 40
0
 41
0
  0
VERTEX
  8
0
 10
19.9364
 20
0.628039
 30
0.0
 40
0
 41
0
  0
VERTEX
  8
0
 10
19.9393
 20
0.625108
 30
0.0
 40
0
 41
0
  0
VERTEX
  8
0
 10
19.9393
 20
0.624132
 30
0.0
 40
0
 41
0
  0
SEQEND
 8
0
  0
TEXT
  8
0
 62
     9
 10
20.0142
 20
0.545385
 30
0
 40
0.11811
  1
ii:l
 50
0
  7
DejaVuSans-Bold
  0
TEXT
  8
0
 62
     9
 10
20.1831
 20
0.545385
 30
0
 40
0.11811
  1
:V
 50
0
  7
DejaVuSans-Bold
  0
TEXT
  8
0
 62
     9
 10
20.4039
 20
0.545385
 30
0
 40
0.11811
  1
3
 50
0
  7
DejaVuSans-Bold
  0
TEXT
  8
0
 62
     9
 10
3.96326
 20
18.0356
 30
0
 40
0.11811
  1
ii:l
 50
0
  7
DejaVuSans-Bold
  0
TEXT
  8
0
 62
     9
 10
4.13224
 20
18.0356
 30
0
 40
0.11811
  1
:h1a
 50
0
  7
DejaVuSans-Bold
  0
POLYLINE
  8
0
 62
     51
 66
     1
 10
0
 20
0
 30
0.0
 70
     1
 40
0
 41
0
  0
VERTEX
  8
0
 10
24.4933
 20
20.939
 30
0.0
 40
0
 41
0
  0
VERTEX
  8
0
 10
24.4933
 20
20.9381
 30
0.0
 40
0
 41
0
  0
VERTEX
  8
0
 10
24.4903
 20
20.9351
 30
0.0
 40
0
 41
0
  0
VERTEX
  8
0
 10
24.4893
 20
20.9351
 30
0.0
 40
0
 41
0
  0
VERTEX
  8
0
 10
24.4883
 20
20.9351
 30
0.0
 40
0
 41
0
  0
VERTEX
  8
0
 10
24.4854
 20
20.9381
 30
0.0
 40
0
 41
0
  0
VERTEX
  8
0
 10
24.4854
 20
20.939
 30
0.0
 40
0
 41
0
  0
VERTEX
  8
0
 10
24.4854
 20
20.9401
 30
0.0
 40
0
 41
0
  0
VERTEX
  8
0
 10
24.4883
 20
20.9431
 30
0.0
 40
0
 41
0
  0
VERTEX
  8
0
 10
24.4893
 20
20.9431
 30
0.0
 40
0
 41
0
  0
VERTEX
  8
0
 10
24.4903
 20
20.9431
 30
0.0
 40
0
 41
0
  0
VERTEX
  8
0
 10
24.4933
 20
20.9401
 30
0.0
 40
0
 41
0
  0
VERTEX
  8
0
 10
24.4933
 20
20.939
 30
0.0
 40
0
 41
0
  0
SEQEND
 8
0
  0
TEXT
  8
0
 62
     9
 10
24.5681
 20
20.8603
 30
0
 40
0.11811
  1
ii:l
 50
0
  7
DejaVuSans-Bold
  0
TEXT
  8
0
 62
     9
 10
24.7371
 20
20.8603
 30
0
 40
0.11811
  1
:h21a
 50
0
  7
DejaVuSans-Bold
  0
POLYLINE
  8
0
 62
     51
 66
     1
 10
0
 20
0
 30
0.0
 70
     1
 40
0
 41
0
  0
VERTEX
  8
0
 10
24.2194
 20
17.5775
 30
0.0
 40
0
 41
0
  0
VERTEX
  8
0
 10
24.2194
 20
17.5765
 30
0.0
 40
0
 41
0
  0
VERTEX
  8
0
 10
24.2165
 20
17.5736
 30
0.0
 40
0
 41
0
  0
VERTEX
  8
0
 10
24.2156
 20
17.5736
 30
0.0
 40
0
 41
0
  0
VERTEX
  8
0
 10
24.2146
 20
17.5736
 30
0.0
 40
0
 41
0
  0
VERTEX
  8
0
 10
24.2117
 20
17.5765
 30
0.0
 40
0
 41
0
  0
VERTEX
  8
0
 10
24.2117
 20
17.5775
 30
0.0
 40
0
 41
0
  0
VERTEX
  8
0
 10
24.2117
 20
17.5785
 30
0.0
 40
0
 41
0
  0
VERTEX
  8
0
 10
24.2146
 20
17.5814
 30
0.0
 40
0
 41
0
  0
VERTEX
  8
0
 10
24.2156
 20
17.5814
 30
0.0
 40
0
 41
0
  0
VERTEX
  8
0
 10
24.2165
 20
17.5814
 30
0.0
 40
0
 41
0
  0
VERTEX
  8
0
 10
24.2194
 20
17.5785
 30
0.0
 40
0
 41
0
  0
VERTEX
  8
0
 10
24.2194
 20
17.5775
 30
0.0
 40
0
 41
0
  0
SEQEND
 8
0
  0
TEXT
  8
0
 62
     9
 10
24.2943
 20
17.4988
 30
0
 40
0.11811
  1
ii:l
 50
0
  7
DejaVuSans-Bold
  0
TEXT
  8
0
 62
     9
 10
24.4633
 20
17.4988
 30
0
 40
0.11811
  1
:P1
 50
0
  7
DejaVuSans-Bold
  0
POLYLINE
  8
0
 62
     51
 66
     1
 10
0
 20
0
 30
0.0
 70
     1
 40
0
 41
0
  0
VERTEX
  8
0
 10
21.1206
 20
20.939
 30
0.0
 40
0
 41
0
  0
VERTEX
  8
0
 10
21.1206
 20
20.9381
 30
0.0
 40
0
 41
0
  0
VERTEX
  8
0
 10
21.1176
 20
20.9351
 30
0.0
 40
0
 41
0
  0
VERTEX
  8
0
 10
21.1167
 20
20.9351
 30
0.0
 40
0
 41
0
  0
VERTEX
  8
0
 10
21.1157
 20
20.9351
 30
0.0
 40
0
 41
0
  0
VERTEX
  8
0
 10
21.1128
 20
20.9381
 30
0.0
 40
0
 41
0
  0
VERTEX
  8
0
 10
21.1128
 20
20.939
 30
0.0
 40
0
 41
0
  0
VERTEX
  8
0
 10
21.1128
 20
20.9401
 30
0.0
 40
0
 41
0
  0
VERTEX
  8
0
 10
21.1157
 20
20.9431
 30
0.0
 40
0
 41
0
  0
VERTEX
  8
0
 10
21.1167
 20
20.9431
 30
0.0
 40
0
 41
0
  0
VERTEX
  8
0
 10
21.1176
 20
20.9431
 30
0.0
 40
0
 41
0
  0
VERTEX
  8
0
 10
21.1206
 20
20.9401
 30
0.0
 40
0
 41
0
  0
VERTEX
  8
0
 10
21.1206
 20
20.939
 30
0.0
 40
0
 41
0
  0
SEQEND
 8
0
  0
TEXT
  8
0
 62
     9
 10
21.1954
 20
20.8603
 30
0
 40
0.11811
  1
ii:l
 50
0
  7
DejaVuSans-Bold
  0
TEXT
  8
0
 62
     9
 10
21.3643
 20
20.8603
 30
0
 40
0.11811
  1
:P2
 50
0
  7
DejaVuSans-Bold
  0
POLYLINE
  8
0
 62
     93
 66
     1
 10
0
 20
0
 30
0.0
 70
     1
 40
1.41732
 41
1.41732
  0
VERTEX
  8
0
 10
3.88846
 20
18.0968
 30
0.0
 40
0.019685
 41
0.019685
  0
VERTEX
  8
0
 10
3.88846
 20
18.0958
 30
0.0
 40
0.019685
 41
0.019685
  0
VERTEX
  8
0
 10
3.88553
 20
18.0929
 30
0.0
 40
0.019685
 41
0.019685
  0
VERTEX
  8
0
 10
3.88456
 20
18.0929
 30
0.0
 40
0.019685
 41
0.019685
  0
VERTEX
  8
0
 10
3.88351
 20
18.0929
 30
0.0
 40
0.019685
 41
0.019685
  0
VERTEX
  8
0
 10
3.88058
 20
18.0958
 30
0.0
 40
0.019685
 41
0.019685
  0
VERTEX
  8
0
 10
3.88058
 20
18.0968
 30
0.0
 40
0.019685
 41
0.019685
  0
VERTEX
  8
0
 10
3.88058
 20
18.0978
 30
0.0
 40
0.019685
 41
0.019685
  0
VERTEX
  8
0
 10
3.88351
 20
18.1007
 30
0.0
 40
0.019685
 41
0.019685
  0
VERTEX
  8
0
 10
3.88456
 20
18.1007
 30
0.0
 40
0.019685
 41
0.019685
  0
VERTEX
  8
0
 10
3.88553
 20
18.1007
 30
0.0
 40
0.019685
 41
0.019685
  0
VERTEX
  8
0
 10
3.88846
 20
18.0978
 30
0.0
 40
0.019685
 41
0.019685
  0
VERTEX
  8
0
 10
3.88846
 20
18.0968
 30
0.0
 40
0.019685
 41
0.019685
  0
SEQEND
 8
0
  0
POLYLINE
  8
0
 62
     93
 66
     1
 10
0
 20
0
 30
0.0
 70
     1
 40
1.41732
 41
1.41732
  0
VERTEX
  8
0
 10
10.2763
 20
18.0968
 30
0.0
 40
0.019685
 41
0.019685
  0
VERTEX
  8
0
 10
10.2763
 20
18.0958
 30
0.0
 40
0.019685
 41
0.019685
  0
VERTEX
  8
0
 10
10.2733
 20
18.0929
 30
0.0
 40
0.019685
 41
0.019685
  0
VERTEX
  8
0
 10
10.2723
 20
18.0929
 30
0.0
 40
0.019685
 41
0.019685
  0
VERTEX
  8
0
 10
10.2713
 20
18.0929
 30
0.0
 40
0.019685
 41
0.019685
  0
VERTEX
  8
0
 10
10.2684
 20
18.0958
 30
0.0
 40
0.019685
 41
0.019685
  0
VERTEX
  8
0
 10
10.2684
 20
18.0968
 30
0.0
 40
0.019685
 41
0.019685
  0
VERTEX
  8
0
 10
10.2684
 20
18.0978
 30
0.0
 40
0.019685
 41
0.019685
  0
VERTEX
  8
0
 10
10.2713
 20
18.1007
 30
0.0
 40
0.019685
 41
0.019685
  0
VERTEX
  8
0
 10
10.2723
 20
18.1007
 30
0.0
 40
0.019685
 41
0.019685
  0
VERTEX
  8
0
 10
10.2733
 20
18.1007
 30
0.0
 40
0.019685
 41
0.019685
  0
VERTEX
  8
0
 10
10.2763
 20
18.0978
 30
0.0
 40
0.019685
 41
0.019685
  0
VERTEX
  8
0
 10
10.2763
 20
18.0968
 30
0.0
 40
0.019685
 41
0.019685
  0
SEQEND
 8
0
  0
TEXT
  8
0
 62
     9
 10
10.3511
 20
18.0181
 30
0
 40
0.11811
  1
ii:l
 50
0
  7
DejaVuSans-Bold
  0
TEXT
  8
0
 62
     9
 10
10.52
 20
18.0181
 30
0
 40
0.11811
  1
:h7
 50
0
  7
DejaVuSans-Bold
  0
POLYLINE
  8
0
 62
     51
 66
     1
 10
0
 20
0
 30
0.0
 70
     1
 40
0
 41
0
  0
VERTEX
  8
0
 10
15.6087
 20
20.939
 30
0.0
 40
0
 41
0
  0
VERTEX
  8
0
 10
15.6087
 20
20.9381
 30
0.0
 40
0
 41
0
  0
VERTEX
  8
0
 10
15.6058
 20
20.9351
 30
0.0
 40
0
 41
0
  0
VERTEX
  8
0
 10
15.6049
 20
20.9351
 30
0.0
 40
0
 41
0
  0
VERTEX
  8
0
 10
15.6039
 20
20.9351
 30
0.0
 40
0
 41
0
  0
VERTEX
  8
0
 10
15.601
 20
20.9381
 30
0.0
 40
0
 41
0
  0
VERTEX
  8
0
 10
15.601
 20
20.939
 30
0.0
 40
0
 41
0
  0
VERTEX
  8
0
 10
15.601
 20
20.9401
 30
0.0
 40
0
 41
0
  0
VERTEX
  8
0
 10
15.6039
 20
20.9431
 30
0.0
 40
0
 41
0
  0
VERTEX
  8
0
 10
15.6049
 20
20.9431
 30
0.0
 40
0
 41
0
  0
VERTEX
  8
0
 10
15.6058
 20
20.9431
 30
0.0
 40
0
 41
0
  0
VERTEX
  8
0
 10
15.6087
 20
20.9401
 30
0.0
 40
0
 41
0
  0
VERTEX
  8
0
 10
15.6087
 20
20.939
 30
0.0
 40
0
 41
0
  0
SEQEND
 8
0
  0
TEXT
  8
0
 62
     9
 10
15.6836
 20
20.8603
 30
0
 40
0.11811
  1
ii:l
 50
0
  7
DejaVuSans-Bold
  0
TEXT
  8
0
 62
     9
 10
15.8525
 20
20.8603
 30
0
 40
0.11811
  1
:h25
 50
0
  7
DejaVuSans-Bold
  0
POLYLINE
  8
0
 62
     51
 66
     1
 10
0
 20
0
 30
0.0
 70
     1
 40
0
 41
0
  0
VERTEX
  8
0
 10
15.6087
 20
18.9706
 30
0.0
 40
0
 41
0
  0
VERTEX
  8
0
 10
15.6087
 20
18.9696
 30
0.0
 40
0
 41
0
  0
VERTEX
  8
0
 10
15.6058
 20
18.9667
 30
0.0
 40
0
 41
0
  0
VERTEX
  8
0
 10
15.6049
 20
18.9667
 30
0.0
 40
0
 41
0
  0
VERTEX
  8
0
 10
15.6039
 20
18.9667
 30
0.0
 40
0
 41
0
  0
VERTEX
  8
0
 10
15.601
 20
18.9696
 30
0.0
 40
0
 41
0
  0
VERTEX
  8
0
 10
15.601
 20
18.9706
 30
0.0
 40
0
 41
0
  0
VERTEX
  8
0
 10
15.601
 20
18.9715
 30
0.0
 40
0
 41
0
  0
VERTEX
  8
0
 10
15.6039
 20
18.9744
 30
0.0
 40
0
 41
0
  0
VERTEX
  8
0
 10
15.6049
 20
18.9744
 30
0.0
 40
0
 41
0
  0
VERTEX
  8
0
 10
15.6058
 20
18.9744
 30
0.0
 40
0
 41
0
  0
VERTEX
  8
0
 10
15.6087
 20
18.9715
 30
0.0
 40
0
 41
0
  0
VERTEX
  8
0
 10
15.6087
 20
18.9706
 30
0.0
 40
0
 41
0
  0
SEQEND
 8
0
  0
TEXT
  8
0
 62
     9
 10
15.6836
 20
18.8918
 30
0
 40
0.11811
  1
ii:l
 50
0
  7
DejaVuSans-Bold
  0
TEXT
  8
0
 62
     9
 10
15.8525
 20
18.8918
 30
0
 40
0.11811
  1
:h26
 50
0
  7
DejaVuSans-Bold
  0
POLYLINE
  8
0
 62
     51
 66
     1
 10
0
 20
0
 30
0.0
 70
     1
 40
0
 41
0
  0
VERTEX
  8
0
 10
15.9299
 20
19.0854
 30
0.0
 40
0
 41
0
  0
VERTEX
  8
0
 10
15.9299
 20
19.0844
 30
0.0
 40
0
 41
0
  0
VERTEX
  8
0
 10
15.9268
 20
19.0815
 30
0.0
 40
0
 41
0
  0
VERTEX
  8
0
 10
15.9258
 20
19.0815
 30
0.0
 40
0
 41
0
  0
VERTEX
  8
0
 10
15.9249
 20
19.0815
 30
0.0
 40
0
 41
0
  0
VERTEX
  8
0
 10
15.9219
 20
19.0844
 30
0.0
 40
0
 41
0
  0
VERTEX
  8
0
 10
15.9219
 20
19.0854
 30
0.0
 40
0
 41
0
  0
VERTEX
  8
0
 10
15.9219
 20
19.0865
 30
0.0
 40
0
 41
0
  0
VERTEX
  8
0
 10
15.9249
 20
19.0894
 30
0.0
 40
0
 41
0
  0
VERTEX
  8
0
 10
15.9258
 20
19.0894
 30
0.0
 40
0
 41
0
  0
VERTEX
  8
0
 10
15.9268
 20
19.0894
 30
0.0
 40
0
 41
0
  0
VERTEX
  8
0
 10
15.9299
 20
19.0865
 30
0.0
 40
0
 41
0
  0
VERTEX
  8
0
 10
15.9299
 20
19.0854
 30
0.0
 40
0
 41
0
  0
SEQEND
 8
0
  0
TEXT
  8
0
 62
     9
 10
16.0046
 20
19.0067
 30
0
 40
0.11811
  1
ii:l
 50
0
  7
DejaVuSans-Bold
  0
TEXT
  8
0
 62
     9
 10
16.1736
 20
19.0067
 30
0
 40
0.11811
  1
:h40
 50
0
  7
DejaVuSans-Bold
  0
POLYLINE
  8
0
 62
     51
 66
     1
 10
0
 20
0
 30
0.0
 70
     1
 40
0
 41
0
  0
VERTEX
  8
0
 10
19.3168
 20
20.295
 30
0.0
 40
0
 41
0
  0
VERTEX
  8
0
 10
19.3168
 20
20.294
 30
0.0
 40
0
 41
0
  0
VERTEX
  8
0
 10
19.3139
 20
20.2911
 30
0.0
 40
0
 41
0
  0
VERTEX
  8
0
 10
19.3129
 20
20.2911
 30
0.0
 40
0
 41
0
  0
VERTEX
  8
0
 10
19.3119
 20
20.2911
 30
0.0
 40
0
 41
0
  0
VERTEX
  8
0
 10
19.309
 20
20.294
 30
0.0
 40
0
 41
0
  0
VERTEX
  8
0
 10
19.309
 20
20.295
 30
0.0
 40
0
 41
0
  0
VERTEX
  8
0
 10
19.309
 20
20.296
 30
0.0
 40
0
 41
0
  0
VERTEX
  8
0
 10
19.3119
 20
20.2989
 30
0.0
 40
0
 41
0
  0
VERTEX
  8
0
 10
19.3129
 20
20.2989
 30
0.0
 40
0
 41
0
  0
VERTEX
  8
0
 10
19.3139
 20
20.2989
 30
0.0
 40
0
 41
0
  0
VERTEX
  8
0
 10
19.3168
 20
20.296
 30
0.0
 40
0
 41
0
  0
VERTEX
  8
0
 10
19.3168
 20
20.295
 30
0.0
 40
0
 41
0
  0
SEQEND
 8
0
  0
TEXT
  8
0
 62
     9
 10
19.3917
 20
20.2162
 30
0
 40
0.11811
  1
ii:l
 50
0
  7
DejaVuSans-Bold
  0
TEXT
  8
0
 62
     9
 10
19.5607
 20
20.2162
 30
0
 40
0.11811
  1
:P3
 50
0
  7
DejaVuSans-Bold
  0
POLYLINE
  8
0
 62
     93
 66
     1
 10
0
 20
0
 30
0.0
 70
     1
 40
1.41732
 41
1.41732
  0
VERTEX
  8
0
 10
4.40028
 20
0.988282
 30
0.0
 40
0.019685
 41
0.019685
  0
VERTEX
  8
0
 10
4.40028
 20
0.987304
 30
0.0
 40
0.019685
 41
0.019685
  0
VERTEX
  8
0
 10
4.39729
 20
0.984375
 30
0.0
 40
0.019685
 41
0.019685
  0
VERTEX
  8
0
 10
4.39632
 20
0.984375
 30
0.0
 40
0.019685
 41
0.019685
  0
VERTEX
  8
0
 10
4.39535
 20
0.984375
 30
0.0
 40
0.019685
 41
0.019685
  0
VERTEX
  8
0
 10
4.39242
 20
0.987304
 30
0.0
 40
0.019685
 41
0.019685
  0
VERTEX
  8
0
 10
4.39242
 20
0.988282
 30
0.0
 40
0.019685
 41
0.019685
  0
VERTEX
  8
0
 10
4.39242
 20
0.989312
 30
0.0
 40
0.019685
 41
0.019685
  0
VERTEX
  8
0
 10
4.39535
 20
0.992242
 30
0.0
 40
0.019685
 41
0.019685
  0
VERTEX
  8
0
 10
4.39632
 20
0.992242
 30
0.0
 40
0.019685
 41
0.019685
  0
VERTEX
  8
0
 10
4.39729
 20
0.992242
 30
0.0
 40
0.019685
 41
0.019685
  0
VERTEX
  8
0
 10
4.40028
 20
0.989312
 30
0.0
 40
0.019685
 41
0.019685
  0
VERTEX
  8
0
 10
4.40028
 20
0.988282
 30
0.0
 40
0.019685
 41
0.019685
  0
SEQEND
 8
0
  0
TEXT
  8
0
 62
     9
 10
4.47508
 20
0.909558
 30
0
 40
0.11811
  1
ii:l
 50
0
  7
DejaVuSans-Bold
  0
TEXT
  8
0
 62
     9
 10
4.64406
 20
0.909558
 30
0
 40
0.11811
  1
:V
 50
0
  7
DejaVuSans-Bold
  0
POLYLINE
  8
0
 62
     51
 66
     1
 10
0
 20
0
 30
0.0
 70
     1
 40
0
 41
0
  0
VERTEX
  8
0
 10
10.9148
 20
17.4204
 30
0.0
 40
0
 41
0
  0
VERTEX
  8
0
 10
10.9148
 20
17.4194
 30
0.0
 40
0
 41
0
  0
VERTEX
  8
0
 10
10.9118
 20
17.4164
 30
0.0
 40
0
 41
0
  0
VERTEX
  8
0
 10
10.9109
 20
17.4164
 30
0.0
 40
0
 41
0
  0
VERTEX
  8
0
 10
10.9099
 20
17.4164
 30
0.0
 40
0
 41
0
  0
VERTEX
  8
0
 10
10.907
 20
17.4194
 30
0.0
 40
0
 41
0
  0
VERTEX
  8
0
 10
10.907
 20
17.4204
 30
0.0
 40
0
 41
0
  0
VERTEX
  8
0
 10
10.907
 20
17.4214
 30
0.0
 40
0
 41
0
  0
VERTEX
  8
0
 10
10.9099
 20
17.4243
 30
0.0
 40
0
 41
0
  0
VERTEX
  8
0
 10
10.9109
 20
17.4243
 30
0.0
 40
0
 41
0
  0
VERTEX
  8
0
 10
10.9118
 20
17.4243
 30
0.0
 40
0
 41
0
  0
VERTEX
  8
0
 10
10.9148
 20
17.4214
 30
0.0
 40
0
 41
0
  0
VERTEX
  8
0
 10
10.9148
 20
17.4204
 30
0.0
 40
0
 41
0
  0
SEQEND
 8
0
  0
TEXT
  8
0
 62
     9
 10
10.9896
 20
17.3417
 30
0
 40
0.11811
  1
ii:l
 50
0
  7
DejaVuSans-Bold
  0
TEXT
  8
0
 62
     9
 10
11.1586
 20
17.3417
 30
0
 40
0.11811
  1
:h7a
 50
0
  7
DejaVuSans-Bold
  0
TEXT
  8
0
 62
     9
 10
10.77
 20
18.0181
 30
0
 40
0.11811
  1
Old_h7a
 50
0
  7
DejaVuSans-Bold
  0
ENDSEC
  0
EOF
