  0
SECTION
  2
HEADER
  9
$ACADVER
  1
AC1006
  9
$CLAYER
  8
1
  0
ENDSEC
  0
SECTION
  2
TABLES
  0
TABLE
  2
LTYPE
 70
1
  0
LTYPE
  2
CONTINUOUS
 70
0
  3
SOLIDLINE
 72
65
 73
0
 40
0.000000
  0
ENDTAB
  0
TABLE
  2
LAYER
 70
14
  0
LAYER
  2
1
 70
0
 62
7
  6
CONTINUOUS
  0
LAYER
  2
2
 70
0
 62
1
  6
CONTINUOUS
  0
LAYER
  2
3
 70
0
 62
2
  6
CONTINUOUS
  0
LAYER
  2
4
 70
0
 62
3
  6
CONTINUOUS
  0
LAYER
  2
5
 70
0
 62
5
  6
CONTINUOUS
  0
LAYER
  2
6
 70
0
 62
5
  6
CONTINUOUS
  0
LAYER
  2
7
 70
0
 62
5
  6
CONTINUOUS
  0
LAYER
  2
8
 70
0
 62
4
  6
CONTINUOUS
  0
LAYER
  2
9
 70
0
 62
5
  6
CONTINUOUS
  0
LAYER
  2
10
 70
0
 62
5
  6
CONTINUOUS
  0
LAYER
  2
11
 70
0
 62
4
  6
CONTINUOUS
  0
LAYER
  2
12
 70
0
 62
6
  6
CONTINUOUS
  0
LAYER
  2
13
 70
0
 62
4
  6
CONTINUOUS
  0
LAYER
  2
14
 70
0
 62
7
  6
CONTINUOUS
  0
ENDTAB
  0
TABLE
  2
STYLE
 70
1
  0
STYLE
  2
0
 70
0
 40
0.000000
 41
1.000000
 50
0.000000
 71
0
 42
1.000000
  3

  4

  0
ENDTAB
  0
ENDSEC
  0
SECTION
  2
BLOCKS
  0
ENDSEC
  0
SECTION
  2
ENTITIES
  0
LINE
  8
0
 10
104.006248
 20
227.188889
 11
317.259369
 21
227.188889
  0
LINE
  8
0
 10
317.259369
 20
227.188889
 11
317.259369
 21
90.338890
  0
LINE
  8
0
 10
317.259369
 20
90.562485
 11
104.006248
 21
90.562485
  0
LINE
  8
0
 10
104.006248
 20
227.188889
 11
104.006248
 21
90.338852
  0
LINE
  8
0
 10
120.332809
 20
195.883331
 11
183.025131
 21
195.883331
  0
LINE
  8
0
 10
183.025131
 20
195.883331
 11
237.440628
 21
180.901382
  0
LINE
  8
0
 10
237.440598
 20
180.901398
 11
291.056244
 21
183.361115
  0
LINE
  8
0
 10
104.006248
 20
227.188889
 11
317.259369
 21
227.188889
  0
LINE
  8
0
 10
317.259369
 20
227.188889
 11
317.259369
 21
90.338890
  0
LINE
  8
0
 10
104.006248
 20
227.188889
 11
104.006248
 21
90.338852
  0
LINE
  8
0
 10
120.332809
 20
195.883331
 11
183.025131
 21
195.883331
  0
LINE
  8
0
 10
237.440598
 20
180.901398
 11
291.056244
 21
183.361115
  0
LINE
  8
0
 10
317.259369
 20
90.562485
 11
104.006248
 21
90.562485
  0
LINE
  8
0
 10
104.006248
 20
227.188889
 11
317.259369
 21
227.188889
  0
LINE
  8
0
 10
317.259369
 20
227.188889
 11
317.259369
 21
90.338890
  0
LINE
  8
0
 10
317.259369
 20
90.562485
 11
104.006248
 21
90.562485
  0
LINE
  8
0
 10
104.006248
 20
227.188889
 11
104.006248
 21
90.338852
  0
LINE
  8
0
 10
120.332809
 20
195.883331
 11
183.025131
 21
195.883331
  0
LINE
  8
0
 10
237.440598
 20
180.901398
 11
291.056244
 21
183.361115
  0
LINE
  8
0
 10
183.025131
 20
195.883331
 11
237.440628
 21
180.901382
  0
POLYLINE
  8
0
 66
1
 70
    0
  0
VERTEX
  8
0
 10
182.212448
 20
195.883331
  0
VERTEX
  8
0
 10
184.486252
 20
195.115326
  0
VERTEX
  8
0
 10
186.518143
 20
194.290222
  0
VERTEX
  8
0
 10
188.446106
 20
193.217270
  0
VERTEX
  8
0
 10
190.265350
 20
191.917313
  0
VERTEX
  8
0
 10
191.971161
 20
190.411285
  0
VERTEX
  8
0
 10
193.558777
 20
188.720139
  0
VERTEX
  8
0
 10
195.023468
 20
186.864838
  0
VERTEX
  8
0
 10
196.360489
 20
184.866287
  0
VERTEX
  8
0
 10
197.565109
 20
182.745438
  0
VERTEX
  8
0
 10
198.632584
 20
180.523224
  0
VERTEX
  8
0
 10
200.337173
 20
175.858551
  0
VERTEX
  8
0
 10
201.436356
 20
171.039764
  0
VERTEX
  8
0
 10
201.747055
 20
168.624954
  0
VERTEX
  8
0
 10
201.892181
 20
166.234421
  0
VERTEX
  8
0
 10
201.867020
 20
163.889145
  0
VERTEX
  8
0
 10
201.666809
 20
161.610062
  0
VERTEX
  8
0
 10
201.286850
 20
159.418045
  0
VERTEX
  8
0
 10
200.756256
 20
156.975006
  0
SEQEND
  0
LINE
  8
0
 10
237.311432
 20
180.936951
 11
200.756241
 21
156.974930
  0
ENDSEC
  0
EOF
