  0
SECTION
  2
HEADER
  9
$ACADVER
  1
AC1006
  9
$CLAYER
  8
1
  0
ENDSEC
  0
SECTION
  2
TABLES
  0
TABLE
  2
LTYPE
 70
1
  0
LTYPE
  2
CONTINUOUS
 70
0
  3
SOLIDLINE
 72
65
 73
0
 40
0.000000
  0
ENDTAB
  0
TABLE
  2
LAYER
 70
14
  0
LAYER
  2
1
 70
0
 62
7
  6
CONTINUOUS
  0
LAYER
  2
2
 70
0
 62
1
  6
CONTINUOUS
  0
LAYER
  2
3
 70
0
 62
2
  6
CONTINUOUS
  0
LAYER
  2
4
 70
0
 62
3
  6
CONTINUOUS
  0
LAYER
  2
5
 70
0
 62
5
  6
CONTINUOUS
  0
LAYER
  2
6
 70
0
 62
5
  6
CONTINUOUS
  0
LAYER
  2
7
 70
0
 62
5
  6
CONTINUOUS
  0
LAYER
  2
8
 70
0
 62
4
  6
CONTINUOUS
  0
LAYER
  2
9
 70
0
 62
5
  6
CONTINUOUS
  0
LAYER
  2
10
 70
0
 62
5
  6
CONTINUOUS
  0
LAYER
  2
11
 70
0
 62
4
  6
CONTINUOUS
  0
LAYER
  2
12
 70
0
 62
6
  6
CONTINUOUS
  0
LAYER
  2
13
 70
0
 62
4
  6
CONTINUOUS
  0
LAYER
  2
14
 70
0
 62
7
  6
CONTINUOUS
  0
ENDTAB
  0
TABLE
  2
STYLE
 70
1
  0
STYLE
  2
0
 70
0
 40
0.000000
 41
1.000000
 50
0.000000
 71
0
 42
1.000000
  3

  4

  0
ENDTAB
  0
ENDSEC
  0
SECTION
  2
BLOCKS
  0
ENDSEC
  0
SECTION
  2
ENTITIES
  0
POINT
  8
0
 10
650.000000
 20
0.000000
  0
POINT
  8
0
 10
695.000000
 20
-603.000000
  0
POINT
  8
0
 10
84.443115
 20
-119.663574
  0
POINT
  8
0
 10
100.442139
 20
-118.397949
  0
POINT
  8
0
 10
146.960068
 20
-113.705566
  0
POINT
  8
0
 10
100.442139
 20
-118.397949
  0
POINT
  8
0
 10
204.347473
 20
-105.627930
  0
POINT
  8
0
 10
204.347473
 20
-105.627930
  0
POINT
  8
0
 10
0.000000
 20
0.000000
  0
POINT
  8
0
 10
437.010590
 20
-117.284668
  0
POINT
  8
0
 10
0.000000
 20
0.000000
  0
POINT
  8
0
 10
362.154785
 20
-108.241699
  0
POINT
  8
0
 10
0.000000
 20
0.000000
  0
POINT
  8
0
 10
336.431305
 20
-104.059258
  0
POINT
  8
0
 10
213.567657
 20
-104.059158
  0
POLYLINE
  8
0
 66
1
 70
    0
  0
VERTEX
  8
0
 10
84.443039
 20
-119.662552
  0
VERTEX
  8
0
 10
80.650925
 20
-119.954422
  0
VERTEX
  8
0
 10
63.946182
 20
-121.038177
  0
VERTEX
  8
0
 10
47.642014
 20
-121.890869
  0
VERTEX
  8
0
 10
31.877594
 20
-122.505211
  0
VERTEX
  8
0
 10
16.787354
 20
-122.875969
  0
VERTEX
  8
0
 10
2.500000
 20
-122.999977
  0
VERTEX
  8
0
 10
0.000000
 20
-123.000000
  0
SEQEND
  0
POLYLINE
  8
0
 66
1
 70
    0
  0
VERTEX
  8
0
 10
146.960098
 20
-113.705833
  0
VERTEX
  8
0
 10
131.733459
 20
-115.418571
  0
VERTEX
  8
0
 10
114.689697
 20
-117.132591
  0
VERTEX
  8
0
 10
100.442116
 20
-118.397690
  0
SEQEND
  0
POLYLINE
  8
0
 66
1
 70
    0
  0
VERTEX
  8
0
 10
204.347595
 20
-105.628677
  0
VERTEX
  8
0
 10
196.706650
 20
-106.900131
  0
VERTEX
  8
0
 10
181.225174
 20
-109.243980
  0
VERTEX
  8
0
 10
165.143677
 20
-111.457375
  0
VERTEX
  8
0
 10
148.599411
 20
-113.521439
  0
VERTEX
  8
0
 10
131.733459
 20
-115.418571
  0
VERTEX
  8
0
 10
114.689697
 20
-117.132591
  0
VERTEX
  8
0
 10
100.442116
 20
-118.397690
  0
SEQEND
  0
POLYLINE
  8
0
 66
1
 70
    0
  0
VERTEX
  8
0
 10
263.146484
 20
-93.306274
  0
VERTEX
  8
0
 10
260.731628
 20
-93.953339
  0
VERTEX
  8
0
 10
250.090820
 20
-96.633316
  0
VERTEX
  8
0
 10
238.262451
 20
-99.290443
  0
VERTEX
  8
0
 10
225.347458
 20
-101.902054
  0
VERTEX
  8
0
 10
211.456039
 20
-104.445839
  0
VERTEX
  8
0
 10
204.347595
 20
-105.628677
  0
SEQEND
  0
POLYLINE
  8
0
 66
1
 70
    0
  0
VERTEX
  8
0
 10
438.333313
 20
-117.401939
  0
VERTEX
  8
0
 10
452.391113
 20
-118.650154
  0
VERTEX
  8
0
 10
469.353424
 20
-119.955620
  0
VERTEX
  8
0
 10
486.057587
 20
-121.039230
  0
VERTEX
  8
0
 10
502.361023
 20
-121.891724
  0
VERTEX
  8
0
 10
518.124512
 20
-122.505836
  0
VERTEX
  8
0
 10
533.213806
 20
-122.876328
  0
VERTEX
  8
0
 10
547.500000
 20
-123.000038
  0
VERTEX
  8
0
 10
550.000000
 20
-123.000000
  0
SEQEND
  0
POLYLINE
  8
0
 66
1
 70
    0
  0
VERTEX
  8
0
 10
362.154694
 20
-108.242233
  0
VERTEX
  8
0
 10
368.779266
 20
-109.245193
  0
VERTEX
  8
0
 10
384.861145
 20
-111.458694
  0
VERTEX
  8
0
 10
401.405640
 20
-113.522820
  0
VERTEX
  8
0
 10
418.271667
 20
-115.419975
  0
VERTEX
  8
0
 10
435.315338
 20
-117.133965
  0
VERTEX
  8
0
 10
438.333313
 20
-117.401939
  0
SEQEND
  0
POLYLINE
  8
0
 66
1
 70
    0
  0
VERTEX
  8
0
 10
286.852539
 20
-93.306030
  0
VERTEX
  8
0
 10
289.267395
 20
-93.953094
  0
VERTEX
  8
0
 10
299.909454
 20
-96.633400
  0
VERTEX
  8
0
 10
311.738953
 20
-99.290840
  0
VERTEX
  8
0
 10
324.654877
 20
-101.902702
  0
VERTEX
  8
0
 10
338.547150
 20
-104.446724
  0
VERTEX
  8
0
 10
353.297241
 20
-106.901207
  0
VERTEX
  8
0
 10
362.154694
 20
-108.242233
  0
SEQEND
  0
POLYLINE
  8
0
 66
1
 70
    0
  0
VERTEX
  8
0
 10
286.852539
 20
-93.306030
  0
VERTEX
  8
0
 10
289.267395
 20
-93.953094
  0
VERTEX
  8
0
 10
299.909454
 20
-96.633400
  0
VERTEX
  8
0
 10
311.738953
 20
-99.290840
  0
VERTEX
  8
0
 10
324.654877
 20
-101.902702
  0
VERTEX
  8
0
 10
338.547150
 20
-104.446724
  0
VERTEX
  8
0
 10
353.297241
 20
-106.901207
  0
VERTEX
  8
0
 10
368.779266
 20
-109.245193
  0
VERTEX
  8
0
 10
384.861145
 20
-111.458694
  0
VERTEX
  8
0
 10
401.405640
 20
-113.522820
  0
VERTEX
  8
0
 10
418.271667
 20
-115.419975
  0
VERTEX
  8
0
 10
435.315338
 20
-117.133965
  0
VERTEX
  8
0
 10
452.391113
 20
-118.650154
  0
VERTEX
  8
0
 10
469.353424
 20
-119.955620
  0
VERTEX
  8
0
 10
486.057587
 20
-121.039230
  0
VERTEX
  8
0
 10
502.361023
 20
-121.891724
  0
VERTEX
  8
0
 10
518.124512
 20
-122.505836
  0
VERTEX
  8
0
 10
533.213806
 20
-122.876328
  0
VERTEX
  8
0
 10
547.500000
 20
-123.000038
  0
VERTEX
  8
0
 10
550.000000
 20
-123.000000
  0
SEQEND
  0
POLYLINE
  8
0
 66
1
 70
    0
  0
VERTEX
  8
0
 10
263.146484
 20
-93.306274
  0
VERTEX
  8
0
 10
260.731628
 20
-93.953339
  0
VERTEX
  8
0
 10
250.090820
 20
-96.633316
  0
VERTEX
  8
0
 10
238.262451
 20
-99.290443
  0
VERTEX
  8
0
 10
225.347458
 20
-101.902054
  0
VERTEX
  8
0
 10
211.456039
 20
-104.445839
  0
VERTEX
  8
0
 10
196.706650
 20
-106.900131
  0
VERTEX
  8
0
 10
181.225174
 20
-109.243980
  0
VERTEX
  8
0
 10
165.143677
 20
-111.457375
  0
VERTEX
  8
0
 10
148.599411
 20
-113.521439
  0
VERTEX
  8
0
 10
131.733459
 20
-115.418571
  0
VERTEX
  8
0
 10
114.689697
 20
-117.132591
  0
VERTEX
  8
0
 10
97.613647
 20
-118.648842
  0
VERTEX
  8
0
 10
80.650925
 20
-119.954422
  0
VERTEX
  8
0
 10
63.946182
 20
-121.038177
  0
VERTEX
  8
0
 10
47.642014
 20
-121.890869
  0
VERTEX
  8
0
 10
31.877594
 20
-122.505211
  0
VERTEX
  8
0
 10
16.787354
 20
-122.875969
  0
VERTEX
  8
0
 10
2.500000
 20
-122.999977
  0
VERTEX
  8
0
 10
0.000000
 20
-123.000000
  0
SEQEND
  0
LINE
  8
0
 10
550.000000
 20
-603.000000
 11
499.251617
 21
-603.000000
  0
POINT
  8
0
 10
0.000000
 20
0.000000
  0
POINT
  8
0
 10
0.000000
 20
-23.000000
  0
POINT
  8
0
 10
0.000000
 20
-603.000000
  0
POINT
  8
0
 10
0.000000
 20
-200.000000
  0
POINT
  8
0
 10
550.000000
 20
0.000000
  0
POINT
  8
0
 10
550.000000
 20
-200.000000
  0
POINT
  8
0
 10
550.000000
 20
-603.000000
  0
POINT
  8
0
 10
550.000000
 20
-23.000000
  0
POINT
  8
0
 10
0.000000
 20
-23.000000
  0
POINT
  8
0
 10
275.000000
 20
0.000000
  0
POINT
  8
0
 10
325.000000
 20
0.000000
  0
POINT
  8
0
 10
0.000000
 20
0.000000
  0
POINT
  8
0
 10
0.000000
 20
0.000000
  0
POINT
  8
0
 10
225.000000
 20
0.000000
  0
POINT
  8
0
 10
275.000000
 20
-603.000000
  0
POINT
  8
0
 10
275.000000
 20
-200.000000
  0
POINT
  8
0
 10
0.000000
 20
0.000000
  0
POINT
  8
0
 10
0.000000
 20
0.000000
  0
POINT
  8
0
 10
68.333328
 20
0.000000
  0
POINT
  8
0
 10
113.333328
 20
0.000000
  0
POINT
  8
0
 10
90.833328
 20
0.000000
  0
POINT
  8
0
 10
69.812004
 20
-17.296574
  0
POINT
  8
0
 10
114.892326
 20
-17.296574
  0
POINT
  8
0
 10
92.352165
 20
-19.224096
  0
POINT
  8
0
 10
92.352165
 20
-603.000000
  0
POINT
  8
0
 10
92.352051
 20
-200.000000
  0
POINT
  8
0
 10
92.352051
 20
-175.000000
  0
POINT
  8
0
 10
438.333344
 20
-17.587402
  0
POINT
  8
0
 10
425.892212
 20
-16.377367
  0
POINT
  8
0
 10
438.333344
 20
-107.587402
  0
POINT
  8
0
 10
450.774475
 20
-16.377367
  0
POINT
  8
0
 10
262.792877
 20
-91.671272
  0
POINT
  8
0
 10
149.165665
 20
-147.223755
  0
POINT
  8
0
 10
205.979248
 20
-119.447525
  0
POINT
  8
0
 10
140.267685
 20
-12.002277
  0
POINT
  8
0
 10
160.083115
 20
-12.150326
  0
POINT
  8
0
 10
150.165298
 20
-13.428622
  0
POINT
  8
0
 10
192.710983
 20
-7.080302
  0
POINT
  8
0
 10
200.081116
 20
-5.692132
  0
POINT
  8
0
 10
185.220215
 20
-7.446899
  0
POINT
  8
0
 10
200.919525
 20
-76.597343
  0
POINT
  8
0
 10
149.165665
 20
-147.223755
  0
POINT
  8
0
 10
289.551697
 20
-81.950729
  0
POINT
  8
0
 10
363.942535
 20
-94.769066
  0
POINT
  8
0
 10
375.187469
 20
-10.029303
  0
POINT
  8
0
 10
387.619293
 20
-11.329065
  0
POINT
  8
0
 10
362.846893
 20
-8.041777
  0
POINT
  8
0
 10
363.348297
 20
-99.247208
  0
POINT
  8
0
 10
286.852539
 20
-93.306030
  0
POINT
  8
0
 10
550.000000
 20
-123.000000
  0
POINT
  8
0
 10
263.146484
 20
-93.306274
  0
POINT
  8
0
 10
0.000000
 20
-123.000000
  0
POINT
  8
0
 10
275.000000
 20
-300.000000
  0
POINT
  8
0
 10
290.000000
 20
-300.000000
  0
POINT
  8
0
 10
290.000000
 20
-603.000000
  0
POINT
  8
0
 10
260.000000
 20
-300.000000
  0
POINT
  8
0
 10
260.000000
 20
-603.000000
  0
POINT
  8
0
 10
0.000000
 20
0.000000
  0
POINT
  8
0
 10
0.000000
 20
0.000000
  0
LINE
  8
0
 10
0.000000
 20
0.000000
 11
0.000000
 21
-603.000000
  0
LINE
  8
0
 10
0.000000
 20
-603.000000
 11
550.000000
 21
-603.000000
  0
LINE
  8
0
 10
550.000000
 20
-603.000000
 11
550.000000
 21
0.000000
  0
LINE
  8
0
 10
550.000000
 20
0.000000
 11
0.000000
 21
0.000000
  0
LINE
  8
0
 10
0.000000
 20
-200.000000
 11
550.000000
 21
-200.000000
  0
LINE
  8
0
 10
275.000000
 20
-603.000000
 11
275.000000
 21
0.000000
  0
LINE
  8
0
 10
92.352165
 20
-19.224096
 11
92.352165
 21
-603.000000
  0
LINE
  8
0
 10
92.352051
 20
-175.000000
 11
114.892326
 21
-17.296574
  0
LINE
  8
0
 10
92.352280
 20
-175.000000
 11
69.812004
 21
-17.296574
  0
LINE
  8
0
 10
438.333344
 20
-17.587402
 11
438.333344
 21
-603.000000
  0
LINE
  8
0
 10
438.333344
 20
-107.587402
 11
425.892212
 21
-16.377367
  0
LINE
  8
0
 10
438.333344
 20
-107.587402
 11
450.774475
 21
-16.377367
  0
LINE
  8
0
 10
92.352051
 20
-175.000000
 11
262.792877
 21
-91.671272
  0
LINE
  8
0
 10
150.165298
 20
-13.428622
 11
149.165665
 21
-147.223755
  0
LINE
  8
0
 10
192.710983
 20
-7.080302
 11
205.979248
 21
-119.447525
  0
LINE
  8
0
 10
200.919525
 20
-76.597343
 11
200.081116
 21
-5.692132
  0
LINE
  8
0
 10
200.919525
 20
-76.597343
 11
185.220215
 21
-7.446899
  0
LINE
  8
0
 10
160.083115
 20
-12.150326
 11
149.165665
 21
-147.223755
  0
LINE
  8
0
 10
140.267685
 20
-12.002277
 11
149.165665
 21
-147.223755
  0
LINE
  8
0
 10
438.333344
 20
-107.587402
 11
289.551697
 21
-81.950729
  0
LINE
  8
0
 10
375.187469
 20
-10.029303
 11
363.942535
 21
-94.769066
  0
LINE
  8
0
 10
362.846893
 20
-8.041777
 11
363.348297
 21
-99.247208
  0
POLYLINE
  8
0
 66
1
 70
    0
  0
VERTEX
  8
0
 10
275.000000
 20
-200.000000
  0
VERTEX
  8
0
 10
275.000000
 20
-197.500000
  0
VERTEX
  8
0
 10
275.204956
 20
-182.803741
  0
VERTEX
  8
0
 10
275.818115
 20
-167.904953
  0
VERTEX
  8
0
 10
276.834198
 20
-152.930679
  0
VERTEX
  8
0
 10
278.244568
 20
-138.008774
  0
VERTEX
  8
0
 10
280.037170
 20
-123.266457
  0
VERTEX
  8
0
 10
282.196747
 20
-108.829514
  0
VERTEX
  8
0
 10
284.704834
 20
-94.821152
  0
VERTEX
  8
0
 10
287.540039
 20
-81.360901
  0
VERTEX
  8
0
 10
290.678223
 20
-68.563522
  0
VERTEX
  8
0
 10
294.092560
 20
-56.538216
  0
VERTEX
  8
0
 10
297.753906
 20
-45.387657
  0
VERTEX
  8
0
 10
301.631073
 20
-35.206924
  0
VERTEX
  8
0
 10
305.690948
 20
-26.082850
  0
VERTEX
  8
0
 10
309.898926
 20
-18.093300
  0
VERTEX
  8
0
 10
314.219086
 20
-11.306467
  0
VERTEX
  8
0
 10
318.614532
 20
-5.780239
  0
VERTEX
  8
0
 10
323.047821
 20
-1.561752
  0
VERTEX
  8
0
 10
325.000000
 20
0.000000
  0
SEQEND
  0
POLYLINE
  8
0
 66
1
 70
    0
  0
VERTEX
  8
0
 10
275.000000
 20
-200.000000
  0
VERTEX
  8
0
 10
275.000000
 20
-197.500000
  0
VERTEX
  8
0
 10
274.795044
 20
-182.803741
  0
VERTEX
  8
0
 10
274.181885
 20
-167.904953
  0
VERTEX
  8
0
 10
273.165802
 20
-152.930679
  0
VERTEX
  8
0
 10
271.755432
 20
-138.008774
  0
VERTEX
  8
0
 10
269.962830
 20
-123.266457
  0
VERTEX
  8
0
 10
267.803253
 20
-108.829514
  0
VERTEX
  8
0
 10
265.295166
 20
-94.821152
  0
VERTEX
  8
0
 10
262.459961
 20
-81.360901
  0
VERTEX
  8
0
 10
259.321777
 20
-68.563522
  0
VERTEX
  8
0
 10
255.907440
 20
-56.538216
  0
VERTEX
  8
0
 10
252.246094
 20
-45.387657
  0
VERTEX
  8
0
 10
248.368927
 20
-35.206924
  0
VERTEX
  8
0
 10
244.309052
 20
-26.082850
  0
VERTEX
  8
0
 10
240.101074
 20
-18.093300
  0
VERTEX
  8
0
 10
235.780914
 20
-11.306467
  0
VERTEX
  8
0
 10
231.385468
 20
-5.780239
  0
VERTEX
  8
0
 10
226.952179
 20
-1.561752
  0
VERTEX
  8
0
 10
225.000000
 20
0.000000
  0
SEQEND
  0
LINE
  8
0
 10
387.619293
 20
-11.329065
 11
363.348297
 21
-99.247208
  0
LINE
  8
0
 10
275.000000
 20
-200.000000
 11
260.000000
 21
-300.000000
  0
LINE
  8
0
 10
275.000000
 20
-200.000000
 11
290.000000
 21
-300.000000
  0
LINE
  8
0
 10
0.000000
 20
-300.000000
 11
550.000000
 21
-300.000000
  0
LINE
  8
0
 10
290.000000
 20
-603.000000
 11
290.000000
 21
-300.000000
  0
LINE
  8
0
 10
260.000000
 20
-603.000000
 11
260.000000
 21
-300.000000
  0
POLYLINE
  8
0
 66
1
 70
    0
  0
VERTEX
  8
0
 10
0.000000
 20
-23.000000
  0
VERTEX
  8
0
 10
1.306842
 20
-23.000000
  0
VERTEX
  8
0
 10
2.048479
 20
-22.976627
  0
VERTEX
  8
0
 10
3.302406
 20
-22.906710
  0
VERTEX
  8
0
 10
5.057920
 20
-22.790842
  0
VERTEX
  8
0
 10
7.300053
 20
-22.630014
  0
VERTEX
  8
0
 10
10.009687
 20
-22.425598
  0
VERTEX
  8
0
 10
13.163689
 20
-22.179338
  0
VERTEX
  8
0
 10
16.735146
 20
-21.893335
  0
VERTEX
  8
0
 10
20.693590
 20
-21.570028
  0
VERTEX
  8
0
 10
25.005268
 20
-21.212177
  0
VERTEX
  8
0
 10
29.633387
 20
-20.822832
  0
VERTEX
  8
0
 10
34.538429
 20
-20.405319
  0
VERTEX
  8
0
 10
39.678589
 20
-19.963198
  0
VERTEX
  8
0
 10
45.010002
 20
-19.500240
  0
VERTEX
  8
0
 10
50.487183
 20
-19.020393
  0
VERTEX
  8
0
 10
56.063370
 20
-18.527758
  0
VERTEX
  8
0
 10
61.691010
 20
-18.026533
  0
VERTEX
  8
0
 10
67.322098
 20
-17.520996
  0
VERTEX
  8
0
 10
69.812004
 20
-17.296574
  0
SEQEND
  0
POLYLINE
  8
0
 66
1
 70
    0
  0
VERTEX
  8
0
 10
114.892326
 20
-17.296574
  0
VERTEX
  8
0
 10
116.248268
 20
-17.155375
  0
VERTEX
  8
0
 10
117.598236
 20
-16.975456
  0
VERTEX
  8
0
 10
118.942863
 20
-16.760923
  0
VERTEX
  8
0
 10
120.282822
 20
-16.515923
  0
VERTEX
  8
0
 10
121.618759
 20
-16.244595
  0
VERTEX
  8
0
 10
122.951332
 20
-15.951082
  0
VERTEX
  8
0
 10
124.281204
 20
-15.639532
  0
VERTEX
  8
0
 10
125.609024
 20
-15.314089
  0
VERTEX
  8
0
 10
126.935455
 20
-14.978893
  0
VERTEX
  8
0
 10
128.261154
 20
-14.638092
  0
VERTEX
  8
0
 10
129.586746
 20
-14.295827
  0
VERTEX
  8
0
 10
130.912964
 20
-13.956244
  0
VERTEX
  8
0
 10
132.240387
 20
-13.623486
  0
VERTEX
  8
0
 10
133.569717
 20
-13.301695
  0
VERTEX
  8
0
 10
134.901581
 20
-12.995017
  0
VERTEX
  8
0
 10
136.236664
 20
-12.707596
  0
VERTEX
  8
0
 10
137.575607
 20
-12.443574
  0
VERTEX
  8
0
 10
138.919052
 20
-12.207098
  0
VERTEX
  8
0
 10
140.267685
 20
-12.002277
  0
SEQEND
  0
POLYLINE
  8
0
 66
1
 70
    0
  0
VERTEX
  8
0
 10
160.083115
 20
-12.150326
  0
VERTEX
  8
0
 10
160.678421
 20
-12.066921
  0
VERTEX
  8
0
 10
160.982193
 20
-12.019878
  0
VERTEX
  8
0
 10
161.451508
 20
-11.940718
  0
VERTEX
  8
0
 10
162.082336
 20
-11.830115
  0
VERTEX
  8
0
 10
162.869308
 20
-11.689013
  0
VERTEX
  8
0
 10
163.805725
 20
-11.518615
  0
VERTEX
  8
0
 10
164.883591
 20
-11.320374
  0
VERTEX
  8
0
 10
166.093704
 20
-11.095984
  0
VERTEX
  8
0
 10
167.425735
 20
-10.847359
  0
VERTEX
  8
0
 10
168.868317
 20
-10.576618
  0
VERTEX
  8
0
 10
170.409180
 20
-10.286073
  0
VERTEX
  8
0
 10
172.035126
 20
-9.978202
  0
VERTEX
  8
0
 10
173.732315
 20
-9.655632
  0
VERTEX
  8
0
 10
175.486252
 20
-9.321112
  0
VERTEX
  8
0
 10
177.281982
 20
-8.977499
  0
VERTEX
  8
0
 10
179.104187
 20
-8.627728
  0
VERTEX
  8
0
 10
180.937286
 20
-8.274777
  0
VERTEX
  8
0
 10
182.765701
 20
-7.921661
  0
VERTEX
  8
0
 10
185.220215
 20
-7.446899
  0
SEQEND
  0
POLYLINE
  8
0
 66
1
 70
    0
  0
VERTEX
  8
0
 10
200.081116
 20
-5.692132
  0
VERTEX
  8
0
 10
202.535629
 20
-5.217371
  0
VERTEX
  8
0
 10
203.568436
 20
-5.014627
  0
VERTEX
  8
0
 10
204.672302
 20
-4.792207
  0
VERTEX
  8
0
 10
205.837814
 20
-4.552011
  0
VERTEX
  8
0
 10
207.055054
 20
-4.296088
  0
VERTEX
  8
0
 10
208.313614
 20
-4.026619
  0
VERTEX
  8
0
 10
209.602768
 20
-3.745905
  0
VERTEX
  8
0
 10
210.911484
 20
-3.456341
  0
VERTEX
  8
0
 10
212.228638
 20
-3.160398
  0
VERTEX
  8
0
 10
213.542969
 20
-2.860599
  0
VERTEX
  8
0
 10
214.843292
 20
-2.559502
  0
VERTEX
  8
0
 10
216.118484
 20
-2.259678
  0
VERTEX
  8
0
 10
217.357666
 20
-1.963684
  0
VERTEX
  8
0
 10
218.550278
 20
-1.674043
  0
VERTEX
  8
0
 10
219.686142
 20
-1.393229
  0
VERTEX
  8
0
 10
220.755569
 20
-1.123638
  0
VERTEX
  8
0
 10
221.749435
 20
-0.867568
  0
VERTEX
  8
0
 10
222.659241
 20
-0.627205
  0
VERTEX
  8
0
 10
225.000000
 20
0.000000
  0
SEQEND
  0
POLYLINE
  8
0
 66
1
 70
    0
  0
VERTEX
  8
0
 10
550.000000
 20
-23.000000
  0
VERTEX
  8
0
 10
547.500000
 20
-23.000000
  0
VERTEX
  8
0
 10
544.324097
 20
-22.972826
  0
VERTEX
  8
0
 10
540.640259
 20
-22.891537
  0
VERTEX
  8
0
 10
536.479797
 20
-22.756828
  0
VERTEX
  8
0
 10
531.878296
 20
-22.569847
  0
VERTEX
  8
0
 10
526.874939
 20
-22.332188
  0
VERTEX
  8
0
 10
521.512573
 20
-22.045879
  0
VERTEX
  8
0
 10
515.836731
 20
-21.713366
  0
VERTEX
  8
0
 10
509.895996
 20
-21.337482
  0
VERTEX
  8
0
 10
503.740967
 20
-20.921436
  0
VERTEX
  8
0
 10
497.424164
 20
-20.468775
  0
VERTEX
  8
0
 10
490.999603
 20
-19.983364
  0
VERTEX
  8
0
 10
484.521912
 20
-19.469345
  0
VERTEX
  8
0
 10
478.046509
 20
-18.931097
  0
VERTEX
  8
0
 10
471.628448
 20
-18.373219
  0
VERTEX
  8
0
 10
465.322693
 20
-17.800468
  0
VERTEX
  8
0
 10
459.183014
 20
-17.217733
  0
VERTEX
  8
0
 10
453.261688
 20
-16.629984
  0
VERTEX
  8
0
 10
450.774475
 20
-16.377367
  0
SEQEND
  0
POLYLINE
  8
0
 66
1
 70
    0
  0
VERTEX
  8
0
 10
425.892212
 20
-16.377367
  0
VERTEX
  8
0
 10
423.404999
 20
-16.124750
  0
VERTEX
  8
0
 10
421.544525
 20
-15.931585
  0
VERTEX
  8
0
 10
419.582214
 20
-15.719710
  0
VERTEX
  8
0
 10
417.534821
 20
-15.490930
  0
VERTEX
  8
0
 10
415.419800
 20
-15.247198
  0
VERTEX
  8
0
 10
413.255188
 20
-14.990592
  0
VERTEX
  8
0
 10
411.059509
 20
-14.723302
  0
VERTEX
  8
0
 10
408.851379
 20
-14.447610
  0
VERTEX
  8
0
 10
406.649780
 20
-14.165865
  0
VERTEX
  8
0
 10
404.473389
 20
-13.880474
  0
VERTEX
  8
0
 10
402.340790
 20
-13.593869
  0
VERTEX
  8
0
 10
400.270203
 20
-13.308497
  0
VERTEX
  8
0
 10
398.279327
 20
-13.026793
  0
VERTEX
  8
0
 10
396.385101
 20
-12.751159
  0
VERTEX
  8
0
 10
394.603668
 20
-12.483948
  0
VERTEX
  8
0
 10
392.950256
 20
-12.227438
  0
VERTEX
  8
0
 10
391.438965
 20
-11.983820
  0
VERTEX
  8
0
 10
390.082703
 20
-11.755170
  0
VERTEX
  8
0
 10
387.619293
 20
-11.329065
  0
SEQEND
  0
POLYLINE
  8
0
 66
1
 70
    0
  0
VERTEX
  8
0
 10
362.846893
 20
-8.041777
  0
VERTEX
  8
0
 10
360.383484
 20
-7.615670
  0
VERTEX
  8
0
 10
358.514404
 20
-7.286972
  0
VERTEX
  8
0
 10
356.547607
 20
-6.930610
  0
VERTEX
  8
0
 10
354.499786
 20
-6.549623
  0
VERTEX
  8
0
 10
352.388458
 20
-6.147263
  0
VERTEX
  8
0
 10
350.231628
 20
-5.726960
  0
VERTEX
  8
0
 10
348.047729
 20
-5.292302
  0
VERTEX
  8
0
 10
345.855316
 20
-4.846997
  0
VERTEX
  8
0
 10
343.673187
 20
-4.394845
  0
VERTEX
  8
0
 10
341.519897
 20
-3.939703
  0
VERTEX
  8
0
 10
339.413818
 20
-3.485452
  0
VERTEX
  8
0
 10
337.372955
 20
-3.035970
  0
VERTEX
  8
0
 10
335.414703
 20
-2.595093
  0
VERTEX
  8
0
 10
333.555756
 20
-2.166578
  0
VERTEX
  8
0
 10
331.811951
 20
-1.754083
  0
VERTEX
  8
0
 10
330.198242
 20
-1.361131
  0
VERTEX
  8
0
 10
328.728363
 20
-0.991071
  0
VERTEX
  8
0
 10
327.414825
 20
-0.647060
  0
VERTEX
  8
0
 10
325.000000
 20
0.000000
  0
SEQEND
  0
ENDSEC
  0
EOF
