  0
SECTION
  2
HEADER
  9
$ACADVER
  1
AC1006
  9
$CLAYER
  8
1
  0
ENDSEC
  0
SECTION
  2
TABLES
  0
TABLE
  2
LTYPE
 70
1
  0
LTYPE
  2
CONTINUOUS
 70
0
  3
SOLIDLINE
 72
65
 73
0
 40
0.000000
  0
ENDTAB
  0
TABLE
  2
LAYER
 70
14
  0
LAYER
  2
1
 70
0
 62
7
  6
CONTINUOUS
  0
LAYER
  2
2
 70
0
 62
1
  6
CONTINUOUS
  0
LAYER
  2
3
 70
0
 62
2
  6
CONTINUOUS
  0
LAYER
  2
4
 70
0
 62
3
  6
CONTINUOUS
  0
LAYER
  2
5
 70
0
 62
5
  6
CONTINUOUS
  0
LAYER
  2
6
 70
0
 62
5
  6
CONTINUOUS
  0
LAYER
  2
7
 70
0
 62
5
  6
CONTINUOUS
  0
LAYER
  2
8
 70
0
 62
4
  6
CONTINUOUS
  0
LAYER
  2
9
 70
0
 62
5
  6
CONTINUOUS
  0
LAYER
  2
10
 70
0
 62
5
  6
CONTINUOUS
  0
LAYER
  2
11
 70
0
 62
4
  6
CONTINUOUS
  0
LAYER
  2
12
 70
0
 62
6
  6
CONTINUOUS
  0
LAYER
  2
13
 70
0
 62
4
  6
CONTINUOUS
  0
LAYER
  2
14
 70
0
 62
7
  6
CONTINUOUS
  0
ENDTAB
  0
TABLE
  2
STYLE
 70
1
  0
STYLE
  2
0
 70
0
 40
0.000000
 41
1.000000
 50
0.000000
 71
0
 42
1.000000
  3

  4

  0
ENDTAB
  0
ENDSEC
  0
SECTION
  2
BLOCKS
  0
ENDSEC
  0
SECTION
  2
ENTITIES
  0
POINT
  8
0
 10
735.000000
 20
-595.000000
  0
POINT
  8
0
 10
97.137695
 20
-112.762207
  0
POINT
  8
0
 10
97.220581
 20
-112.758789
  0
POINT
  8
0
 10
181.398224
 20
-107.125488
  0
POINT
  8
0
 10
181.398224
 20
-107.125488
  0
POINT
  8
0
 10
0.000000
 20
0.000000
  0
POINT
  8
0
 10
0.000000
 20
0.000000
  0
POINT
  8
0
 10
0.000000
 20
0.000000
  0
POINT
  8
0
 10
438.333344
 20
-112.062988
  0
POINT
  8
0
 10
0.000000
 20
0.000000
  0
POINT
  8
0
 10
0.000000
 20
0.000000
  0
POINT
  8
0
 10
0.000000
 20
0.000000
  0
POINT
  8
0
 10
281.322418
 20
-93.738037
  0
POINT
  8
0
 10
268.676605
 20
-93.738525
  0
POLYLINE
  8
0
 66
1
 70
    0
  0
VERTEX
  8
0
 10
97.137733
 20
-112.762985
  0
VERTEX
  8
0
 10
93.466576
 20
-112.939529
  0
VERTEX
  8
0
 10
74.943085
 20
-113.672913
  0
VERTEX
  8
0
 10
56.427521
 20
-114.249901
  0
VERTEX
  8
0
 10
38.077957
 20
-114.665527
  0
VERTEX
  8
0
 10
20.050858
 20
-114.916290
  0
VERTEX
  8
0
 10
2.500000
 20
-115.000023
  0
VERTEX
  8
0
 10
0.000000
 20
-115.000000
  0
SEQEND
  0
POLYLINE
  8
0
 66
1
 70
    0
  0
VERTEX
  8
0
 10
181.398163
 20
-107.124908
  0
VERTEX
  8
0
 10
180.744202
 20
-107.188759
  0
VERTEX
  8
0
 10
164.506134
 20
-108.585770
  0
VERTEX
  8
0
 10
147.511841
 20
-109.869766
  0
VERTEX
  8
0
 10
129.906296
 20
-111.029816
  0
VERTEX
  8
0
 10
111.839874
 20
-112.055977
  0
VERTEX
  8
0
 10
97.220596
 20
-112.759003
  0
SEQEND
  0
POLYLINE
  8
0
 66
1
 70
    0
  0
VERTEX
  8
0
 10
265.111328
 20
-94.693848
  0
VERTEX
  8
0
 10
262.696503
 20
-95.340904
  0
VERTEX
  8
0
 10
255.129501
 20
-97.154945
  0
VERTEX
  8
0
 10
246.033173
 20
-98.953506
  0
VERTEX
  8
0
 10
235.485138
 20
-100.721230
  0
VERTEX
  8
0
 10
223.575333
 20
-102.443031
  0
VERTEX
  8
0
 10
210.405334
 20
-104.104233
  0
VERTEX
  8
0
 10
196.087585
 20
-105.690651
  0
VERTEX
  8
0
 10
181.398163
 20
-107.124908
  0
SEQEND
  0
LINE
  8
0
 10
0.000000
 20
0.000000
 11
100.000000
 21
0.000000
  0
POLYLINE
  8
0
 66
1
 70
    0
  0
VERTEX
  8
0
 10
438.333313
 20
-112.063278
  0
VERTEX
  8
0
 10
456.529816
 20
-112.938431
  0
VERTEX
  8
0
 10
475.053833
 20
-113.671974
  0
VERTEX
  8
0
 10
493.570007
 20
-114.249138
  0
VERTEX
  8
0
 10
511.920319
 20
-114.664986
  0
VERTEX
  8
0
 10
529.948242
 20
-114.915985
  0
VERTEX
  8
0
 10
547.500000
 20
-114.999977
  0
VERTEX
  8
0
 10
550.000000
 20
-115.000000
  0
SEQEND
  0
POLYLINE
  8
0
 66
1
 70
    0
  0
VERTEX
  8
0
 10
284.887695
 20
-94.693359
  0
VERTEX
  8
0
 10
287.302521
 20
-95.340416
  0
VERTEX
  8
0
 10
294.868713
 20
-97.154243
  0
VERTEX
  8
0
 10
303.964294
 20
-98.952606
  0
VERTEX
  8
0
 10
314.511749
 20
-100.720161
  0
VERTEX
  8
0
 10
326.421021
 20
-102.441833
  0
VERTEX
  8
0
 10
339.590607
 20
-104.102936
  0
VERTEX
  8
0
 10
353.908081
 20
-105.689285
  0
VERTEX
  8
0
 10
369.251282
 20
-107.187355
  0
VERTEX
  8
0
 10
385.489319
 20
-108.584366
  0
VERTEX
  8
0
 10
402.483673
 20
-109.868393
  0
VERTEX
  8
0
 10
420.089355
 20
-111.028496
  0
VERTEX
  8
0
 10
438.156128
 20
-112.054756
  0
VERTEX
  8
0
 10
438.333313
 20
-112.063278
  0
SEQEND
  0
LINE
  8
0
 10
0.000000
 20
0.000000
 11
100.000000
 21
0.000000
  0
POLYLINE
  8
0
 66
1
 70
    0
  0
VERTEX
  8
0
 10
284.887695
 20
-94.693359
  0
VERTEX
  8
0
 10
287.302521
 20
-95.340416
  0
VERTEX
  8
0
 10
294.868713
 20
-97.154243
  0
VERTEX
  8
0
 10
303.964294
 20
-98.952606
  0
VERTEX
  8
0
 10
314.511749
 20
-100.720161
  0
VERTEX
  8
0
 10
326.421021
 20
-102.441833
  0
VERTEX
  8
0
 10
339.590607
 20
-104.102936
  0
VERTEX
  8
0
 10
353.908081
 20
-105.689285
  0
VERTEX
  8
0
 10
369.251282
 20
-107.187355
  0
VERTEX
  8
0
 10
385.489319
 20
-108.584366
  0
VERTEX
  8
0
 10
402.483673
 20
-109.868393
  0
VERTEX
  8
0
 10
420.089355
 20
-111.028496
  0
VERTEX
  8
0
 10
438.156128
 20
-112.054756
  0
VERTEX
  8
0
 10
456.529816
 20
-112.938431
  0
VERTEX
  8
0
 10
475.053833
 20
-113.671974
  0
VERTEX
  8
0
 10
493.570007
 20
-114.249138
  0
VERTEX
  8
0
 10
511.920319
 20
-114.664986
  0
VERTEX
  8
0
 10
529.948242
 20
-114.915985
  0
VERTEX
  8
0
 10
547.500000
 20
-114.999977
  0
VERTEX
  8
0
 10
550.000000
 20
-115.000000
  0
SEQEND
  0
POLYLINE
  8
0
 66
1
 70
    0
  0
VERTEX
  8
0
 10
265.111328
 20
-94.693848
  0
VERTEX
  8
0
 10
262.696503
 20
-95.340904
  0
VERTEX
  8
0
 10
255.129501
 20
-97.154945
  0
VERTEX
  8
0
 10
246.033173
 20
-98.953506
  0
VERTEX
  8
0
 10
235.485138
 20
-100.721230
  0
VERTEX
  8
0
 10
223.575333
 20
-102.443031
  0
VERTEX
  8
0
 10
210.405334
 20
-104.104233
  0
VERTEX
  8
0
 10
196.087585
 20
-105.690651
  0
VERTEX
  8
0
 10
180.744202
 20
-107.188759
  0
VERTEX
  8
0
 10
164.506134
 20
-108.585770
  0
VERTEX
  8
0
 10
147.511841
 20
-109.869766
  0
VERTEX
  8
0
 10
129.906296
 20
-111.029816
  0
VERTEX
  8
0
 10
111.839874
 20
-112.055977
  0
VERTEX
  8
0
 10
93.466576
 20
-112.939529
  0
VERTEX
  8
0
 10
74.943085
 20
-113.672913
  0
VERTEX
  8
0
 10
56.427521
 20
-114.249901
  0
VERTEX
  8
0
 10
38.077957
 20
-114.665527
  0
VERTEX
  8
0
 10
20.050858
 20
-114.916290
  0
VERTEX
  8
0
 10
2.500000
 20
-115.000023
  0
VERTEX
  8
0
 10
0.000000
 20
-115.000000
  0
SEQEND
  0
LINE
  8
0
 10
550.000000
 20
-595.000000
 11
553.691040
 21
-595.000000
  0
POINT
  8
0
 10
0.000000
 20
0.000000
  0
POINT
  8
0
 10
0.000000
 20
-15.000000
  0
POINT
  8
0
 10
0.000000
 20
-595.000000
  0
POINT
  8
0
 10
0.000000
 20
-200.000000
  0
POINT
  8
0
 10
550.000000
 20
0.000000
  0
POINT
  8
0
 10
550.000000
 20
-200.000000
  0
POINT
  8
0
 10
550.000000
 20
-595.000000
  0
POINT
  8
0
 10
550.000000
 20
-15.000000
  0
POINT
  8
0
 10
0.000000
 20
-15.000000
  0
POINT
  8
0
 10
275.000000
 20
0.000000
  0
POINT
  8
0
 10
317.857147
 20
0.000000
  0
POINT
  8
0
 10
0.000000
 20
0.000000
  0
POINT
  8
0
 10
0.000000
 20
0.000000
  0
POINT
  8
0
 10
232.142853
 20
0.000000
  0
POINT
  8
0
 10
275.000000
 20
-595.000000
  0
POINT
  8
0
 10
275.000000
 20
-200.000000
  0
POINT
  8
0
 10
0.000000
 20
0.000000
  0
POINT
  8
0
 10
0.000000
 20
0.000000
  0
POINT
  8
0
 10
81.666672
 20
0.000000
  0
POINT
  8
0
 10
111.666672
 20
0.000000
  0
POINT
  8
0
 10
96.666672
 20
0.000000
  0
POINT
  8
0
 10
82.112907
 20
-12.369000
  0
POINT
  8
0
 10
112.244789
 20
-12.369000
  0
POINT
  8
0
 10
97.178848
 20
-13.037648
  0
POINT
  8
0
 10
97.178848
 20
-595.000000
  0
POINT
  8
0
 10
97.178711
 20
-200.000000
  0
POINT
  8
0
 10
97.178848
 20
-113.037651
  0
POINT
  8
0
 10
438.333344
 20
-12.395508
  0
POINT
  8
0
 10
429.772156
 20
-11.977624
  0
POINT
  8
0
 10
438.333344
 20
-82.395508
  0
POINT
  8
0
 10
446.894531
 20
-11.977624
  0
POINT
  8
0
 10
264.934021
 20
-93.734329
  0
POINT
  8
0
 10
181.056427
 20
-103.385986
  0
POINT
  8
0
 10
0.000000
 20
0.000000
  0
POINT
  8
0
 10
163.839569
 20
-9.174641
  0
POINT
  8
0
 10
180.910706
 20
-7.614506
  0
POINT
  8
0
 10
172.381485
 20
-8.464011
  0
POINT
  8
0
 10
0.000000
 20
0.000000
  0
POINT
  8
0
 10
0.000000
 20
0.000000
  0
POINT
  8
0
 10
0.000000
 20
0.000000
  0
POINT
  8
0
 10
0.000000
 20
0.000000
  0
POINT
  8
0
 10
178.752258
 20
-78.173508
  0
POINT
  8
0
 10
0.000000
 20
0.000000
  0
POINT
  8
0
 10
0.000000
 20
0.000000
  0
POINT
  8
0
 10
0.000000
 20
0.000000
  0
POINT
  8
0
 10
0.000000
 20
0.000000
  0
POINT
  8
0
 10
0.000000
 20
0.000000
  0
POINT
  8
0
 10
0.000000
 20
0.000000
  0
POINT
  8
0
 10
284.887695
 20
-94.693359
  0
POINT
  8
0
 10
550.000000
 20
-115.000000
  0
POINT
  8
0
 10
265.111328
 20
-94.693848
  0
POINT
  8
0
 10
0.000000
 20
-115.000000
  0
POINT
  8
0
 10
275.000000
 20
-300.000000
  0
POINT
  8
0
 10
290.000000
 20
-300.000000
  0
POINT
  8
0
 10
290.000000
 20
-595.000000
  0
POINT
  8
0
 10
260.000000
 20
-300.000000
  0
POINT
  8
0
 10
260.000000
 20
-595.000000
  0
POINT
  8
0
 10
0.000000
 20
0.000000
  0
POINT
  8
0
 10
0.000000
 20
0.000000
  0
LINE
  8
0
 10
0.000000
 20
0.000000
 11
0.000000
 21
-595.000000
  0
LINE
  8
0
 10
0.000000
 20
-595.000000
 11
550.000000
 21
-595.000000
  0
LINE
  8
0
 10
550.000000
 20
-595.000000
 11
550.000000
 21
0.000000
  0
LINE
  8
0
 10
550.000000
 20
0.000000
 11
0.000000
 21
0.000000
  0
LINE
  8
0
 10
0.000000
 20
-200.000000
 11
550.000000
 21
-200.000000
  0
LINE
  8
0
 10
275.000000
 20
-595.000000
 11
275.000000
 21
0.000000
  0
LINE
  8
0
 10
97.178848
 20
-13.037648
 11
97.178848
 21
-595.000000
  0
LINE
  8
0
 10
97.178848
 20
-113.037651
 11
112.244789
 21
-12.369000
  0
LINE
  8
0
 10
97.178848
 20
-113.037651
 11
82.112907
 21
-12.369000
  0
LINE
  8
0
 10
438.333344
 20
-12.395508
 11
438.333344
 21
-595.000000
  0
LINE
  8
0
 10
438.333344
 20
-82.395508
 11
429.772156
 21
-11.977624
  0
LINE
  8
0
 10
438.333344
 20
-82.395508
 11
446.894531
 21
-11.977624
  0
LINE
  8
0
 10
97.178848
 20
-113.037651
 11
264.934021
 21
-93.734329
  0
LINE
  8
0
 10
172.381485
 20
-8.464011
 11
181.056427
 21
-103.385986
  0
LINE
  8
0
 10
0.000000
 20
0.000000
 11
100.000000
 21
0.000000
  0
LINE
  8
0
 10
0.000000
 20
0.000000
 11
100.000000
 21
0.000000
  0
LINE
  8
0
 10
0.000000
 20
0.000000
 11
100.000000
 21
0.000000
  0
LINE
  8
0
 10
180.910706
 20
-7.614506
 11
178.752228
 21
-78.173508
  0
LINE
  8
0
 10
163.839569
 20
-9.174641
 11
178.752258
 21
-78.173508
  0
LINE
  8
0
 10
0.000000
 20
0.000000
 11
100.000000
 21
0.000000
  0
LINE
  8
0
 10
0.000000
 20
0.000000
 11
100.000000
 21
0.000000
  0
LINE
  8
0
 10
0.000000
 20
0.000000
 11
100.000000
 21
0.000000
  0
POLYLINE
  8
0
 66
1
 70
    0
  0
VERTEX
  8
0
 10
275.000000
 20
-200.000000
  0
VERTEX
  8
0
 10
275.086975
 20
-197.501511
  0
VERTEX
  8
0
 10
276.107513
 20
-167.930435
  0
VERTEX
  8
0
 10
276.914917
 20
-148.755676
  0
VERTEX
  8
0
 10
277.912933
 20
-131.014282
  0
VERTEX
  8
0
 10
279.012909
 20
-116.249847
  0
VERTEX
  8
0
 10
281.322418
 20
-93.738037
  0
VERTEX
  8
0
 10
282.488892
 20
-85.530746
  0
VERTEX
  8
0
 10
284.051392
 20
-77.008194
  0
VERTEX
  8
0
 10
285.832581
 20
-69.115067
  0
VERTEX
  8
0
 10
288.042755
 20
-60.904598
  0
VERTEX
  8
0
 10
290.432617
 20
-53.293728
  0
VERTEX
  8
0
 10
293.288788
 20
-45.364727
  0
VERTEX
  8
0
 10
296.290161
 20
-38.006962
  0
VERTEX
  8
0
 10
299.799438
 20
-30.331917
  0
VERTEX
  8
0
 10
303.423798
 20
-23.201378
  0
VERTEX
  8
0
 10
307.602203
 20
-15.756248
  0
VERTEX
  8
0
 10
311.869598
 20
-8.830757
  0
VERTEX
  8
0
 10
316.423798
 20
-2.048286
  0
VERTEX
  8
0
 10
317.857147
 20
0.000000
  0
SEQEND
  0
POLYLINE
  8
0
 66
1
 70
    0
  0
VERTEX
  8
0
 10
275.000000
 20
-200.000000
  0
VERTEX
  8
0
 10
274.913025
 20
-197.501511
  0
VERTEX
  8
0
 10
273.892487
 20
-167.930435
  0
VERTEX
  8
0
 10
273.085083
 20
-148.755676
  0
VERTEX
  8
0
 10
272.087067
 20
-131.014282
  0
VERTEX
  8
0
 10
270.987091
 20
-116.249847
  0
VERTEX
  8
0
 10
268.677582
 20
-93.738037
  0
VERTEX
  8
0
 10
267.511108
 20
-85.530746
  0
VERTEX
  8
0
 10
265.948608
 20
-77.008194
  0
VERTEX
  8
0
 10
264.167419
 20
-69.115067
  0
VERTEX
  8
0
 10
261.957245
 20
-60.904598
  0
VERTEX
  8
0
 10
259.567383
 20
-53.293728
  0
VERTEX
  8
0
 10
256.711212
 20
-45.364727
  0
VERTEX
  8
0
 10
253.709839
 20
-38.006962
  0
VERTEX
  8
0
 10
250.200562
 20
-30.331917
  0
VERTEX
  8
0
 10
246.576202
 20
-23.201378
  0
VERTEX
  8
0
 10
242.397797
 20
-15.756248
  0
VERTEX
  8
0
 10
238.130402
 20
-8.830757
  0
VERTEX
  8
0
 10
233.576202
 20
-2.048286
  0
VERTEX
  8
0
 10
232.142853
 20
0.000000
  0
SEQEND
  0
LINE
  8
0
 10
0.000000
 20
0.000000
 11
100.000000
 21
0.000000
  0
LINE
  8
0
 10
275.000000
 20
-200.000000
 11
260.000000
 21
-300.000000
  0
LINE
  8
0
 10
275.000000
 20
-200.000000
 11
290.000000
 21
-300.000000
  0
LINE
  8
0
 10
0.000000
 20
-300.000000
 11
550.000000
 21
-300.000000
  0
LINE
  8
0
 10
290.000000
 20
-595.000000
 11
290.000000
 21
-300.000000
  0
LINE
  8
0
 10
260.000000
 20
-595.000000
 11
260.000000
 21
-300.000000
  0
POLYLINE
  8
0
 66
1
 70
    0
  0
VERTEX
  8
0
 10
0.000000
 20
-15.000000
  0
VERTEX
  8
0
 10
2.500000
 20
-15.000000
  0
VERTEX
  8
0
 10
4.881338
 20
-14.989274
  0
VERTEX
  8
0
 10
7.701301
 20
-14.957190
  0
VERTEX
  8
0
 10
10.935838
 20
-14.904019
  0
VERTEX
  8
0
 10
14.557348
 20
-14.830216
  0
VERTEX
  8
0
 10
18.534954
 20
-14.736411
  0
VERTEX
  8
0
 10
22.834702
 20
-14.623404
  0
VERTEX
  8
0
 10
27.419916
 20
-14.492159
  0
VERTEX
  8
0
 10
32.251457
 20
-14.343796
  0
VERTEX
  8
0
 10
37.288132
 20
-14.179580
  0
VERTEX
  8
0
 10
42.486973
 20
-14.000912
  0
VERTEX
  8
0
 10
47.803581
 20
-13.809318
  0
VERTEX
  8
0
 10
53.192635
 20
-13.606432
  0
VERTEX
  8
0
 10
58.608173
 20
-13.393982
  0
VERTEX
  8
0
 10
64.003967
 20
-13.173784
  0
VERTEX
  8
0
 10
69.333946
 20
-12.947718
  0
VERTEX
  8
0
 10
74.552673
 20
-12.717709
  0
VERTEX
  8
0
 10
79.615631
 20
-12.485721
  0
VERTEX
  8
0
 10
82.112907
 20
-12.369000
  0
SEQEND
  0
POLYLINE
  8
0
 66
1
 70
    0
  0
VERTEX
  8
0
 10
112.244789
 20
-12.369000
  0
VERTEX
  8
0
 10
114.742065
 20
-12.252280
  0
VERTEX
  8
0
 10
117.848694
 20
-12.104258
  0
VERTEX
  8
0
 10
121.044556
 20
-11.946444
  0
VERTEX
  8
0
 10
124.302391
 20
-11.780186
  0
VERTEX
  8
0
 10
127.594398
 20
-11.606902
  0
VERTEX
  8
0
 10
130.892517
 20
-11.428071
  0
VERTEX
  8
0
 10
134.168594
 20
-11.245218
  0
VERTEX
  8
0
 10
137.394669
 20
-11.059903
  0
VERTEX
  8
0
 10
140.543198
 20
-10.873709
  0
VERTEX
  8
0
 10
143.587387
 20
-10.688220
  0
VERTEX
  8
0
 10
146.501205
 20
-10.505022
  0
VERTEX
  8
0
 10
149.259827
 20
-10.325678
  0
VERTEX
  8
0
 10
151.839676
 20
-10.151718
  0
VERTEX
  8
0
 10
154.218796
 20
-9.984624
  0
VERTEX
  8
0
 10
156.376846
 20
-9.825824
  0
VERTEX
  8
0
 10
158.295425
 20
-9.676672
  0
VERTEX
  8
0
 10
159.958176
 20
-9.538441
  0
VERTEX
  8
0
 10
161.350891
 20
-9.412309
  0
VERTEX
  8
0
 10
163.839569
 20
-9.174641
  0
SEQEND
  0
POLYLINE
  8
0
 66
1
 70
    0
  0
VERTEX
  8
0
 10
180.910706
 20
-7.614506
  0
VERTEX
  8
0
 10
183.399384
 20
-7.376836
  0
VERTEX
  8
0
 10
186.497589
 20
-7.071122
  0
VERTEX
  8
0
 10
189.683426
 20
-6.737455
  0
VERTEX
  8
0
 10
192.929688
 20
-6.378683
  0
VERTEX
  8
0
 10
196.208694
 20
-5.997865
  0
VERTEX
  8
0
 10
199.492493
 20
-5.598250
  0
VERTEX
  8
0
 10
202.753036
 20
-5.183249
  0
VERTEX
  8
0
 10
205.962509
 20
-4.756402
  0
VERTEX
  8
0
 10
209.093552
 20
-4.321351
  0
VERTEX
  8
0
 10
212.119415
 20
-3.881806
  0
VERTEX
  8
0
 10
215.014328
 20
-3.441518
  0
VERTEX
  8
0
 10
217.753555
 20
-3.004244
  0
VERTEX
  8
0
 10
220.313751
 20
-2.573716
  0
VERTEX
  8
0
 10
222.673050
 20
-2.153602
  0
VERTEX
  8
0
 10
224.811356
 20
-1.747491
  0
VERTEX
  8
0
 10
226.710388
 20
-1.358849
  0
VERTEX
  8
0
 10
228.353943
 20
-0.990988
  0
VERTEX
  8
0
 10
229.728043
 20
-0.647048
  0
VERTEX
  8
0
 10
232.142853
 20
0.000000
  0
SEQEND
  0
LINE
  8
0
 10
0.000000
 20
0.000000
 11
100.000000
 21
0.000000
  0
POLYLINE
  8
0
 66
1
 70
    0
  0
VERTEX
  8
0
 10
550.000000
 20
-15.000000
  0
VERTEX
  8
0
 10
547.500000
 20
-15.000000
  0
VERTEX
  8
0
 10
543.096008
 20
-14.987688
  0
VERTEX
  8
0
 10
538.278992
 20
-14.950860
  0
VERTEX
  8
0
 10
533.090027
 20
-14.889829
  0
VERTEX
  8
0
 10
527.573303
 20
-14.805116
  0
VERTEX
  8
0
 10
521.775879
 20
-14.697442
  0
VERTEX
  8
0
 10
515.747314
 20
-14.567728
  0
VERTEX
  8
0
 10
509.539032
 20
-14.417080
  0
VERTEX
  8
0
 10
503.203949
 20
-14.246782
  0
VERTEX
  8
0
 10
496.796112
 20
-14.058290
  0
VERTEX
  8
0
 10
490.370178
 20
-13.853208
  0
VERTEX
  8
0
 10
483.981049
 20
-13.633288
  0
VERTEX
  8
0
 10
477.683167
 20
-13.400408
  0
VERTEX
  8
0
 10
471.530273
 20
-13.156549
  0
VERTEX
  8
0
 10
465.574890
 20
-12.903798
  0
VERTEX
  8
0
 10
459.867828
 20
-12.644310
  0
VERTEX
  8
0
 10
454.457733
 20
-12.380297
  0
VERTEX
  8
0
 10
449.390808
 20
-12.114012
  0
VERTEX
  8
0
 10
446.894531
 20
-11.977624
  0
SEQEND
  0
POLYLINE
  8
0
 66
1
 70
    0
  0
VERTEX
  8
0
 10
429.772156
 20
-11.977624
  0
VERTEX
  8
0
 10
427.275879
 20
-11.841235
  0
VERTEX
  8
0
 10
419.609039
 20
-11.399531
  0
VERTEX
  8
0
 10
411.793671
 20
-10.904283
  0
VERTEX
  8
0
 10
403.896545
 20
-10.359717
  0
VERTEX
  8
0
 10
395.985016
 20
-9.770481
  0
VERTEX
  8
0
 10
388.126526
 20
-9.141597
  0
VERTEX
  8
0
 10
380.388184
 20
-8.478435
  0
VERTEX
  8
0
 10
372.835968
 20
-7.786648
  0
VERTEX
  8
0
 10
365.534332
 20
-7.072145
  0
VERTEX
  8
0
 10
358.545563
 20
-6.341016
  0
VERTEX
  8
0
 10
351.929260
 20
-5.599500
  0
VERTEX
  8
0
 10
345.741913
 20
-4.853926
  0
VERTEX
  8
0
 10
340.036316
 20
-4.110654
  0
VERTEX
  8
0
 10
334.861115
 20
-3.376021
  0
VERTEX
  8
0
 10
330.260468
 20
-2.656298
  0
VERTEX
  8
0
 10
326.273651
 20
-1.957629
  0
VERTEX
  8
0
 10
322.934662
 20
-1.285972
  0
VERTEX
  8
0
 10
320.271973
 20
-0.647056
  0
VERTEX
  8
0
 10
317.857147
 20
0.000000
  0
SEQEND
  0
LINE
  8
0
 10
0.000000
 20
0.000000
 11
100.000000
 21
0.000000
  0
ENDSEC
  0
EOF
