  0
SECTION
  2
HEADER
  9
$ACADVER
  1
AC1009
  9
$EXTMIN
 10
0.0
 20
0.0
 30
0.0
  9
$EXTMAX
 10
1000.0
 20
1000.0
 30
0.0
  9
$FILLMODE
 70
 0
  9
$SPLFRAME
 70
 1
  0
ENDSEC
  0
SECTION
  2
TABLES
  0
TABLE
  2
LAYER
 70
1
  0
LAYER
  2
0
 70
     0
 62
     7
  6
CONTINUOUS
  0
ENDTAB
  0
ENDSEC
  0
SECTION
  2
ENTITIES
  0
LINE
  8
0
 62
     0
 10
1.43311
 20
3.22396
 30
0.0
 11
1.43311
 21
3.22396
 31
0.0
  0
LINE
  8
0
 62
     0
 10
1.43311
 20
3.22396
 30
0.0
 11
1.43588
 21
3.23156
 31
0.0
  0
LINE
  8
0
 62
     0
 10
1.43588
 20
3.23156
 30
0.0
 11
1.44422
 21
3.25353
 31
0.0
  0
LINE
  8
0
 62
     0
 10
1.44422
 20
3.25353
 30
0.0
 11
1.45811
 21
3.28857
 31
0.0
  0
LINE
  8
0
 62
     0
 10
1.45811
 20
3.28857
 30
0.0
 11
1.47749
 21
3.33561
 31
0.0
  0
LINE
  8
0
 62
     0
 10
1.47749
 20
3.33561
 30
0.0
 11
1.50217
 21
3.39339
 31
0.0
  0
LINE
  8
0
 62
     0
 10
1.50217
 20
3.39339
 30
0.0
 11
1.53222
 21
3.46067
 31
0.0
  0
LINE
  8
0
 62
     0
 10
1.53222
 20
3.46067
 30
0.0
 11
1.5676
 21
3.53629
 31
0.0
  0
LINE
  8
0
 62
     0
 10
1.5676
 20
3.53629
 30
0.0
 11
1.60818
 21
3.61903
 31
0.0
  0
LINE
  8
0
 62
     0
 10
1.60818
 20
3.61903
 30
0.0
 11
1.65392
 21
3.70768
 31
0.0
  0
LINE
  8
0
 62
     0
 10
1.65392
 20
3.70768
 30
0.0
 11
1.70475
 21
3.801
 31
0.0
  0
LINE
  8
0
 62
     0
 10
1.70475
 20
3.801
 30
0.0
 11
1.76064
 21
3.89785
 31
0.0
  0
LINE
  8
0
 62
     0
 10
1.76064
 20
3.89785
 30
0.0
 11
1.8215
 21
3.99696
 31
0.0
  0
LINE
  8
0
 62
     0
 10
1.8215
 20
3.99696
 30
0.0
 11
1.88732
 21
4.09717
 31
0.0
  0
LINE
  8
0
 62
     0
 10
1.88732
 20
4.09717
 30
0.0
 11
1.95806
 21
4.19721
 31
0.0
  0
LINE
  8
0
 62
     0
 10
1.95806
 20
4.19721
 30
0.0
 11
2.03358
 21
4.29596
 31
0.0
  0
LINE
  8
0
 62
     0
 10
2.03358
 20
4.29596
 30
0.0
 11
2.11388
 21
4.39214
 31
0.0
  0
LINE
  8
0
 62
     0
 10
2.11388
 20
4.39214
 30
0.0
 11
2.19889
 21
4.4846
 31
0.0
  0
LINE
  8
0
 62
     0
 10
2.19889
 20
4.4846
 30
0.0
 11
2.28851
 21
4.57206
 31
0.0
  0
LINE
  8
0
 62
     0
 10
2.28851
 20
4.57206
 30
0.0
 11
2.38276
 21
4.65338
 31
0.0
  0
LINE
  8
0
 62
     0
 10
2.38276
 20
4.65338
 30
0.0
 11
2.48156
 21
4.72732
 31
0.0
  0
LINE
  8
0
 62
     0
 10
2.48156
 20
4.72732
 30
0.0
 11
2.58485
 21
4.79269
 31
0.0
  0
LINE
  8
0
 62
     0
 10
2.58485
 20
4.79269
 30
0.0
 11
2.69249
 21
4.84831
 31
0.0
  0
LINE
  8
0
 62
     0
 10
2.69249
 20
4.84831
 30
0.0
 11
2.80458
 21
4.8929
 31
0.0
  0
LINE
  8
0
 62
     0
 10
2.80458
 20
4.8929
 30
0.0
 11
2.9209
 21
4.92529
 31
0.0
  0
LINE
  8
0
 62
     0
 10
2.9209
 20
4.92529
 30
0.0
 11
3.04156
 21
4.94428
 31
0.0
  0
LINE
  8
0
 62
     0
 10
3.04156
 20
4.94428
 30
0.0
 11
3.16635
 21
4.94868
 31
0.0
  0
LINE
  8
0
 62
     0
 10
3.16635
 20
4.94868
 30
0.0
 11
3.29531
 21
4.93722
 31
0.0
  0
LINE
  8
0
 62
     0
 10
3.29531
 20
4.93722
 30
0.0
 11
3.42828
 21
4.90875
 31
0.0
  0
LINE
  8
0
 62
     0
 10
3.42828
 20
4.90875
 30
0.0
 11
3.56532
 21
4.86203
 31
0.0
  0
LINE
  8
0
 62
     0
 10
3.56532
 20
4.86203
 30
0.0
 11
3.70632
 21
4.7959
 31
0.0
  0
LINE
  8
0
 62
     0
 10
3.70632
 20
4.7959
 30
0.0
 11
3.85124
 21
4.7091
 31
0.0
  0
LINE
  8
0
 62
     0
 10
3.85124
 20
4.7091
 30
0.0
 11
3.96403
 21
4.62912
 31
0.0
  0
LINE
  8
0
 62
     0
 10
3.96403
 20
4.62912
 30
0.0
 11
4.00006
 21
4.60042
 31
0.0
  0
LINE
  8
0
 62
     0
 10
4.00006
 20
4.60042
 30
0.0
 11
4.06896
 21
4.54557
 31
0.0
  0
LINE
  8
0
 62
     0
 10
4.06896
 20
4.54557
 30
0.0
 11
4.29346
 21
4.40315
 31
0.0
  0
LINE
  8
0
 62
     0
 10
4.29346
 20
4.40315
 30
0.0
 11
4.57081
 21
4.28515
 31
0.0
  0
LINE
  8
0
 62
     0
 10
4.57081
 20
4.28515
 30
0.0
 11
4.83165
 21
4.23714
 31
0.0
  0
LINE
  8
0
 62
     0
 10
4.83165
 20
4.23714
 30
0.0
 11
5.07563
 21
4.25006
 31
0.0
  0
LINE
  8
0
 62
     0
 10
5.07563
 20
4.25006
 30
0.0
 11
5.30236
 21
4.31467
 31
0.0
  0
LINE
  8
0
 62
     0
 10
5.30236
 20
4.31467
 30
0.0
 11
5.51144
 21
4.42182
 31
0.0
  0
LINE
  8
0
 62
     0
 10
5.51144
 20
4.42182
 30
0.0
 11
5.70247
 21
4.56228
 31
0.0
  0
LINE
  8
0
 62
     0
 10
5.70247
 20
4.56228
 30
0.0
 11
5.87506
 21
4.72694
 31
0.0
  0
LINE
  8
0
 62
     0
 10
5.87506
 20
4.72694
 30
0.0
 11
6.02875
 21
4.90663
 31
0.0
  0
LINE
  8
0
 62
     0
 10
6.02875
 20
4.90663
 30
0.0
 11
6.16331
 21
5.09212
 31
0.0
  0
LINE
  8
0
 62
     0
 10
6.16331
 20
5.09212
 30
0.0
 11
6.27821
 21
5.27425
 31
0.0
  0
LINE
  8
0
 62
     0
 10
6.27821
 20
5.27425
 30
0.0
 11
6.3731
 21
5.44379
 31
0.0
  0
LINE
  8
0
 62
     0
 10
6.3731
 20
5.44379
 30
0.0
 11
6.4476
 21
5.59169
 31
0.0
  0
LINE
  8
0
 62
     0
 10
6.4476
 20
5.59169
 30
0.0
 11
6.50125
 21
5.70865
 31
0.0
  0
LINE
  8
0
 62
     0
 10
6.50125
 20
5.70865
 30
0.0
 11
6.53375
 21
5.7856
 31
0.0
  0
LINE
  8
0
 62
     0
 10
6.53375
 20
5.7856
 30
0.0
 11
6.54471
 21
5.81326
 31
0.0
  0
LINE
  8
0
 62
     0
 10
6.54471
 20
5.81326
 30
0.0
 11
6.54471
 21
5.81326
 31
0.0
  0
LINE
  8
0
 62
     0
 10
6.54471
 20
5.81326
 30
0.0
 11
6.54471
 21
5.81326
 31
0.0
  0
LINE
  8
0
 62
     0
 10
6.54471
 20
5.81326
 30
0.0
 11
6.54226
 21
5.83057
 31
0.0
  0
LINE
  8
0
 62
     0
 10
6.54226
 20
5.83057
 30
0.0
 11
6.53336
 21
5.87913
 31
0.0
  0
LINE
  8
0
 62
     0
 10
6.53336
 20
5.87913
 30
0.0
 11
6.51551
 21
5.95426
 31
0.0
  0
LINE
  8
0
 62
     0
 10
6.51551
 20
5.95426
 30
0.0
 11
6.48633
 21
6.05117
 31
0.0
  0
LINE
  8
0
 62
     0
 10
6.48633
 20
6.05117
 30
0.0
 11
6.44319
 21
6.16504
 31
0.0
  0
LINE
  8
0
 62
     0
 10
6.44319
 20
6.16504
 30
0.0
 11
6.38379
 21
6.29118
 31
0.0
  0
LINE
  8
0
 62
     0
 10
6.38379
 20
6.29118
 30
0.0
 11
6.30561
 21
6.42475
 31
0.0
  0
LINE
  8
0
 62
     0
 10
6.30561
 20
6.42475
 30
0.0
 11
6.20611
 21
6.56104
 31
0.0
  0
LINE
  8
0
 62
     0
 10
6.20611
 20
6.56104
 30
0.0
 11
6.08296
 21
6.69521
 31
0.0
  0
LINE
  8
0
 62
     0
 10
6.08296
 20
6.69521
 30
0.0
 11
5.9336
 21
6.82254
 31
0.0
  0
LINE
  8
0
 62
     0
 10
5.9336
 20
6.82254
 30
0.0
 11
5.75558
 21
6.93821
 31
0.0
  0
LINE
  8
0
 62
     0
 10
5.75558
 20
6.93821
 30
0.0
 11
5.5465
 21
7.03743
 31
0.0
  0
LINE
  8
0
 62
     0
 10
5.5465
 20
7.03743
 30
0.0
 11
5.30382
 21
7.1155
 31
0.0
  0
LINE
  8
0
 62
     0
 10
5.30382
 20
7.1155
 30
0.0
 11
5.02512
 21
7.16764
 31
0.0
  0
LINE
  8
0
 62
     0
 10
5.02512
 20
7.16764
 30
0.0
 11
4.7079
 21
7.18901
 31
0.0
  0
LINE
  8
0
 62
     0
 10
4.7079
 20
7.18901
 30
0.0
 11
4.43892
 21
7.18272
 31
0.0
  0
LINE
  8
0
 62
     0
 10
4.43892
 20
7.18272
 30
0.0
 11
4.34978
 21
7.17486
 31
0.0
  0
LINE
  8
0
 62
     0
 10
4.34978
 20
7.17486
 30
0.0
 11
4.30658
 21
7.17106
 31
0.0
  0
LINE
  8
0
 62
     0
 10
4.30658
 20
7.17106
 30
0.0
 11
4.17811
 21
7.14839
 31
0.0
  0
LINE
  8
0
 62
     0
 10
4.17811
 20
7.14839
 30
0.0
 11
4.04129
 21
7.10319
 31
0.0
  0
LINE
  8
0
 62
     0
 10
4.04129
 20
7.10319
 30
0.0
 11
3.93744
 21
7.04058
 31
0.0
  0
LINE
  8
0
 62
     0
 10
3.93744
 20
7.04058
 30
0.0
 11
3.86458
 21
6.96186
 31
0.0
  0
LINE
  8
0
 62
     0
 10
3.86458
 20
6.96186
 30
0.0
 11
3.82086
 21
6.86828
 31
0.0
  0
LINE
  8
0
 62
     0
 10
3.82086
 20
6.86828
 30
0.0
 11
3.80419
 21
6.76112
 31
0.0
  0
LINE
  8
0
 62
     0
 10
3.80419
 20
6.76112
 30
0.0
 11
3.81282
 21
6.64171
 31
0.0
  0
LINE
  8
0
 62
     0
 10
3.81282
 20
6.64171
 30
0.0
 11
3.84472
 21
6.51129
 31
0.0
  0
LINE
  8
0
 62
     0
 10
3.84472
 20
6.51129
 30
0.0
 11
3.89794
 21
6.37115
 31
0.0
  0
LINE
  8
0
 62
     0
 10
3.89794
 20
6.37115
 30
0.0
 11
3.97065
 21
6.22254
 31
0.0
  0
LINE
  8
0
 62
     0
 10
3.97065
 20
6.22254
 30
0.0
 11
4.06087
 21
6.06679
 31
0.0
  0
LINE
  8
0
 62
     0
 10
4.06087
 20
6.06679
 30
0.0
 11
4.16661
 21
5.90517
 31
0.0
  0
LINE
  8
0
 62
     0
 10
4.16661
 20
5.90517
 30
0.0
 11
4.28603
 21
5.73893
 31
0.0
  0
LINE
  8
0
 62
     0
 10
4.28603
 20
5.73893
 30
0.0
 11
4.41715
 21
5.56939
 31
0.0
  0
LINE
  8
0
 62
     0
 10
4.41715
 20
5.56939
 30
0.0
 11
4.55811
 21
5.39779
 31
0.0
  0
LINE
  8
0
 62
     0
 10
4.55811
 20
5.39779
 30
0.0
 11
4.70687
 21
5.22542
 31
0.0
  0
LINE
  8
0
 62
     0
 10
4.70687
 20
5.22542
 30
0.0
 11
4.86154
 21
5.05365
 31
0.0
  0
LINE
  8
0
 62
     0
 10
4.86154
 20
5.05365
 30
0.0
 11
5.02029
 21
4.88363
 31
0.0
  0
LINE
  8
0
 62
     0
 10
5.02029
 20
4.88363
 30
0.0
 11
5.18104
 21
4.71669
 31
0.0
  0
LINE
  8
0
 62
     0
 10
5.18104
 20
4.71669
 30
0.0
 11
5.34196
 21
4.55414
 31
0.0
  0
LINE
  8
0
 62
     0
 10
5.34196
 20
4.55414
 30
0.0
 11
5.50108
 21
4.39719
 31
0.0
  0
LINE
  8
0
 62
     0
 10
5.50108
 20
4.39719
 30
0.0
 11
5.65653
 21
4.24718
 31
0.0
  0
LINE
  8
0
 62
     0
 10
5.65653
 20
4.24718
 30
0.0
 11
5.80626
 21
4.10542
 31
0.0
  0
LINE
  8
0
 62
     0
 10
5.80626
 20
4.10542
 30
0.0
 11
5.94846
 21
3.97314
 31
0.0
  0
LINE
  8
0
 62
     0
 10
5.94846
 20
3.97314
 30
0.0
 11
6.08117
 21
3.85157
 31
0.0
  0
LINE
  8
0
 62
     0
 10
6.08117
 20
3.85157
 30
0.0
 11
6.20242
 21
3.74214
 31
0.0
  0
LINE
  8
0
 62
     0
 10
6.20242
 20
3.74214
 30
0.0
 11
6.31033
 21
3.64594
 31
0.0
  0
LINE
  8
0
 62
     0
 10
6.31033
 20
3.64594
 30
0.0
 11
6.40294
 21
3.5644
 31
0.0
  0
LINE
  8
0
 62
     0
 10
6.40294
 20
3.5644
 30
0.0
 11
6.47831
 21
3.49875
 31
0.0
  0
LINE
  8
0
 62
     0
 10
6.47831
 20
3.49875
 30
0.0
 11
6.53456
 21
3.45031
 31
0.0
  0
LINE
  8
0
 62
     0
 10
6.53456
 20
3.45031
 30
0.0
 11
6.56972
 21
3.42025
 31
0.0
  0
LINE
  8
0
 62
     0
 10
6.56972
 20
3.42025
 30
0.0
 11
6.58187
 21
3.40994
 31
0.0
  0
LINE
  8
0
 62
     0
 10
6.58187
 20
3.40994
 30
0.0
 11
6.58187
 21
3.40994
 31
0.0
  0
LINE
  8
0
 62
     0
 10
6.58187
 20
3.40994
 30
0.0
 11
4.02235
 21
2.62869
 31
0.0
  0
LINE
  8
0
 62
     0
 10
4.02235
 20
2.62869
 30
0.0
 11
2.64589
 21
0.0170899
 31
0.0
  0
LINE
  8
0
 62
     0
 10
2.64589
 20
0.0170899
 30
0.0
 11
0.00450304
 21
4.59299
 31
0.0
  0
ENDSEC
  0
EOF
