  0
SECTION
  2
HEADER
  9
$ACADVER
  1
AC1006
  9
$CLAYER
  8
1
  0
ENDSEC
  0
SECTION
  2
TABLES
  0
TABLE
  2
LTYPE
 70
1
  0
LTYPE
  2
CONTINUOUS
 70
0
  3
SOLIDLINE
 72
65
 73
0
 40
0.000000
  0
ENDTAB
  0
TABLE
  2
LAYER
 70
14
  0
LAYER
  2
1
 70
0
 62
7
  6
CONTINUOUS
  0
LAYER
  2
2
 70
0
 62
1
  6
CONTINUOUS
  0
LAYER
  2
3
 70
0
 62
2
  6
CONTINUOUS
  0
LAYER
  2
4
 70
0
 62
3
  6
CONTINUOUS
  0
LAYER
  2
5
 70
0
 62
5
  6
CONTINUOUS
  0
LAYER
  2
6
 70
0
 62
5
  6
CONTINUOUS
  0
LAYER
  2
7
 70
0
 62
5
  6
CONTINUOUS
  0
LAYER
  2
8
 70
0
 62
4
  6
CONTINUOUS
  0
LAYER
  2
9
 70
0
 62
5
  6
CONTINUOUS
  0
LAYER
  2
10
 70
0
 62
5
  6
CONTINUOUS
  0
LAYER
  2
11
 70
0
 62
4
  6
CONTINUOUS
  0
LAYER
  2
12
 70
0
 62
6
  6
CONTINUOUS
  0
LAYER
  2
13
 70
0
 62
4
  6
CONTINUOUS
  0
LAYER
  2
14
 70
0
 62
7
  6
CONTINUOUS
  0
ENDTAB
  0
TABLE
  2
STYLE
 70
1
  0
STYLE
  2
0
 70
0
 40
0.000000
 41
1.000000
 50
0.000000
 71
0
 42
1.000000
  3

  4

  0
ENDTAB
  0
ENDSEC
  0
SECTION
  2
BLOCKS
  0
ENDSEC
  0
SECTION
  2
ENTITIES
  0
LINE
  8
0
 10
610.000000
 20
-550.000000
 11
610.000000
 21
-60.000000
  0
POLYLINE
  8
0
 66
1
 70
    0
  0
VERTEX
  8
0
 10
610.000000
 20
-60.000000
  0
VERTEX
  8
0
 10
607.500000
 20
-60.000000
  0
VERTEX
  8
0
 10
605.253235
 20
-59.903297
  0
VERTEX
  8
0
 10
601.686707
 20
-59.614014
  0
VERTEX
  8
0
 10
596.830688
 20
-59.134624
  0
VERTEX
  8
0
 10
590.726868
 20
-58.469215
  0
VERTEX
  8
0
 10
583.427124
 20
-57.623459
  0
VERTEX
  8
0
 10
574.993713
 20
-56.604572
  0
VERTEX
  8
0
 10
565.498657
 20
-55.421257
  0
VERTEX
  8
0
 10
555.023071
 20
-54.083603
  0
VERTEX
  8
0
 10
543.656128
 20
-52.603012
  0
VERTEX
  8
0
 10
531.494934
 20
-50.992130
  0
VERTEX
  8
0
 10
518.643188
 20
-49.264702
  0
VERTEX
  8
0
 10
505.210632
 20
-47.435459
  0
VERTEX
  8
0
 10
491.311707
 20
-45.519997
  0
VERTEX
  8
0
 10
477.065094
 20
-43.534676
  0
VERTEX
  8
0
 10
462.592346
 20
-41.496433
  0
VERTEX
  8
0
 10
448.016968
 20
-39.422653
  0
VERTEX
  8
0
 10
433.463226
 20
-37.331028
  0
VERTEX
  8
0
 10
430.988892
 20
-36.973633
  0
SEQEND
  0
LINE
  8
0
 10
610.000000
 20
-60.000000
 11
0.000000
 21
0.000000
  0
LINE
  8
0
 10
423.112396
 20
-111.617676
 11
430.988892
 21
-36.973633
  0
LINE
  8
0
 10
423.112396
 20
-550.000000
 11
423.112396
 21
-41.617676
  0
LINE
  8
0
 10
0.000000
 20
-210.000000
 11
610.000000
 21
-210.000000
  0
LINE
  8
0
 10
0.000000
 20
-550.000000
 11
610.000000
 21
-550.000000
  0
LINE
  8
0
 10
299.668610
 20
-550.000000
 11
299.668610
 21
-29.475599
  0
POINT
  8
0
 10
654.285706
 20
-60.000000
  0
POINT
  8
0
 10
908.520081
 20
-550.000000
  0
POINT
  8
0
 10
1217.897217
 20
-550.000000
  0
POINT
  8
0
 10
611.051392
 20
-550.000000
  0
POINT
  8
0
 10
1220.000000
 20
-210.000000
  0
LINE
  8
0
 10
0.000000
 20
0.000000
 11
100.000000
 21
0.000000
  0
POLYLINE
  8
0
 66
1
 70
    0
  0
VERTEX
  8
0
 10
129.494171
 20
-9.870399
  0
VERTEX
  8
0
 10
137.826553
 20
-9.979698
  0
VERTEX
  8
0
 10
146.145844
 20
-10.297862
  0
VERTEX
  8
0
 10
154.453430
 20
-10.804825
  0
VERTEX
  8
0
 10
162.750595
 20
-11.480520
  0
VERTEX
  8
0
 10
171.038742
 20
-12.304878
  0
VERTEX
  8
0
 10
179.319168
 20
-13.257831
  0
VERTEX
  8
0
 10
187.593216
 20
-14.319308
  0
VERTEX
  8
0
 10
195.862244
 20
-15.469244
  0
VERTEX
  8
0
 10
200.869797
 20
-16.207363
  0
SEQEND
  0
POLYLINE
  8
0
 66
1
 70
    0
  0
VERTEX
  8
0
 10
215.749649
 20
-16.587595
  0
VERTEX
  8
0
 10
219.500580
 20
-17.150928
  0
VERTEX
  8
0
 10
223.248505
 20
-17.733919
  0
VERTEX
  8
0
 10
226.993790
 20
-18.334051
  0
VERTEX
  8
0
 10
230.736816
 20
-18.948816
  0
VERTEX
  8
0
 10
234.477966
 20
-19.575701
  0
VERTEX
  8
0
 10
238.217636
 20
-20.212187
  0
VERTEX
  8
0
 10
241.956207
 20
-20.855768
  0
VERTEX
  8
0
 10
245.694061
 20
-21.503925
  0
VERTEX
  8
0
 10
249.431580
 20
-22.154148
  0
VERTEX
  8
0
 10
253.169174
 20
-22.803923
  0
VERTEX
  8
0
 10
256.907166
 20
-23.450733
  0
VERTEX
  8
0
 10
260.646027
 20
-24.092073
  0
VERTEX
  8
0
 10
264.386078
 20
-24.725424
  0
VERTEX
  8
0
 10
268.127686
 20
-25.348272
  0
VERTEX
  8
0
 10
271.871307
 20
-25.958105
  0
VERTEX
  8
0
 10
275.617249
 20
-26.552414
  0
VERTEX
  8
0
 10
279.365997
 20
-27.128677
  0
VERTEX
  8
0
 10
283.117859
 20
-27.684387
  0
VERTEX
  8
0
 10
286.873199
 20
-28.217035
  0
SEQEND
  0
POLYLINE
  8
0
 66
1
 70
    0
  0
VERTEX
  8
0
 10
415.235901
 20
-36.973633
  0
VERTEX
  8
0
 10
412.761566
 20
-36.616238
  0
VERTEX
  8
0
 10
407.691528
 20
-35.908516
  0
VERTEX
  8
0
 10
402.281494
 20
-35.200676
  0
VERTEX
  8
0
 10
396.577545
 20
-34.498749
  0
VERTEX
  8
0
 10
390.628387
 20
-33.808731
  0
VERTEX
  8
0
 10
384.484772
 20
-33.136501
  0
VERTEX
  8
0
 10
378.199097
 20
-32.487793
  0
VERTEX
  8
0
 10
371.825012
 20
-31.868149
  0
VERTEX
  8
0
 10
365.416870
 20
-31.282854
  0
VERTEX
  8
0
 10
359.029388
 20
-30.736898
  0
VERTEX
  8
0
 10
352.716980
 20
-30.234943
  0
VERTEX
  8
0
 10
346.533630
 20
-29.781269
  0
VERTEX
  8
0
 10
340.531982
 20
-29.379745
  0
VERTEX
  8
0
 10
334.763245
 20
-29.033800
  0
VERTEX
  8
0
 10
329.276703
 20
-28.746386
  0
VERTEX
  8
0
 10
324.119110
 20
-28.519951
  0
VERTEX
  8
0
 10
319.334534
 20
-28.356430
  0
VERTEX
  8
0
 10
314.963684
 20
-28.257217
  0
VERTEX
  8
0
 10
312.464020
 20
-28.217035
  0
SEQEND
  0
POINT
  8
0
 10
1286.649414
 20
-60.000000
  0
POINT
  8
0
 10
0.000000
 20
0.000000
  0
POINT
  8
0
 10
0.000000
 20
-550.000000
  0
POINT
  8
0
 10
610.000000
 20
-550.000000
  0
POINT
  8
0
 10
610.000000
 20
-60.000000
  0
POINT
  8
0
 10
299.668610
 20
-29.475599
  0
POINT
  8
0
 10
312.464020
 20
-28.217035
  0
POINT
  8
0
 10
286.873199
 20
-28.217035
  0
POINT
  8
0
 10
299.668610
 20
-550.000000
  0
POINT
  8
0
 10
299.668610
 20
-210.000000
  0
POINT
  8
0
 10
0.000000
 20
-210.000000
  0
POINT
  8
0
 10
610.000000
 20
-210.000000
  0
POINT
  8
0
 10
0.000000
 20
0.000000
  0
POINT
  8
0
 10
0.000000
 20
0.000000
  0
POINT
  8
0
 10
0.000000
 20
0.000000
  0
POINT
  8
0
 10
0.000000
 20
0.000000
  0
POINT
  8
0
 10
0.000000
 20
0.000000
  0
POINT
  8
0
 10
0.000000
 20
0.000000
  0
POINT
  8
0
 10
0.000000
 20
0.000000
  0
POINT
  8
0
 10
312.464020
 20
-28.217035
  0
POINT
  8
0
 10
286.873199
 20
-28.217035
  0
POINT
  8
0
 10
0.000000
 20
0.000000
  0
POINT
  8
0
 10
0.000000
 20
0.000000
  0
POINT
  8
0
 10
0.000000
 20
0.000000
  0
POINT
  8
0
 10
0.000000
 20
0.000000
  0
POINT
  8
0
 10
100.349052
 20
-9.870399
  0
POINT
  8
0
 10
129.494171
 20
-9.870399
  0
POINT
  8
0
 10
114.921608
 20
-11.303765
  0
POINT
  8
0
 10
114.921608
 20
-550.000000
  0
POINT
  8
0
 10
114.921387
 20
-210.000000
  0
POINT
  8
0
 10
114.921608
 20
-101.303764
  0
POINT
  8
0
 10
423.112396
 20
-210.000000
  0
POINT
  8
0
 10
423.112396
 20
-41.617676
  0
POINT
  8
0
 10
415.235901
 20
-36.973633
  0
POINT
  8
0
 10
423.112396
 20
-111.617676
  0
POINT
  8
0
 10
430.988892
 20
-36.973633
  0
POINT
  8
0
 10
0.000000
 20
-9.870399
  0
POINT
  8
0
 10
610.000000
 20
-60.000000
  0
POINT
  8
0
 10
0.000000
 20
-90.697754
  0
POINT
  8
0
 10
297.086426
 20
-119.919312
  0
POINT
  8
0
 10
610.000000
 20
-150.775879
  0
POINT
  8
0
 10
302.373047
 20
-117.914856
  0
POINT
  8
0
 10
296.943329
 20
-117.558952
  0
POINT
  8
0
 10
205.932480
 20
-109.431358
  0
POINT
  8
0
 10
0.000000
 20
0.000000
  0
POINT
  8
0
 10
200.869797
 20
-16.207378
  0
POINT
  8
0
 10
215.749649
 20
-16.587595
  0
POINT
  8
0
 10
208.286026
 20
-17.325035
  0
POINT
  8
0
 10
0.000000
 20
0.000000
  0
POINT
  8
0
 10
0.000000
 20
0.000000
  0
POINT
  8
0
 10
0.000000
 20
0.000000
  0
POINT
  8
0
 10
0.000000
 20
0.000000
  0
POINT
  8
0
 10
114.921608
 20
-102.001465
  0
POINT
  8
0
 10
114.921608
 20
-102.001465
  0
POINT
  8
0
 10
205.893677
 20
-110.949707
  0
POINT
  8
0
 10
205.893677
 20
-110.949707
  0
POINT
  8
0
 10
0.000000
 20
0.000000
  0
POINT
  8
0
 10
0.000000
 20
0.000000
  0
POINT
  8
0
 10
423.112396
 20
-130.812012
  0
POINT
  8
0
 10
423.112396
 20
-130.812012
  0
POINT
  8
0
 10
0.000000
 20
0.000000
  0
POINT
  8
0
 10
0.000000
 20
0.000000
  0
POINT
  8
0
 10
0.000000
 20
0.000000
  0
POINT
  8
0
 10
0.000000
 20
0.000000
  0
POINT
  8
0
 10
0.000000
 20
0.000000
  0
POINT
  8
0
 10
0.000000
 20
0.000000
  0
POINT
  8
0
 10
0.000000
 20
0.000000
  0
POINT
  8
0
 10
0.000000
 20
0.000000
  0
POINT
  8
0
 10
0.000000
 20
0.000000
  0
POINT
  8
0
 10
301.327606
 20
-117.803177
  0
POINT
  8
0
 10
298.132782
 20
-120.022232
  0
POINT
  8
0
 10
0.000000
 20
0.000000
  0
POINT
  8
0
 10
0.000000
 20
0.000000
  0
LINE
  8
0
 10
0.000000
 20
0.000000
 11
0.000000
 21
-550.000000
  0
LINE
  8
0
 10
0.000000
 20
0.000000
 11
100.000000
 21
0.000000
  0
LINE
  8
0
 10
0.000000
 20
0.000000
 11
100.000000
 21
0.000000
  0
LINE
  8
0
 10
0.000000
 20
0.000000
 11
100.000000
 21
0.000000
  0
LINE
  8
0
 10
0.000000
 20
0.000000
 11
100.000000
 21
0.000000
  0
LINE
  8
0
 10
0.000000
 20
0.000000
 11
100.000000
 21
0.000000
  0
LINE
  8
0
 10
114.921608
 20
-11.303765
 11
114.921608
 21
-550.000000
  0
LINE
  8
0
 10
423.112396
 20
-111.617676
 11
415.235901
 21
-36.973633
  0
LINE
  8
0
 10
114.921608
 20
-101.303764
 11
100.349052
 21
-9.870399
  0
LINE
  8
0
 10
114.921608
 20
-101.303764
 11
129.494171
 21
-9.870399
  0
LINE
  8
0
 10
610.000000
 20
-150.775879
 11
302.373047
 21
-117.914856
  0
LINE
  8
0
 10
0.000000
 20
-90.697754
 11
297.086426
 21
-119.919312
  0
LINE
  8
0
 10
114.921608
 20
-101.303764
 11
296.943329
 21
-117.558952
  0
LINE
  8
0
 10
0.000000
 20
0.000000
 11
100.000000
 21
0.000000
  0
LINE
  8
0
 10
0.000000
 20
0.000000
 11
100.000000
 21
0.000000
  0
LINE
  8
0
 10
0.000000
 20
0.000000
 11
100.000000
 21
0.000000
  0
LINE
  8
0
 10
215.749649
 20
-16.587595
 11
206.497910
 21
-87.302185
  0
LINE
  8
0
 10
200.869797
 20
-16.207378
 11
206.497940
 21
-87.302185
  0
LINE
  8
0
 10
0.000000
 20
0.000000
 11
100.000000
 21
0.000000
  0
LINE
  8
0
 10
100.349052
 20
-9.870399
 11
0.000000
 21
-9.870399
  0
LINE
  8
0
 10
208.286026
 20
-17.325035
 11
205.932480
 21
-109.431358
  0
LINE
  8
0
 10
0.000000
 20
-90.697754
 11
114.921608
 21
-102.001465
  0
LINE
  8
0
 10
114.921608
 20
-102.001465
 11
205.893677
 21
-110.949707
  0
LINE
  8
0
 10
205.893677
 20
-110.949707
 11
297.086426
 21
-119.919312
  0
LINE
  8
0
 10
0.000000
 20
0.000000
 11
100.000000
 21
0.000000
  0
LINE
  8
0
 10
423.112396
 20
-130.812012
 11
610.000000
 21
-150.775879
  0
LINE
  8
0
 10
302.373047
 20
-117.914856
 11
423.112396
 21
-130.812012
  0
LINE
  8
0
 10
0.000000
 20
0.000000
 11
100.000000
 21
0.000000
  0
LINE
  8
0
 10
0.000000
 20
0.000000
 11
100.000000
 21
0.000000
  0
LINE
  8
0
 10
0.000000
 20
0.000000
 11
100.000000
 21
0.000000
  0
LINE
  8
0
 10
0.000000
 20
0.000000
 11
100.000000
 21
0.000000
  0
POLYLINE
  8
0
 66
1
 70
    0
  0
VERTEX
  8
0
 10
299.668610
 20
-210.000000
  0
VERTEX
  8
0
 10
299.712067
 20
-207.500381
  0
VERTEX
  8
0
 10
300.677368
 20
-164.297516
  0
VERTEX
  8
0
 10
301.179016
 20
-138.081985
  0
VERTEX
  8
0
 10
301.327606
 20
-117.803177
  0
VERTEX
  8
0
 10
301.458069
 20
-104.697266
  0
VERTEX
  8
0
 10
301.825836
 20
-93.550964
  0
VERTEX
  8
0
 10
302.431702
 20
-83.317215
  0
VERTEX
  8
0
 10
303.283112
 20
-73.707947
  0
VERTEX
  8
0
 10
304.384369
 20
-64.603256
  0
VERTEX
  8
0
 10
305.891083
 20
-55.058830
  0
VERTEX
  8
0
 10
307.484436
 20
-46.974892
  0
VERTEX
  8
0
 10
309.561310
 20
-38.274658
  0
VERTEX
  8
0
 10
311.733521
 20
-30.607927
  0
VERTEX
  8
0
 10
312.464020
 20
-28.217035
  0
SEQEND
  0
POLYLINE
  8
0
 66
1
 70
    0
  0
VERTEX
  8
0
 10
299.668610
 20
-210.000000
  0
VERTEX
  8
0
 10
299.625153
 20
-207.500381
  0
VERTEX
  8
0
 10
298.659851
 20
-164.297516
  0
VERTEX
  8
0
 10
298.158203
 20
-138.081985
  0
VERTEX
  8
0
 10
298.009613
 20
-117.803177
  0
VERTEX
  8
0
 10
297.879150
 20
-104.697266
  0
VERTEX
  8
0
 10
297.511383
 20
-93.550964
  0
VERTEX
  8
0
 10
296.905518
 20
-83.317215
  0
VERTEX
  8
0
 10
296.054108
 20
-73.707947
  0
VERTEX
  8
0
 10
294.952850
 20
-64.603256
  0
VERTEX
  8
0
 10
293.446136
 20
-55.058830
  0
VERTEX
  8
0
 10
291.852783
 20
-46.974892
  0
VERTEX
  8
0
 10
289.775909
 20
-38.274658
  0
VERTEX
  8
0
 10
287.603699
 20
-30.607927
  0
VERTEX
  8
0
 10
286.873199
 20
-28.217035
  0
SEQEND
  0
LINE
  8
0
 10
0.000000
 20
0.000000
 11
100.000000
 21
0.000000
  0
LINE
  8
0
 10
0.000000
 20
0.000000
 11
100.000000
 21
0.000000
  0
LINE
  8
0
 10
0.000000
 20
0.000000
 11
100.000000
 21
0.000000
  0
LINE
  8
0
 10
0.000000
 20
-9.870399
 11
0.000000
 21
0.000000
  0
ENDSEC
  0
EOF
