  0
SECTION
  2
HEADER
  9
$ACADVER
  1
AC1006
  9
$CLAYER
  8
1
  0
ENDSEC
  0
SECTION
  2
TABLES
  0
TABLE
  2
LTYPE
 70
1
  0
LTYPE
  2
CONTINUOUS
 70
0
  3
SOLIDLINE
 72
65
 73
0
 40
0.000000
  0
ENDTAB
  0
TABLE
  2
LAYER
 70
14
  0
LAYER
  2
1
 70
0
 62
7
  6
CONTINUOUS
  0
LAYER
  2
2
 70
0
 62
1
  6
CONTINUOUS
  0
LAYER
  2
3
 70
0
 62
2
  6
CONTINUOUS
  0
LAYER
  2
4
 70
0
 62
3
  6
CONTINUOUS
  0
LAYER
  2
5
 70
0
 62
5
  6
CONTINUOUS
  0
LAYER
  2
6
 70
0
 62
5
  6
CONTINUOUS
  0
LAYER
  2
7
 70
0
 62
5
  6
CONTINUOUS
  0
LAYER
  2
8
 70
0
 62
4
  6
CONTINUOUS
  0
LAYER
  2
9
 70
0
 62
5
  6
CONTINUOUS
  0
LAYER
  2
10
 70
0
 62
5
  6
CONTINUOUS
  0
LAYER
  2
11
 70
0
 62
4
  6
CONTINUOUS
  0
LAYER
  2
12
 70
0
 62
6
  6
CONTINUOUS
  0
LAYER
  2
13
 70
0
 62
4
  6
CONTINUOUS
  0
LAYER
  2
14
 70
0
 62
7
  6
CONTINUOUS
  0
ENDTAB
  0
TABLE
  2
STYLE
 70
1
  0
STYLE
  2
0
 70
0
 40
0.000000
 41
1.000000
 50
0.000000
 71
0
 42
1.000000
  3

  4

  0
ENDTAB
  0
ENDSEC
  0
SECTION
  2
BLOCKS
  0
ENDSEC
  0
SECTION
  2
ENTITIES
  0
POINT
  8
0
 10
672.500000
 20
-622.500000
  0
POINT
  8
0
 10
90.666016
 20
-114.045898
  0
POINT
  8
0
 10
103.010193
 20
-113.248047
  0
POINT
  8
0
 10
166.098312
 20
-107.550293
  0
POINT
  8
0
 10
166.098312
 20
-107.550293
  0
POINT
  8
0
 10
0.000000
 20
0.000000
  0
POINT
  8
0
 10
0.000000
 20
0.000000
  0
POINT
  8
0
 10
0.000000
 20
0.000000
  0
POINT
  8
0
 10
350.000000
 20
-104.019531
  0
POINT
  8
0
 10
0.000000
 20
0.000000
  0
POINT
  8
0
 10
0.000000
 20
0.000000
  0
POINT
  8
0
 10
0.000000
 20
0.000000
  0
POINT
  8
0
 10
247.496567
 20
-93.979797
  0
POINT
  8
0
 10
242.502457
 20
-93.980034
  0
POLYLINE
  8
0
 66
1
 70
    0
  0
VERTEX
  8
0
 10
90.665985
 20
-114.045250
  0
VERTEX
  8
0
 10
79.518936
 20
-114.697418
  0
VERTEX
  8
0
 10
63.567352
 20
-115.472321
  0
VERTEX
  8
0
 10
47.756027
 20
-116.082001
  0
VERTEX
  8
0
 10
32.219940
 20
-116.521255
  0
VERTEX
  8
0
 10
17.091599
 20
-116.786346
  0
VERTEX
  8
0
 10
2.500000
 20
-116.874992
  0
VERTEX
  8
0
 10
0.000015
 20
-116.875000
  0
SEQEND
  0
POLYLINE
  8
0
 66
1
 70
    0
  0
VERTEX
  8
0
 10
166.098358
 20
-107.550720
  0
VERTEX
  8
0
 10
156.640594
 20
-108.621834
  0
VERTEX
  8
0
 10
142.012451
 20
-110.097702
  0
VERTEX
  8
0
 10
126.855286
 20
-111.454193
  0
VERTEX
  8
0
 10
111.298416
 20
-112.679756
  0
VERTEX
  8
0
 10
103.010185
 20
-113.247620
  0
SEQEND
  0
POLYLINE
  8
0
 66
1
 70
    0
  0
VERTEX
  8
0
 10
236.983398
 20
-95.458862
  0
VERTEX
  8
0
 10
234.568588
 20
-96.105911
  0
VERTEX
  8
0
 10
226.757614
 20
-98.022186
  0
VERTEX
  8
0
 10
217.694656
 20
-99.922119
  0
VERTEX
  8
0
 10
207.457031
 20
-101.789497
  0
VERTEX
  8
0
 10
196.132050
 20
-103.608391
  0
VERTEX
  8
0
 10
183.816330
 20
-105.363281
  0
VERTEX
  8
0
 10
170.614975
 20
-107.039200
  0
VERTEX
  8
0
 10
166.098358
 20
-107.550720
  0
SEQEND
  0
LINE
  8
0
 10
0.000000
 20
0.000000
 11
100.000000
 21
0.000000
  0
POLYLINE
  8
0
 66
1
 70
    0
  0
VERTEX
  8
0
 10
350.000000
 20
-104.019821
  0
VERTEX
  8
0
 10
351.007355
 20
-104.064636
  0
VERTEX
  8
0
 10
367.724640
 20
-104.700104
  0
VERTEX
  8
0
 10
385.206116
 20
-105.262245
  0
VERTEX
  8
0
 10
403.302734
 20
-105.746262
  0
VERTEX
  8
0
 10
421.860168
 20
-106.148018
  0
VERTEX
  8
0
 10
440.720032
 20
-106.464088
  0
VERTEX
  8
0
 10
459.721283
 20
-106.691772
  0
VERTEX
  8
0
 10
478.701874
 20
-106.829140
  0
VERTEX
  8
0
 10
497.500000
 20
-106.875008
  0
VERTEX
  8
0
 10
500.000000
 20
-106.875000
  0
SEQEND
  0
POLYLINE
  8
0
 66
1
 70
    0
  0
VERTEX
  8
0
 10
253.015625
 20
-95.458618
  0
VERTEX
  8
0
 10
255.430450
 20
-96.105667
  0
VERTEX
  8
0
 10
260.000305
 20
-97.099411
  0
VERTEX
  8
0
 10
266.253540
 20
-98.084663
  0
VERTEX
  8
0
 10
274.136688
 20
-99.053024
  0
VERTEX
  8
0
 10
283.582581
 20
-99.996239
  0
VERTEX
  8
0
 10
294.510651
 20
-100.906250
  0
VERTEX
  8
0
 10
306.827637
 20
-101.775299
  0
VERTEX
  8
0
 10
320.428406
 20
-102.595970
  0
VERTEX
  8
0
 10
335.196960
 20
-103.361259
  0
VERTEX
  8
0
 10
350.000000
 20
-104.019821
  0
SEQEND
  0
LINE
  8
0
 10
0.000000
 20
0.000000
 11
100.000000
 21
0.000000
  0
POLYLINE
  8
0
 66
1
 70
    0
  0
VERTEX
  8
0
 10
253.015625
 20
-95.458618
  0
VERTEX
  8
0
 10
255.430450
 20
-96.105667
  0
VERTEX
  8
0
 10
260.000305
 20
-97.099411
  0
VERTEX
  8
0
 10
266.253540
 20
-98.084663
  0
VERTEX
  8
0
 10
274.136688
 20
-99.053024
  0
VERTEX
  8
0
 10
283.582581
 20
-99.996239
  0
VERTEX
  8
0
 10
294.510651
 20
-100.906250
  0
VERTEX
  8
0
 10
306.827637
 20
-101.775299
  0
VERTEX
  8
0
 10
320.428406
 20
-102.595970
  0
VERTEX
  8
0
 10
335.196960
 20
-103.361259
  0
VERTEX
  8
0
 10
351.007355
 20
-104.064636
  0
VERTEX
  8
0
 10
367.724640
 20
-104.700104
  0
VERTEX
  8
0
 10
385.206116
 20
-105.262245
  0
VERTEX
  8
0
 10
403.302734
 20
-105.746262
  0
VERTEX
  8
0
 10
421.860168
 20
-106.148018
  0
VERTEX
  8
0
 10
440.720032
 20
-106.464088
  0
VERTEX
  8
0
 10
459.721283
 20
-106.691772
  0
VERTEX
  8
0
 10
478.701874
 20
-106.829140
  0
VERTEX
  8
0
 10
497.500000
 20
-106.875008
  0
VERTEX
  8
0
 10
500.000000
 20
-106.875000
  0
SEQEND
  0
POLYLINE
  8
0
 66
1
 70
    0
  0
VERTEX
  8
0
 10
236.983398
 20
-95.458862
  0
VERTEX
  8
0
 10
234.568588
 20
-96.105911
  0
VERTEX
  8
0
 10
226.757614
 20
-98.022186
  0
VERTEX
  8
0
 10
217.694656
 20
-99.922119
  0
VERTEX
  8
0
 10
207.457031
 20
-101.789497
  0
VERTEX
  8
0
 10
196.132050
 20
-103.608391
  0
VERTEX
  8
0
 10
183.816330
 20
-105.363281
  0
VERTEX
  8
0
 10
170.614975
 20
-107.039200
  0
VERTEX
  8
0
 10
156.640594
 20
-108.621834
  0
VERTEX
  8
0
 10
142.012451
 20
-110.097702
  0
VERTEX
  8
0
 10
126.855286
 20
-111.454193
  0
VERTEX
  8
0
 10
111.298416
 20
-112.679756
  0
VERTEX
  8
0
 10
95.474640
 20
-113.763916
  0
VERTEX
  8
0
 10
79.518936
 20
-114.697418
  0
VERTEX
  8
0
 10
63.567352
 20
-115.472321
  0
VERTEX
  8
0
 10
47.756027
 20
-116.082001
  0
VERTEX
  8
0
 10
32.219940
 20
-116.521255
  0
VERTEX
  8
0
 10
17.091599
 20
-116.786346
  0
VERTEX
  8
0
 10
2.500000
 20
-116.874992
  0
VERTEX
  8
0
 10
0.000000
 20
-116.875000
  0
SEQEND
  0
LINE
  8
0
 10
500.000000
 20
-622.500000
 11
505.713745
 21
-622.500000
  0
POINT
  8
0
 10
0.000000
 20
0.000000
  0
POINT
  8
0
 10
0.000000
 20
-12.500000
  0
POINT
  8
0
 10
0.000000
 20
-622.500000
  0
POINT
  8
0
 10
0.000000
 20
-198.750000
  0
POINT
  8
0
 10
500.000000
 20
0.000000
  0
POINT
  8
0
 10
500.000000
 20
-198.750000
  0
POINT
  8
0
 10
500.000000
 20
-622.500000
  0
POINT
  8
0
 10
500.000000
 20
-7.500000
  0
POINT
  8
0
 10
0.000000
 20
-17.500000
  0
POINT
  8
0
 10
245.000000
 20
0.000000
  0
POINT
  8
0
 10
280.714294
 20
0.000000
  0
POINT
  8
0
 10
0.000000
 20
0.000000
  0
POINT
  8
0
 10
0.000000
 20
0.000000
  0
POINT
  8
0
 10
209.285706
 20
0.000000
  0
POINT
  8
0
 10
245.000000
 20
-622.500000
  0
POINT
  8
0
 10
245.000000
 20
-198.750000
  0
POINT
  8
0
 10
0.000000
 20
0.000000
  0
POINT
  8
0
 10
0.000000
 20
0.000000
  0
POINT
  8
0
 10
77.500000
 20
0.000000
  0
POINT
  8
0
 10
114.285713
 20
0.000000
  0
POINT
  8
0
 10
95.892853
 20
0.000000
  0
POINT
  8
0
 10
78.219528
 20
-13.008024
  0
POINT
  8
0
 10
115.358383
 20
-13.008024
  0
POINT
  8
0
 10
96.788956
 20
-14.325568
  0
POINT
  8
0
 10
96.788956
 20
-622.500000
  0
POINT
  8
0
 10
96.789062
 20
-198.750000
  0
POINT
  8
0
 10
96.789062
 20
-163.750000
  0
POINT
  8
0
 10
350.000000
 20
-5.275391
  0
POINT
  8
0
 10
341.613007
 20
-4.962202
  0
POINT
  8
0
 10
350.000000
 20
-75.275391
  0
POINT
  8
0
 10
358.386993
 20
-4.962202
  0
POINT
  8
0
 10
236.993820
 20
-95.521553
  0
POINT
  8
0
 10
166.891449
 20
-129.635773
  0
POINT
  8
0
 10
0.000000
 20
0.000000
  0
POINT
  8
0
 10
162.535233
 20
-8.333639
  0
POINT
  8
0
 10
162.535233
 20
-8.333639
  0
POINT
  8
0
 10
162.535233
 20
-8.333640
  0
POINT
  8
0
 10
0.000000
 20
0.000000
  0
POINT
  8
0
 10
0.000000
 20
0.000000
  0
POINT
  8
0
 10
0.000000
 20
0.000000
  0
POINT
  8
0
 10
0.000000
 20
0.000000
  0
POINT
  8
0
 10
165.047455
 20
-78.288551
  0
POINT
  8
0
 10
0.000000
 20
0.000000
  0
POINT
  8
0
 10
0.000000
 20
0.000000
  0
POINT
  8
0
 10
0.000000
 20
0.000000
  0
POINT
  8
0
 10
0.000000
 20
0.000000
  0
POINT
  8
0
 10
0.000000
 20
0.000000
  0
POINT
  8
0
 10
0.000000
 20
0.000000
  0
POINT
  8
0
 10
253.015625
 20
-95.458618
  0
POINT
  8
0
 10
500.000000
 20
-106.875000
  0
POINT
  8
0
 10
236.983398
 20
-95.458862
  0
POINT
  8
0
 10
0.000000
 20
-116.875000
  0
POINT
  8
0
 10
245.000000
 20
-298.125000
  0
POINT
  8
0
 10
255.000000
 20
-298.125000
  0
POINT
  8
0
 10
255.000000
 20
-622.500000
  0
POINT
  8
0
 10
235.000000
 20
-298.125000
  0
POINT
  8
0
 10
235.000000
 20
-622.500000
  0
POINT
  8
0
 10
0.000000
 20
0.000000
  0
POINT
  8
0
 10
0.000000
 20
0.000000
  0
LINE
  8
0
 10
0.000000
 20
0.000000
 11
0.000000
 21
-622.500000
  0
LINE
  8
0
 10
0.000000
 20
-622.500000
 11
500.000000
 21
-622.500000
  0
LINE
  8
0
 10
500.000000
 20
-622.500000
 11
500.000000
 21
0.000000
  0
LINE
  8
0
 10
500.000000
 20
0.000000
 11
0.000000
 21
0.000000
  0
LINE
  8
0
 10
0.000000
 20
-198.750000
 11
500.000000
 21
-198.750000
  0
LINE
  8
0
 10
245.000000
 20
-622.500000
 11
245.000000
 21
0.000000
  0
LINE
  8
0
 10
96.788956
 20
-14.325568
 11
96.788956
 21
-622.500000
  0
LINE
  8
0
 10
96.789062
 20
-163.750000
 11
115.358383
 21
-13.008024
  0
LINE
  8
0
 10
96.788849
 20
-163.750000
 11
78.219528
 21
-13.008024
  0
LINE
  8
0
 10
350.000000
 20
-622.500000
 11
350.000000
 21
-5.275391
  0
LINE
  8
0
 10
350.000000
 20
-75.275391
 11
341.613007
 21
-4.962202
  0
LINE
  8
0
 10
350.000000
 20
-75.275391
 11
358.386993
 21
-4.962202
  0
LINE
  8
0
 10
96.789062
 20
-163.750000
 11
236.993820
 21
-95.521553
  0
LINE
  8
0
 10
162.535233
 20
-8.333640
 11
166.891449
 21
-129.635773
  0
LINE
  8
0
 10
0.000000
 20
0.000000
 11
100.000000
 21
0.000000
  0
LINE
  8
0
 10
0.000000
 20
0.000000
 11
100.000000
 21
0.000000
  0
LINE
  8
0
 10
0.000000
 20
0.000000
 11
100.000000
 21
0.000000
  0
LINE
  8
0
 10
162.535233
 20
-8.333639
 11
165.047455
 21
-78.288551
  0
LINE
  8
0
 10
162.535233
 20
-8.333639
 11
165.047455
 21
-78.288551
  0
LINE
  8
0
 10
0.000000
 20
0.000000
 11
100.000000
 21
0.000000
  0
LINE
  8
0
 10
0.000000
 20
0.000000
 11
100.000000
 21
0.000000
  0
LINE
  8
0
 10
0.000000
 20
0.000000
 11
100.000000
 21
0.000000
  0
POLYLINE
  8
0
 66
1
 70
    0
  0
VERTEX
  8
0
 10
245.000000
 20
-198.750000
  0
VERTEX
  8
0
 10
245.087418
 20
-196.251526
  0
VERTEX
  8
0
 10
245.554916
 20
-169.657669
  0
VERTEX
  8
0
 10
245.626892
 20
-144.794495
  0
VERTEX
  8
0
 10
245.826843
 20
-127.555946
  0
VERTEX
  8
0
 10
246.202606
 20
-114.846481
  0
VERTEX
  8
0
 10
246.781082
 20
-103.530663
  0
VERTEX
  8
0
 10
247.496567
 20
-93.979797
  0
VERTEX
  8
0
 10
248.278534
 20
-86.924911
  0
VERTEX
  8
0
 10
249.442841
 20
-79.577148
  0
VERTEX
  8
0
 10
250.939285
 20
-72.303040
  0
VERTEX
  8
0
 10
252.869217
 20
-64.657959
  0
VERTEX
  8
0
 10
255.161972
 20
-56.975239
  0
VERTEX
  8
0
 10
257.972473
 20
-48.790112
  0
VERTEX
  8
0
 10
261.229370
 20
-40.372326
  0
VERTEX
  8
0
 10
265.169769
 20
-31.175629
  0
VERTEX
  8
0
 10
269.795685
 20
-21.276436
  0
VERTEX
  8
0
 10
279.540924
 20
-2.207527
  0
VERTEX
  8
0
 10
280.714294
 20
0.000000
  0
SEQEND
  0
POLYLINE
  8
0
 66
1
 70
    0
  0
VERTEX
  8
0
 10
245.000000
 20
-198.750000
  0
VERTEX
  8
0
 10
244.912582
 20
-196.251526
  0
VERTEX
  8
0
 10
244.445084
 20
-169.657669
  0
VERTEX
  8
0
 10
244.373108
 20
-144.794495
  0
VERTEX
  8
0
 10
244.173157
 20
-127.555946
  0
VERTEX
  8
0
 10
243.797394
 20
-114.846481
  0
VERTEX
  8
0
 10
243.218918
 20
-103.530663
  0
VERTEX
  8
0
 10
242.503433
 20
-93.979797
  0
VERTEX
  8
0
 10
241.721466
 20
-86.924911
  0
VERTEX
  8
0
 10
240.557159
 20
-79.577148
  0
VERTEX
  8
0
 10
239.060715
 20
-72.303040
  0
VERTEX
  8
0
 10
237.130783
 20
-64.657959
  0
VERTEX
  8
0
 10
234.838028
 20
-56.975239
  0
VERTEX
  8
0
 10
232.027527
 20
-48.790112
  0
VERTEX
  8
0
 10
228.770630
 20
-40.372326
  0
VERTEX
  8
0
 10
224.830231
 20
-31.175629
  0
VERTEX
  8
0
 10
220.204315
 20
-21.276436
  0
VERTEX
  8
0
 10
210.459076
 20
-2.207527
  0
VERTEX
  8
0
 10
209.285706
 20
0.000000
  0
SEQEND
  0
LINE
  8
0
 10
0.000000
 20
0.000000
 11
100.000000
 21
0.000000
  0
LINE
  8
0
 10
245.000000
 20
-198.750000
 11
235.000000
 21
-298.125000
  0
LINE
  8
0
 10
245.000000
 20
-198.750000
 11
255.000000
 21
-298.125000
  0
LINE
  8
0
 10
0.000000
 20
-298.125000
 11
500.000000
 21
-298.125000
  0
LINE
  8
0
 10
255.000000
 20
-622.500000
 11
255.000000
 21
-298.125000
  0
LINE
  8
0
 10
235.000000
 20
-622.500000
 11
235.000000
 21
-298.125000
  0
POLYLINE
  8
0
 66
1
 70
    0
  0
VERTEX
  8
0
 10
0.000000
 20
-17.500000
  0
VERTEX
  8
0
 10
2.500000
 20
-17.500000
  0
VERTEX
  8
0
 10
4.682143
 20
-17.481714
  0
VERTEX
  8
0
 10
7.289145
 20
-17.427013
  0
VERTEX
  8
0
 10
10.298771
 20
-17.336365
  0
VERTEX
  8
0
 10
13.685348
 20
-17.210541
  0
VERTEX
  8
0
 10
17.419987
 20
-17.050615
  0
VERTEX
  8
0
 10
21.470823
 20
-16.857952
  0
VERTEX
  8
0
 10
25.803293
 20
-16.634197
  0
VERTEX
  8
0
 10
30.380421
 20
-16.381258
  0
VERTEX
  8
0
 10
35.163185
 20
-16.101290
  0
VERTEX
  8
0
 10
40.110771
 20
-15.796685
  0
VERTEX
  8
0
 10
45.180946
 20
-15.470043
  0
VERTEX
  8
0
 10
50.330460
 20
-15.124148
  0
VERTEX
  8
0
 10
55.515419
 20
-14.761950
  0
VERTEX
  8
0
 10
60.691559
 20
-14.386541
  0
VERTEX
  8
0
 10
65.814682
 20
-14.001127
  0
VERTEX
  8
0
 10
70.841118
 20
-13.608992
  0
VERTEX
  8
0
 10
75.727982
 20
-13.213483
  0
VERTEX
  8
0
 10
78.219528
 20
-13.008024
  0
SEQEND
  0
POLYLINE
  8
0
 66
1
 70
    0
  0
VERTEX
  8
0
 10
115.358383
 20
-13.008024
  0
VERTEX
  8
0
 10
117.849930
 20
-12.802566
  0
VERTEX
  8
0
 10
120.070618
 20
-12.616484
  0
VERTEX
  8
0
 10
122.434570
 20
-12.412695
  0
VERTEX
  8
0
 10
124.921638
 20
-12.192940
  0
VERTEX
  8
0
 10
127.510597
 20
-11.959090
  0
VERTEX
  8
0
 10
130.179367
 20
-11.713143
  0
VERTEX
  8
0
 10
132.905151
 20
-11.457197
  0
VERTEX
  8
0
 10
135.664719
 20
-11.193435
  0
VERTEX
  8
0
 10
138.434509
 20
-10.924108
  0
VERTEX
  8
0
 10
141.190933
 20
-10.651511
  0
VERTEX
  8
0
 10
143.910416
 20
-10.377972
  0
VERTEX
  8
0
 10
146.569778
 20
-10.105826
  0
VERTEX
  8
0
 10
149.146347
 20
-9.837394
  0
VERTEX
  8
0
 10
151.618134
 20
-9.574964
  0
VERTEX
  8
0
 10
153.964050
 20
-9.320777
  0
VERTEX
  8
0
 10
156.164047
 20
-9.077002
  0
VERTEX
  8
0
 10
158.199402
 20
-8.845717
  0
VERTEX
  8
0
 10
160.052734
 20
-8.628899
  0
VERTEX
  8
0
 10
162.535233
 20
-8.333639
  0
SEQEND
  0
POLYLINE
  8
0
 66
1
 70
    0
  0
VERTEX
  8
0
 10
162.535233
 20
-8.333639
  0
VERTEX
  8
0
 10
165.017731
 20
-8.038380
  0
VERTEX
  8
0
 10
167.454117
 20
-7.738309
  0
VERTEX
  8
0
 10
170.007889
 20
-7.403774
  0
VERTEX
  8
0
 10
172.657288
 20
-7.037628
  0
VERTEX
  8
0
 10
175.379669
 20
-6.642993
  0
VERTEX
  8
0
 10
178.151855
 20
-6.223238
  0
VERTEX
  8
0
 10
180.950150
 20
-5.781942
  0
VERTEX
  8
0
 10
183.750717
 20
-5.322870
  0
VERTEX
  8
0
 10
186.529617
 20
-4.849943
  0
VERTEX
  8
0
 10
189.263199
 20
-4.367190
  0
VERTEX
  8
0
 10
191.928085
 20
-3.878731
  0
VERTEX
  8
0
 10
194.501587
 20
-3.388738
  0
VERTEX
  8
0
 10
196.961700
 20
-2.901388
  0
VERTEX
  8
0
 10
199.287491
 20
-2.420836
  0
VERTEX
  8
0
 10
201.459076
 20
-1.951186
  0
VERTEX
  8
0
 10
203.457932
 20
-1.496445
  0
VERTEX
  8
0
 10
205.267014
 20
-1.060492
  0
VERTEX
  8
0
 10
206.870895
 20
-0.647045
  0
VERTEX
  8
0
 10
209.285706
 20
0.000000
  0
SEQEND
  0
LINE
  8
0
 10
0.000000
 20
0.000000
 11
100.000000
 21
0.000000
  0
POLYLINE
  8
0
 66
1
 70
    0
  0
VERTEX
  8
0
 10
500.000000
 20
-7.500000
  0
VERTEX
  8
0
 10
497.500000
 20
-7.500000
  0
VERTEX
  8
0
 10
490.617645
 20
-7.489574
  0
VERTEX
  8
0
 10
483.239227
 20
-7.458387
  0
VERTEX
  8
0
 10
475.427704
 20
-7.406705
  0
VERTEX
  8
0
 10
467.249603
 20
-7.334968
  0
VERTEX
  8
0
 10
458.774780
 20
-7.243788
  0
VERTEX
  8
0
 10
450.075500
 20
-7.133944
  0
VERTEX
  8
0
 10
441.226013
 20
-7.006371
  0
VERTEX
  8
0
 10
432.301849
 20
-6.862161
  0
VERTEX
  8
0
 10
423.379120
 20
-6.702540
  0
VERTEX
  8
0
 10
414.533875
 20
-6.528873
  0
VERTEX
  8
0
 10
405.841705
 20
-6.342641
  0
VERTEX
  8
0
 10
397.376709
 20
-6.145432
  0
VERTEX
  8
0
 10
389.211029
 20
-5.938930
  0
VERTEX
  8
0
 10
381.414459
 20
-5.724894
  0
VERTEX
  8
0
 10
374.053497
 20
-5.505154
  0
VERTEX
  8
0
 10
367.190887
 20
-5.281583
  0
VERTEX
  8
0
 10
360.885223
 20
-5.056087
  0
VERTEX
  8
0
 10
358.386993
 20
-4.962202
  0
SEQEND
  0
POLYLINE
  8
0
 66
1
 70
    0
  0
VERTEX
  8
0
 10
341.613007
 20
-4.962202
  0
VERTEX
  8
0
 10
339.114777
 20
-4.868316
  0
VERTEX
  8
0
 10
334.757446
 20
-4.695441
  0
VERTEX
  8
0
 10
330.358093
 20
-4.502816
  0
VERTEX
  8
0
 10
325.954224
 20
-4.292085
  0
VERTEX
  8
0
 10
321.583466
 20
-4.065045
  0
VERTEX
  8
0
 10
317.283051
 20
-3.823633
  0
VERTEX
  8
0
 10
313.089661
 20
-3.569909
  0
VERTEX
  8
0
 10
309.039124
 20
-3.306039
  0
VERTEX
  8
0
 10
305.165985
 20
-3.034272
  0
VERTEX
  8
0
 10
301.503265
 20
-2.756928
  0
VERTEX
  8
0
 10
298.082184
 20
-2.476371
  0
VERTEX
  8
0
 10
294.932007
 20
-2.194998
  0
VERTEX
  8
0
 10
292.079559
 20
-1.915209
  0
VERTEX
  8
0
 10
289.549194
 20
-1.639387
  0
VERTEX
  8
0
 10
287.362488
 20
-1.369889
  0
VERTEX
  8
0
 10
285.538116
 20
-1.109016
  0
VERTEX
  8
0
 10
284.091614
 20
-0.858989
  0
VERTEX
  8
0
 10
283.035370
 20
-0.621945
  0
VERTEX
  8
0
 10
280.714294
 20
0.000000
  0
SEQEND
  0
LINE
  8
0
 10
0.000000
 20
0.000000
 11
100.000000
 21
0.000000
  0
LINE
  8
0
 10
0.000000
 20
0.000000
 11
100.000000
 21
0.000000
  0
LINE
  8
0
 10
0.000000
 20
0.000000
 11
100.000000
 21
0.000000
  0
ENDSEC
  0
EOF
