  0
SECTION
  2
HEADER
  9
$ACADVER
  1
AC1006
  9
$CLAYER
  8
1
  0
ENDSEC
  0
SECTION
  2
TABLES
  0
TABLE
  2
LTYPE
 70
1
  0
LTYPE
  2
CONTINUOUS
 70
0
  3
SOLIDLINE
 72
65
 73
0
 40
0.000000
  0
ENDTAB
  0
TABLE
  2
LAYER
 70
14
  0
LAYER
  2
1
 70
0
 62
7
  6
CONTINUOUS
  0
LAYER
  2
2
 70
0
 62
1
  6
CONTINUOUS
  0
LAYER
  2
3
 70
0
 62
2
  6
CONTINUOUS
  0
LAYER
  2
4
 70
0
 62
3
  6
CONTINUOUS
  0
LAYER
  2
5
 70
0
 62
5
  6
CONTINUOUS
  0
LAYER
  2
6
 70
0
 62
5
  6
CONTINUOUS
  0
LAYER
  2
7
 70
0
 62
5
  6
CONTINUOUS
  0
LAYER
  2
8
 70
0
 62
4
  6
CONTINUOUS
  0
LAYER
  2
9
 70
0
 62
5
  6
CONTINUOUS
  0
LAYER
  2
10
 70
0
 62
5
  6
CONTINUOUS
  0
LAYER
  2
11
 70
0
 62
4
  6
CONTINUOUS
  0
LAYER
  2
12
 70
0
 62
6
  6
CONTINUOUS
  0
LAYER
  2
13
 70
0
 62
4
  6
CONTINUOUS
  0
LAYER
  2
14
 70
0
 62
7
  6
CONTINUOUS
  0
ENDTAB
  0
TABLE
  2
STYLE
 70
1
  0
STYLE
  2
0
 70
0
 40
0.000000
 41
1.000000
 50
0.000000
 71
0
 42
1.000000
  3

  4

  0
ENDTAB
  0
ENDSEC
  0
SECTION
  2
BLOCKS
  0
ENDSEC
  0
SECTION
  2
ENTITIES
  0
POINT
  8
0
 10
570.000000
 20
0.000000
  0
POINT
  8
0
 10
620.000000
 20
-664.000000
  0
POINT
  8
0
 10
83.034363
 20
-108.303711
  0
POINT
  8
0
 10
102.083679
 20
-107.931152
  0
POINT
  8
0
 10
157.856720
 20
-106.232422
  0
POINT
  8
0
 10
157.856720
 20
-106.232422
  0
POINT
  8
0
 10
0.000000
 20
0.000000
  0
POINT
  8
0
 10
0.000000
 20
0.000000
  0
POINT
  8
0
 10
0.000000
 20
0.000000
  0
POINT
  8
0
 10
333.333344
 20
-117.959473
  0
POINT
  8
0
 10
0.000000
 20
0.000000
  0
POINT
  8
0
 10
0.000000
 20
0.000000
  0
POINT
  8
0
 10
0.000000
 20
0.000000
  0
POINT
  8
0
 10
256.417755
 20
-103.593933
  0
POINT
  8
0
 10
213.399277
 20
-102.673103
  0
POLYLINE
  8
0
 66
1
 70
    0
  0
VERTEX
  8
0
 10
83.034348
 20
-108.303436
  0
VERTEX
  8
0
 10
73.638947
 20
-108.464409
  0
VERTEX
  8
0
 10
56.007614
 20
-108.697273
  0
VERTEX
  8
0
 10
38.172546
 20
-108.865028
  0
VERTEX
  8
0
 10
20.285797
 20
-108.966225
  0
VERTEX
  8
0
 10
2.500000
 20
-109.000008
  0
VERTEX
  8
0
 10
0.000000
 20
-109.000000
  0
SEQEND
  0
POLYLINE
  8
0
 66
1
 70
    0
  0
VERTEX
  8
0
 10
157.856705
 20
-106.232201
  0
VERTEX
  8
0
 10
153.604919
 20
-106.411133
  0
VERTEX
  8
0
 10
139.170074
 20
-106.929390
  0
VERTEX
  8
0
 10
123.821884
 20
-107.397606
  0
VERTEX
  8
0
 10
107.691330
 20
-107.811783
  0
VERTEX
  8
0
 10
102.083664
 20
-107.930992
  0
SEQEND
  0
POLYLINE
  8
0
 66
1
 70
    0
  0
VERTEX
  8
0
 10
225.923828
 20
-100.418091
  0
VERTEX
  8
0
 10
223.509018
 20
-101.065140
  0
VERTEX
  8
0
 10
219.959900
 20
-101.797348
  0
VERTEX
  8
0
 10
214.808212
 20
-102.523293
  0
VERTEX
  8
0
 10
208.097870
 20
-103.236801
  0
VERTEX
  8
0
 10
199.886093
 20
-103.931763
  0
VERTEX
  8
0
 10
190.242966
 20
-104.602272
  0
VERTEX
  8
0
 10
179.250732
 20
-105.242592
  0
VERTEX
  8
0
 10
167.003204
 20
-105.847267
  0
VERTEX
  8
0
 10
157.856705
 20
-106.232201
  0
SEQEND
  0
LINE
  8
0
 10
0.000000
 20
0.000000
 11
100.000000
 21
0.000000
  0
POLYLINE
  8
0
 66
1
 70
    0
  0
VERTEX
  8
0
 10
333.333313
 20
-117.959572
  0
VERTEX
  8
0
 10
347.198212
 20
-119.884537
  0
VERTEX
  8
0
 10
361.632996
 20
-121.709053
  0
VERTEX
  8
0
 10
376.081604
 20
-123.357452
  0
VERTEX
  8
0
 10
390.420654
 20
-124.815651
  0
VERTEX
  8
0
 10
404.527832
 20
-126.071228
  0
VERTEX
  8
0
 10
418.282928
 20
-127.113472
  0
VERTEX
  8
0
 10
431.568481
 20
-127.933487
  0
VERTEX
  8
0
 10
444.271088
 20
-128.524261
  0
VERTEX
  8
0
 10
456.282410
 20
-128.880783
  0
VERTEX
  8
0
 10
467.500000
 20
-128.999985
  0
VERTEX
  8
0
 10
470.000000
 20
-129.000000
  0
SEQEND
  0
POLYLINE
  8
0
 66
1
 70
    0
  0
VERTEX
  8
0
 10
244.076660
 20
-100.418091
  0
VERTEX
  8
0
 10
246.491486
 20
-101.065140
  0
VERTEX
  8
0
 10
256.608765
 20
-103.642601
  0
VERTEX
  8
0
 10
267.635834
 20
-106.198082
  0
VERTEX
  8
0
 10
279.478638
 20
-108.709770
  0
VERTEX
  8
0
 10
292.036102
 20
-111.156235
  0
VERTEX
  8
0
 10
305.201141
 20
-113.516617
  0
VERTEX
  8
0
 10
318.861420
 20
-115.770775
  0
VERTEX
  8
0
 10
332.900391
 20
-117.899467
  0
VERTEX
  8
0
 10
333.333313
 20
-117.959572
  0
SEQEND
  0
LINE
  8
0
 10
0.000000
 20
0.000000
 11
100.000000
 21
0.000000
  0
POLYLINE
  8
0
 66
1
 70
    0
  0
VERTEX
  8
0
 10
244.076660
 20
-100.418091
  0
VERTEX
  8
0
 10
246.491486
 20
-101.065140
  0
VERTEX
  8
0
 10
256.608765
 20
-103.642601
  0
VERTEX
  8
0
 10
267.635834
 20
-106.198082
  0
VERTEX
  8
0
 10
279.478638
 20
-108.709770
  0
VERTEX
  8
0
 10
292.036102
 20
-111.156235
  0
VERTEX
  8
0
 10
305.201141
 20
-113.516617
  0
VERTEX
  8
0
 10
318.861420
 20
-115.770775
  0
VERTEX
  8
0
 10
332.900391
 20
-117.899467
  0
VERTEX
  8
0
 10
347.198212
 20
-119.884537
  0
VERTEX
  8
0
 10
361.632996
 20
-121.709053
  0
VERTEX
  8
0
 10
376.081604
 20
-123.357452
  0
VERTEX
  8
0
 10
390.420654
 20
-124.815651
  0
VERTEX
  8
0
 10
404.527832
 20
-126.071228
  0
VERTEX
  8
0
 10
418.282928
 20
-127.113472
  0
VERTEX
  8
0
 10
431.568481
 20
-127.933487
  0
VERTEX
  8
0
 10
444.271088
 20
-128.524261
  0
VERTEX
  8
0
 10
456.282410
 20
-128.880783
  0
VERTEX
  8
0
 10
467.500000
 20
-128.999985
  0
VERTEX
  8
0
 10
470.000000
 20
-129.000000
  0
SEQEND
  0
POLYLINE
  8
0
 66
1
 70
    0
  0
VERTEX
  8
0
 10
225.923828
 20
-100.418091
  0
VERTEX
  8
0
 10
223.509018
 20
-101.065140
  0
VERTEX
  8
0
 10
219.959900
 20
-101.797348
  0
VERTEX
  8
0
 10
214.808212
 20
-102.523293
  0
VERTEX
  8
0
 10
208.097870
 20
-103.236801
  0
VERTEX
  8
0
 10
199.886093
 20
-103.931763
  0
VERTEX
  8
0
 10
190.242966
 20
-104.602272
  0
VERTEX
  8
0
 10
179.250732
 20
-105.242592
  0
VERTEX
  8
0
 10
167.003204
 20
-105.847267
  0
VERTEX
  8
0
 10
153.604919
 20
-106.411133
  0
VERTEX
  8
0
 10
139.170074
 20
-106.929390
  0
VERTEX
  8
0
 10
123.821884
 20
-107.397606
  0
VERTEX
  8
0
 10
107.691330
 20
-107.811783
  0
VERTEX
  8
0
 10
90.916016
 20
-108.168396
  0
VERTEX
  8
0
 10
73.638947
 20
-108.464409
  0
VERTEX
  8
0
 10
56.007614
 20
-108.697273
  0
VERTEX
  8
0
 10
38.172546
 20
-108.865028
  0
VERTEX
  8
0
 10
20.285797
 20
-108.966225
  0
VERTEX
  8
0
 10
2.500000
 20
-109.000008
  0
VERTEX
  8
0
 10
0.000000
 20
-109.000000
  0
SEQEND
  0
LINE
  8
0
 10
470.000000
 20
-664.000000
 11
457.256683
 21
-664.000000
  0
POINT
  8
0
 10
0.000000
 20
0.000000
  0
POINT
  8
0
 10
0.000000
 20
-14.000000
  0
POINT
  8
0
 10
0.000000
 20
-664.000000
  0
POINT
  8
0
 10
0.000000
 20
-210.000000
  0
POINT
  8
0
 10
470.000000
 20
0.000000
  0
POINT
  8
0
 10
470.000000
 20
-210.000000
  0
POINT
  8
0
 10
470.000000
 20
-664.000000
  0
POINT
  8
0
 10
470.000000
 20
-24.000000
  0
POINT
  8
0
 10
0.000000
 20
-4.000000
  0
POINT
  8
0
 10
235.000000
 20
0.000000
  0
POINT
  8
0
 10
275.000000
 20
0.000000
  0
POINT
  8
0
 10
0.000000
 20
0.000000
  0
POINT
  8
0
 10
0.000000
 20
0.000000
  0
POINT
  8
0
 10
195.000000
 20
0.000000
  0
POINT
  8
0
 10
235.000000
 20
-664.000000
  0
POINT
  8
0
 10
235.000000
 20
-210.000000
  0
POINT
  8
0
 10
0.000000
 20
0.000000
  0
POINT
  8
0
 10
0.000000
 20
0.000000
  0
POINT
  8
0
 10
70.000000
 20
0.000000
  0
POINT
  8
0
 10
115.000000
 20
0.000000
  0
POINT
  8
0
 10
92.500000
 20
0.000000
  0
POINT
  8
0
 10
70.023346
 20
-3.277681
  0
POINT
  8
0
 10
115.048553
 20
-3.277681
  0
POINT
  8
0
 10
92.535950
 20
-3.551149
  0
POINT
  8
0
 10
92.535950
 20
-664.000000
  0
POINT
  8
0
 10
92.536133
 20
-210.000000
  0
POINT
  8
0
 10
92.536133
 20
-185.000000
  0
POINT
  8
0
 10
333.333344
 20
-12.071289
  0
POINT
  8
0
 10
325.932098
 20
-10.858891
  0
POINT
  8
0
 10
333.333344
 20
-82.071289
  0
POINT
  8
0
 10
340.734589
 20
-10.858891
  0
POINT
  8
0
 10
224.999374
 20
-94.801888
  0
POINT
  8
0
 10
158.767746
 20
-139.900940
  0
POINT
  8
0
 10
0.000000
 20
0.000000
  0
POINT
  8
0
 10
155.050461
 20
-2.520424
  0
POINT
  8
0
 10
155.050461
 20
-2.520424
  0
POINT
  8
0
 10
155.050461
 20
-2.520424
  0
POINT
  8
0
 10
0.000000
 20
0.000000
  0
POINT
  8
0
 10
0.000000
 20
0.000000
  0
POINT
  8
0
 10
0.000000
 20
0.000000
  0
POINT
  8
0
 10
0.000000
 20
0.000000
  0
POINT
  8
0
 10
156.943848
 20
-72.494820
  0
POINT
  8
0
 10
0.000000
 20
0.000000
  0
POINT
  8
0
 10
0.000000
 20
0.000000
  0
POINT
  8
0
 10
0.000000
 20
0.000000
  0
POINT
  8
0
 10
0.000000
 20
0.000000
  0
POINT
  8
0
 10
0.000000
 20
0.000000
  0
POINT
  8
0
 10
0.000000
 20
0.000000
  0
POINT
  8
0
 10
244.076660
 20
-100.418091
  0
POINT
  8
0
 10
470.000000
 20
-129.000000
  0
POINT
  8
0
 10
225.923828
 20
-100.418091
  0
POINT
  8
0
 10
0.000000
 20
-109.000000
  0
POINT
  8
0
 10
0.000000
 20
0.000000
  0
POINT
  8
0
 10
0.000000
 20
0.000000
  0
POINT
  8
0
 10
0.000000
 20
0.000000
  0
POINT
  8
0
 10
0.000000
 20
0.000000
  0
POINT
  8
0
 10
0.000000
 20
0.000000
  0
POINT
  8
0
 10
0.000000
 20
0.000000
  0
POINT
  8
0
 10
0.000000
 20
0.000000
  0
LINE
  8
0
 10
0.000000
 20
0.000000
 11
0.000000
 21
-664.000000
  0
LINE
  8
0
 10
0.000000
 20
-664.000000
 11
470.000000
 21
-664.000000
  0
LINE
  8
0
 10
470.000000
 20
-664.000000
 11
470.000000
 21
0.000000
  0
LINE
  8
0
 10
470.000000
 20
0.000000
 11
0.000000
 21
0.000000
  0
LINE
  8
0
 10
0.000000
 20
-210.000000
 11
470.000000
 21
-210.000000
  0
LINE
  8
0
 10
235.000000
 20
-664.000000
 11
235.000000
 21
0.000000
  0
LINE
  8
0
 10
92.535950
 20
-3.551149
 11
92.535950
 21
-664.000000
  0
LINE
  8
0
 10
92.536133
 20
-185.000000
 11
115.048553
 21
-3.277681
  0
LINE
  8
0
 10
92.535767
 20
-185.000000
 11
70.023346
 21
-3.277681
  0
LINE
  8
0
 10
333.333344
 20
-664.000000
 11
333.333344
 21
-12.071289
  0
LINE
  8
0
 10
333.333344
 20
-82.071289
 11
325.932098
 21
-10.858891
  0
LINE
  8
0
 10
333.333344
 20
-82.071289
 11
340.734589
 21
-10.858891
  0
LINE
  8
0
 10
92.536133
 20
-185.000000
 11
224.999374
 21
-94.801888
  0
LINE
  8
0
 10
155.050461
 20
-2.520424
 11
158.767746
 21
-139.900940
  0
LINE
  8
0
 10
0.000000
 20
0.000000
 11
100.000000
 21
0.000000
  0
LINE
  8
0
 10
0.000000
 20
0.000000
 11
100.000000
 21
0.000000
  0
LINE
  8
0
 10
0.000000
 20
0.000000
 11
100.000000
 21
0.000000
  0
LINE
  8
0
 10
155.050461
 20
-2.520424
 11
156.943848
 21
-72.494820
  0
LINE
  8
0
 10
155.050461
 20
-2.520424
 11
156.943848
 21
-72.494820
  0
LINE
  8
0
 10
0.000000
 20
0.000000
 11
100.000000
 21
0.000000
  0
LINE
  8
0
 10
0.000000
 20
0.000000
 11
100.000000
 21
0.000000
  0
LINE
  8
0
 10
0.000000
 20
0.000000
 11
100.000000
 21
0.000000
  0
POLYLINE
  8
0
 66
1
 70
    0
  0
VERTEX
  8
0
 10
235.000000
 20
-210.000000
  0
VERTEX
  8
0
 10
235.000000
 20
-207.500000
  0
VERTEX
  8
0
 10
235.163284
 20
-192.058105
  0
VERTEX
  8
0
 10
235.651718
 20
-176.405106
  0
VERTEX
  8
0
 10
236.461151
 20
-160.674530
  0
VERTEX
  8
0
 10
237.584686
 20
-145.000595
  0
VERTEX
  8
0
 10
239.012711
 20
-129.516937
  0
VERTEX
  8
0
 10
240.733078
 20
-114.355728
  0
VERTEX
  8
0
 10
242.731064
 20
-99.646324
  0
VERTEX
  8
0
 10
244.989655
 20
-85.514236
  0
VERTEX
  8
0
 10
247.489578
 20
-72.079971
  0
VERTEX
  8
0
 10
250.209503
 20
-59.458145
  0
VERTEX
  8
0
 10
253.126221
 20
-47.756516
  0
VERTEX
  8
0
 10
256.214844
 20
-37.074898
  0
VERTEX
  8
0
 10
259.449036
 20
-27.504356
  0
VERTEX
  8
0
 10
262.801178
 20
-19.126585
  0
VERTEX
  8
0
 10
266.242706
 20
-12.013107
  0
VERTEX
  8
0
 10
269.744202
 20
-6.224564
  0
VERTEX
  8
0
 10
273.275848
 20
-1.810360
  0
VERTEX
  8
0
 10
275.000000
 20
0.000000
  0
SEQEND
  0
POLYLINE
  8
0
 66
1
 70
    0
  0
VERTEX
  8
0
 10
235.000000
 20
-210.000000
  0
VERTEX
  8
0
 10
235.000000
 20
-207.500000
  0
VERTEX
  8
0
 10
234.836716
 20
-192.058105
  0
VERTEX
  8
0
 10
234.348282
 20
-176.405106
  0
VERTEX
  8
0
 10
233.538849
 20
-160.674530
  0
VERTEX
  8
0
 10
232.415314
 20
-145.000595
  0
VERTEX
  8
0
 10
230.987289
 20
-129.516937
  0
VERTEX
  8
0
 10
229.266922
 20
-114.355728
  0
VERTEX
  8
0
 10
227.268936
 20
-99.646324
  0
VERTEX
  8
0
 10
225.010345
 20
-85.514236
  0
VERTEX
  8
0
 10
222.510422
 20
-72.079971
  0
VERTEX
  8
0
 10
219.790497
 20
-59.458145
  0
VERTEX
  8
0
 10
216.873779
 20
-47.756516
  0
VERTEX
  8
0
 10
213.785156
 20
-37.074898
  0
VERTEX
  8
0
 10
210.550964
 20
-27.504356
  0
VERTEX
  8
0
 10
207.198822
 20
-19.126585
  0
VERTEX
  8
0
 10
203.757294
 20
-12.013107
  0
VERTEX
  8
0
 10
200.255798
 20
-6.224564
  0
VERTEX
  8
0
 10
196.724152
 20
-1.810360
  0
VERTEX
  8
0
 10
195.000000
 20
0.000000
  0
SEQEND
  0
LINE
  8
0
 10
0.000000
 20
0.000000
 11
100.000000
 21
0.000000
  0
LINE
  8
0
 10
0.000000
 20
0.000000
 11
100.000000
 21
0.000000
  0
LINE
  8
0
 10
0.000000
 20
0.000000
 11
100.000000
 21
0.000000
  0
LINE
  8
0
 10
0.000000
 20
0.000000
 11
100.000000
 21
0.000000
  0
LINE
  8
0
 10
0.000000
 20
0.000000
 11
100.000000
 21
0.000000
  0
LINE
  8
0
 10
0.000000
 20
0.000000
 11
100.000000
 21
0.000000
  0
POLYLINE
  8
0
 66
1
 70
    0
  0
VERTEX
  8
0
 10
0.000000
 20
-4.000000
  0
VERTEX
  8
0
 10
2.500000
 20
-4.000000
  0
VERTEX
  8
0
 10
4.428621
 20
-3.997077
  0
VERTEX
  8
0
 10
6.735460
 20
-3.988332
  0
VERTEX
  8
0
 10
9.400830
 20
-3.973840
  0
VERTEX
  8
0
 10
12.402000
 20
-3.953724
  0
VERTEX
  8
0
 10
15.713377
 20
-3.928157
  0
VERTEX
  8
0
 10
19.306692
 20
-3.897356
  0
VERTEX
  8
0
 10
23.151293
 20
-3.861583
  0
VERTEX
  8
0
 10
27.214371
 20
-3.821146
  0
VERTEX
  8
0
 10
31.461279
 20
-3.776387
  0
VERTEX
  8
0
 10
35.855782
 20
-3.727690
  0
VERTEX
  8
0
 10
40.360363
 20
-3.675469
  0
VERTEX
  8
0
 10
44.936607
 20
-3.620171
  0
VERTEX
  8
0
 10
49.545502
 20
-3.562266
  0
VERTEX
  8
0
 10
54.147682
 20
-3.502249
  0
VERTEX
  8
0
 10
58.703884
 20
-3.440632
  0
VERTEX
  8
0
 10
63.175247
 20
-3.377942
  0
VERTEX
  8
0
 10
67.523613
 20
-3.314712
  0
VERTEX
  8
0
 10
70.023346
 20
-3.277681
  0
SEQEND
  0
POLYLINE
  8
0
 66
1
 70
    0
  0
VERTEX
  8
0
 10
115.048553
 20
-3.277681
  0
VERTEX
  8
0
 10
117.548279
 20
-3.240650
  0
VERTEX
  8
0
 10
119.573845
 20
-3.210050
  0
VERTEX
  8
0
 10
121.698853
 20
-3.176794
  0
VERTEX
  8
0
 10
123.905197
 20
-3.141165
  0
VERTEX
  8
0
 10
126.174034
 20
-3.103467
  0
VERTEX
  8
0
 10
128.486023
 20
-3.064023
  0
VERTEX
  8
0
 10
130.821426
 20
-3.023169
  0
VERTEX
  8
0
 10
133.160309
 20
-2.981252
  0
VERTEX
  8
0
 10
135.482742
 20
-2.938632
  0
VERTEX
  8
0
 10
137.768890
 20
-2.895671
  0
VERTEX
  8
0
 10
139.999283
 20
-2.852735
  0
VERTEX
  8
0
 10
142.154846
 20
-2.810193
  0
VERTEX
  8
0
 10
144.217224
 20
-2.768405
  0
VERTEX
  8
0
 10
146.168793
 20
-2.727729
  0
VERTEX
  8
0
 10
147.992935
 20
-2.688512
  0
VERTEX
  8
0
 10
149.674042
 20
-2.651088
  0
VERTEX
  8
0
 10
151.197830
 20
-2.615777
  0
VERTEX
  8
0
 10
152.551239
 20
-2.582880
  0
VERTEX
  8
0
 10
155.050461
 20
-2.520424
  0
SEQEND
  0
POLYLINE
  8
0
 66
1
 70
    0
  0
VERTEX
  8
0
 10
155.050461
 20
-2.520424
  0
VERTEX
  8
0
 10
157.549683
 20
-2.457967
  0
VERTEX
  8
0
 10
160.448502
 20
-2.380329
  0
VERTEX
  8
0
 10
163.365372
 20
-2.291897
  0
VERTEX
  8
0
 10
166.275360
 20
-2.193424
  0
VERTEX
  8
0
 10
169.153656
 20
-2.085752
  0
VERTEX
  8
0
 10
171.975739
 20
-1.969798
  0
VERTEX
  8
0
 10
174.717468
 20
-1.846551
  0
VERTEX
  8
0
 10
177.355499
 20
-1.717064
  0
VERTEX
  8
0
 10
179.867325
 20
-1.582441
  0
VERTEX
  8
0
 10
182.231491
 20
-1.443830
  0
VERTEX
  8
0
 10
184.427856
 20
-1.302414
  0
VERTEX
  8
0
 10
186.437637
 20
-1.159401
  0
VERTEX
  8
0
 10
188.243729
 20
-1.016009
  0
VERTEX
  8
0
 10
189.830704
 20
-0.873462
  0
VERTEX
  8
0
 10
191.185043
 20
-0.732976
  0
VERTEX
  8
0
 10
192.295166
 20
-0.595750
  0
VERTEX
  8
0
 10
193.151611
 20
-0.462955
  0
VERTEX
  8
0
 10
193.747055
 20
-0.335724
  0
VERTEX
  8
0
 10
195.000000
 20
0.000000
  0
SEQEND
  0
LINE
  8
0
 10
0.000000
 20
0.000000
 11
100.000000
 21
0.000000
  0
POLYLINE
  8
0
 66
1
 70
    0
  0
VERTEX
  8
0
 10
470.000000
 20
-24.000000
  0
VERTEX
  8
0
 10
467.500000
 20
-24.000000
  0
VERTEX
  8
0
 10
462.380493
 20
-23.945789
  0
VERTEX
  8
0
 10
456.689087
 20
-23.783630
  0
VERTEX
  8
0
 10
450.474335
 20
-23.514900
  0
VERTEX
  8
0
 10
443.789246
 20
-23.141891
  0
VERTEX
  8
0
 10
436.690826
 20
-22.667788
  0
VERTEX
  8
0
 10
429.239685
 20
-22.096634
  0
VERTEX
  8
0
 10
421.499359
 20
-21.433302
  0
VERTEX
  8
0
 10
413.535919
 20
-20.683456
  0
VERTEX
  8
0
 10
405.417267
 20
-19.853487
  0
VERTEX
  8
0
 10
397.212646
 20
-18.950478
  0
VERTEX
  8
0
 10
388.992157
 20
-17.982136
  0
VERTEX
  8
0
 10
380.825836
 20
-16.956722
  0
VERTEX
  8
0
 10
372.783386
 20
-15.882978
  0
VERTEX
  8
0
 10
364.933411
 20
-14.770069
  0
VERTEX
  8
0
 10
357.342957
 20
-13.627496
  0
VERTEX
  8
0
 10
350.076721
 20
-12.465002
  0
VERTEX
  8
0
 10
343.196686
 20
-11.292505
  0
VERTEX
  8
0
 10
340.734589
 20
-10.858891
  0
SEQEND
  0
POLYLINE
  8
0
 66
1
 70
    0
  0
VERTEX
  8
0
 10
325.932098
 20
-10.858891
  0
VERTEX
  8
0
 10
323.470001
 20
-10.425278
  0
VERTEX
  8
0
 10
320.818115
 20
-9.951129
  0
VERTEX
  8
0
 10
318.033966
 20
-9.439528
  0
VERTEX
  8
0
 10
315.141357
 20
-8.894833
  0
VERTEX
  8
0
 10
312.164917
 20
-8.321698
  0
VERTEX
  8
0
 10
309.130005
 20
-7.725006
  0
VERTEX
  8
0
 10
306.062592
 20
-7.109853
  0
VERTEX
  8
0
 10
302.988770
 20
-6.481483
  0
VERTEX
  8
0
 10
299.934875
 20
-5.845263
  0
VERTEX
  8
0
 10
296.926849
 20
-5.206616
  0
VERTEX
  8
0
 10
293.990417
 20
-4.570990
  0
VERTEX
  8
0
 10
291.150635
 20
-3.943812
  0
VERTEX
  8
0
 10
288.431671
 20
-3.330432
  0
VERTEX
  8
0
 10
285.856750
 20
-2.736079
  0
VERTEX
  8
0
 10
283.447906
 20
-2.165827
  0
VERTEX
  8
0
 10
281.225586
 20
-1.624543
  0
VERTEX
  8
0
 10
279.208832
 20
-1.116843
  0
VERTEX
  8
0
 10
277.414825
 20
-0.647060
  0
VERTEX
  8
0
 10
275.000000
 20
0.000000
  0
SEQEND
  0
LINE
  8
0
 10
0.000000
 20
0.000000
 11
100.000000
 21
0.000000
  0
LINE
  8
0
 10
0.000000
 20
0.000000
 11
100.000000
 21
0.000000
  0
LINE
  8
0
 10
0.000000
 20
0.000000
 11
100.000000
 21
0.000000
  0
ENDSEC
  0
EOF
