  0
SECTION
  2
HEADER
  9
$ACADVER
  1
AC1006
  9
$CLAYER
  8
1
  0
ENDSEC
  0
SECTION
  2
TABLES
  0
TABLE
  2
LTYPE
 70
1
  0
LTYPE
  2
CONTINUOUS
 70
0
  3
SOLIDLINE
 72
65
 73
0
 40
0.000000
  0
ENDTAB
  0
TABLE
  2
LAYER
 70
14
  0
LAYER
  2
1
 70
0
 62
7
  6
CONTINUOUS
  0
LAYER
  2
2
 70
0
 62
1
  6
CONTINUOUS
  0
LAYER
  2
3
 70
0
 62
2
  6
CONTINUOUS
  0
LAYER
  2
4
 70
0
 62
3
  6
CONTINUOUS
  0
LAYER
  2
5
 70
0
 62
5
  6
CONTINUOUS
  0
LAYER
  2
6
 70
0
 62
5
  6
CONTINUOUS
  0
LAYER
  2
7
 70
0
 62
5
  6
CONTINUOUS
  0
LAYER
  2
8
 70
0
 62
4
  6
CONTINUOUS
  0
LAYER
  2
9
 70
0
 62
5
  6
CONTINUOUS
  0
LAYER
  2
10
 70
0
 62
5
  6
CONTINUOUS
  0
LAYER
  2
11
 70
0
 62
4
  6
CONTINUOUS
  0
LAYER
  2
12
 70
0
 62
6
  6
CONTINUOUS
  0
LAYER
  2
13
 70
0
 62
4
  6
CONTINUOUS
  0
LAYER
  2
14
 70
0
 62
7
  6
CONTINUOUS
  0
ENDTAB
  0
TABLE
  2
STYLE
 70
1
  0
STYLE
  2
0
 70
0
 40
0.000000
 41
1.000000
 50
0.000000
 71
0
 42
1.000000
  3

  4

  0
ENDTAB
  0
ENDSEC
  0
SECTION
  2
BLOCKS
  0
ENDSEC
  0
SECTION
  2
ENTITIES
  0
POINT
  8
0
 10
650.000000
 20
0.000000
  0
POINT
  8
0
 10
715.000000
 20
-599.000000
  0
POINT
  8
0
 10
89.263123
 20
-112.015625
  0
POINT
  8
0
 10
106.759216
 20
-111.173340
  0
POINT
  8
0
 10
178.763153
 20
-106.019043
  0
POINT
  8
0
 10
178.763153
 20
-106.019043
  0
POINT
  8
0
 10
0.000000
 20
0.000000
  0
POINT
  8
0
 10
0.000000
 20
0.000000
  0
POINT
  8
0
 10
0.000000
 20
0.000000
  0
POINT
  8
0
 10
435.215546
 20
-117.765137
  0
POINT
  8
0
 10
0.000000
 20
0.000000
  0
POINT
  8
0
 10
360.375488
 20
-108.248047
  0
POINT
  8
0
 10
0.000000
 20
0.000000
  0
POINT
  8
0
 10
341.780487
 20
-105.171188
  0
POINT
  8
0
 10
207.811325
 20
-102.928703
  0
POLYLINE
  8
0
 66
1
 70
    0
  0
VERTEX
  8
0
 10
89.263123
 20
-112.015579
  0
VERTEX
  8
0
 10
73.805481
 20
-112.647568
  0
VERTEX
  8
0
 10
55.546814
 20
-113.235764
  0
VERTEX
  8
0
 10
37.474060
 20
-113.659416
  0
VERTEX
  8
0
 10
19.741394
 20
-113.914902
  0
VERTEX
  8
0
 10
2.500000
 20
-114.000053
  0
VERTEX
  8
0
 10
-0.000031
 20
-114.000000
  0
SEQEND
  0
POLYLINE
  8
0
 66
1
 70
    0
  0
VERTEX
  8
0
 10
178.763123
 20
-106.018791
  0
VERTEX
  8
0
 10
178.592651
 20
-106.035843
  0
VERTEX
  8
0
 10
162.452972
 20
-107.460434
  0
VERTEX
  8
0
 10
145.587006
 20
-108.769745
  0
VERTEX
  8
0
 10
128.138641
 20
-109.952629
  0
VERTEX
  8
0
 10
110.256897
 20
-110.998962
  0
VERTEX
  8
0
 10
106.759171
 20
-111.172447
  0
SEQEND
  0
POLYLINE
  8
0
 66
1
 70
    0
  0
VERTEX
  8
0
 10
263.146484
 20
-93.306274
  0
VERTEX
  8
0
 10
260.731628
 20
-93.953339
  0
VERTEX
  8
0
 10
253.044861
 20
-95.803383
  0
VERTEX
  8
0
 10
243.858948
 20
-97.637604
  0
VERTEX
  8
0
 10
233.252274
 20
-99.440361
  0
VERTEX
  8
0
 10
221.315338
 20
-101.196259
  0
VERTEX
  8
0
 10
208.149948
 20
-102.890343
  0
VERTEX
  8
0
 10
193.868423
 20
-104.508141
  0
VERTEX
  8
0
 10
178.763123
 20
-106.018791
  0
SEQEND
  0
LINE
  8
0
 10
0.000000
 20
0.000000
 11
100.000000
 21
0.000000
  0
POLYLINE
  8
0
 66
1
 70
    0
  0
VERTEX
  8
0
 10
438.333344
 20
-118.071701
  0
VERTEX
  8
0
 10
453.792145
 20
-119.499100
  0
VERTEX
  8
0
 10
470.621429
 20
-120.849609
  0
VERTEX
  8
0
 10
487.150024
 20
-121.970665
  0
VERTEX
  8
0
 10
503.236877
 20
-122.852707
  0
VERTEX
  8
0
 10
518.744629
 20
-123.488182
  0
VERTEX
  8
0
 10
533.541077
 20
-123.871704
  0
VERTEX
  8
0
 10
547.500000
 20
-123.999977
  0
VERTEX
  8
0
 10
550.000000
 20
-124.000000
  0
SEQEND
  0
POLYLINE
  8
0
 66
1
 70
    0
  0
VERTEX
  8
0
 10
360.375488
 20
-108.248009
  0
VERTEX
  8
0
 10
370.180786
 20
-109.770485
  0
VERTEX
  8
0
 10
386.351807
 20
-112.060066
  0
VERTEX
  8
0
 10
402.941010
 20
-114.195183
  0
VERTEX
  8
0
 10
419.806946
 20
-116.157623
  0
VERTEX
  8
0
 10
436.805695
 20
-117.930641
  0
VERTEX
  8
0
 10
438.333344
 20
-118.071701
  0
SEQEND
  0
POLYLINE
  8
0
 66
1
 70
    0
  0
VERTEX
  8
0
 10
286.854004
 20
-93.306396
  0
VERTEX
  8
0
 10
289.268829
 20
-93.953453
  0
VERTEX
  8
0
 10
300.238068
 20
-96.725700
  0
VERTEX
  8
0
 10
312.360168
 20
-99.474304
  0
VERTEX
  8
0
 10
325.531769
 20
-102.175812
  0
VERTEX
  8
0
 10
339.640442
 20
-104.807175
  0
VERTEX
  8
0
 10
354.565918
 20
-107.345955
  0
VERTEX
  8
0
 10
360.375488
 20
-108.248009
  0
SEQEND
  0
POLYLINE
  8
0
 66
1
 70
    0
  0
VERTEX
  8
0
 10
286.854004
 20
-93.306396
  0
VERTEX
  8
0
 10
289.268829
 20
-93.953453
  0
VERTEX
  8
0
 10
300.238068
 20
-96.725700
  0
VERTEX
  8
0
 10
312.360168
 20
-99.474304
  0
VERTEX
  8
0
 10
325.531769
 20
-102.175812
  0
VERTEX
  8
0
 10
339.640442
 20
-104.807175
  0
VERTEX
  8
0
 10
354.565918
 20
-107.345955
  0
VERTEX
  8
0
 10
370.180786
 20
-109.770485
  0
VERTEX
  8
0
 10
386.351807
 20
-112.060066
  0
VERTEX
  8
0
 10
402.941010
 20
-114.195183
  0
VERTEX
  8
0
 10
419.806946
 20
-116.157623
  0
VERTEX
  8
0
 10
436.805695
 20
-117.930641
  0
VERTEX
  8
0
 10
453.792145
 20
-119.499100
  0
VERTEX
  8
0
 10
470.621429
 20
-120.849609
  0
VERTEX
  8
0
 10
487.150024
 20
-121.970665
  0
VERTEX
  8
0
 10
503.236877
 20
-122.852707
  0
VERTEX
  8
0
 10
518.744629
 20
-123.488182
  0
VERTEX
  8
0
 10
533.541077
 20
-123.871704
  0
VERTEX
  8
0
 10
547.500000
 20
-123.999977
  0
VERTEX
  8
0
 10
550.000000
 20
-124.000000
  0
SEQEND
  0
POLYLINE
  8
0
 66
1
 70
    0
  0
VERTEX
  8
0
 10
263.146484
 20
-93.306274
  0
VERTEX
  8
0
 10
260.731628
 20
-93.953339
  0
VERTEX
  8
0
 10
253.044861
 20
-95.803383
  0
VERTEX
  8
0
 10
243.858948
 20
-97.637604
  0
VERTEX
  8
0
 10
233.252274
 20
-99.440361
  0
VERTEX
  8
0
 10
221.315338
 20
-101.196259
  0
VERTEX
  8
0
 10
208.149948
 20
-102.890343
  0
VERTEX
  8
0
 10
193.868423
 20
-104.508141
  0
VERTEX
  8
0
 10
178.592651
 20
-106.035843
  0
VERTEX
  8
0
 10
162.452972
 20
-107.460434
  0
VERTEX
  8
0
 10
145.587006
 20
-108.769745
  0
VERTEX
  8
0
 10
128.138641
 20
-109.952629
  0
VERTEX
  8
0
 10
110.256897
 20
-110.998962
  0
VERTEX
  8
0
 10
92.094223
 20
-111.899834
  0
VERTEX
  8
0
 10
73.805481
 20
-112.647568
  0
VERTEX
  8
0
 10
55.546814
 20
-113.235764
  0
VERTEX
  8
0
 10
37.474060
 20
-113.659416
  0
VERTEX
  8
0
 10
19.741394
 20
-113.914902
  0
VERTEX
  8
0
 10
2.500000
 20
-114.000053
  0
VERTEX
  8
0
 10
0.000000
 20
-114.000000
  0
SEQEND
  0
LINE
  8
0
 10
550.000000
 20
-599.000000
 11
493.787537
 21
-599.000000
  0
POINT
  8
0
 10
0.000000
 20
0.000000
  0
POINT
  8
0
 10
0.000000
 20
-19.000000
  0
POINT
  8
0
 10
0.000000
 20
-599.000000
  0
POINT
  8
0
 10
0.000000
 20
-200.000000
  0
POINT
  8
0
 10
550.000000
 20
0.000000
  0
POINT
  8
0
 10
550.000000
 20
-200.000000
  0
POINT
  8
0
 10
550.000000
 20
-599.000000
  0
POINT
  8
0
 10
550.000000
 20
-24.000000
  0
POINT
  8
0
 10
0.000000
 20
-14.000000
  0
POINT
  8
0
 10
275.000000
 20
0.000000
  0
POINT
  8
0
 10
325.000000
 20
0.000000
  0
POINT
  8
0
 10
0.000000
 20
0.000000
  0
POINT
  8
0
 10
0.000000
 20
0.000000
  0
POINT
  8
0
 10
225.000000
 20
0.000000
  0
POINT
  8
0
 10
275.000000
 20
-599.000000
  0
POINT
  8
0
 10
275.000000
 20
-200.000000
  0
POINT
  8
0
 10
0.000000
 20
0.000000
  0
POINT
  8
0
 10
0.000000
 20
0.000000
  0
POINT
  8
0
 10
75.000000
 20
0.000000
  0
POINT
  8
0
 10
120.000000
 20
0.000000
  0
POINT
  8
0
 10
97.500000
 20
0.000000
  0
POINT
  8
0
 10
75.328735
 20
-11.019610
  0
POINT
  8
0
 10
120.577347
 20
-11.019610
  0
POINT
  8
0
 10
97.953041
 20
-12.061694
  0
POINT
  8
0
 10
97.953041
 20
-599.000000
  0
POINT
  8
0
 10
97.953125
 20
-200.000000
  0
POINT
  8
0
 10
97.953125
 20
-175.000000
  0
POINT
  8
0
 10
438.333344
 20
-18.201172
  0
POINT
  8
0
 10
430.871582
 20
-17.445887
  0
POINT
  8
0
 10
438.333344
 20
-88.201172
  0
POINT
  8
0
 10
445.795105
 20
-17.445887
  0
POINT
  8
0
 10
262.792877
 20
-91.671272
  0
POINT
  8
0
 10
180.372986
 20
-133.335648
  0
POINT
  8
0
 10
0.000000
 20
0.000000
  0
POINT
  8
0
 10
165.458603
 20
-7.674890
  0
POINT
  8
0
 10
180.424393
 20
-6.792920
  0
POINT
  8
0
 10
172.956146
 20
-7.482277
  0
POINT
  8
0
 10
0.000000
 20
0.000000
  0
POINT
  8
0
 10
0.000000
 20
0.000000
  0
POINT
  8
0
 10
0.000000
 20
0.000000
  0
POINT
  8
0
 10
0.000000
 20
0.000000
  0
POINT
  8
0
 10
177.074265
 20
-77.361031
  0
POINT
  8
0
 10
292.741699
 20
-70.000000
  0
POINT
  8
0
 10
365.537537
 20
-79.100586
  0
POINT
  8
0
 10
377.660278
 20
-10.649885
  0
POINT
  8
0
 10
385.077026
 20
-11.763052
  0
POINT
  8
0
 10
370.312347
 20
-9.148199
  0
POINT
  8
0
 10
365.453125
 20
-79.577286
  0
POINT
  8
0
 10
286.854004
 20
-93.306396
  0
POINT
  8
0
 10
550.000000
 20
-124.000000
  0
POINT
  8
0
 10
263.146484
 20
-93.306274
  0
POINT
  8
0
 10
0.000000
 20
-114.000000
  0
POINT
  8
0
 10
275.000000
 20
-300.000000
  0
POINT
  8
0
 10
290.000000
 20
-300.000000
  0
POINT
  8
0
 10
290.000000
 20
-599.000000
  0
POINT
  8
0
 10
260.000000
 20
-300.000000
  0
POINT
  8
0
 10
260.000000
 20
-599.000000
  0
POINT
  8
0
 10
0.000000
 20
0.000000
  0
POINT
  8
0
 10
0.000000
 20
0.000000
  0
LINE
  8
0
 10
0.000000
 20
0.000000
 11
0.000000
 21
-599.000000
  0
LINE
  8
0
 10
0.000000
 20
-599.000000
 11
550.000000
 21
-599.000000
  0
LINE
  8
0
 10
550.000000
 20
-599.000000
 11
550.000000
 21
0.000000
  0
LINE
  8
0
 10
550.000000
 20
0.000000
 11
0.000000
 21
0.000000
  0
LINE
  8
0
 10
0.000000
 20
-200.000000
 11
550.000000
 21
-200.000000
  0
LINE
  8
0
 10
275.000000
 20
-599.000000
 11
275.000000
 21
0.000000
  0
LINE
  8
0
 10
97.953041
 20
-12.061694
 11
97.953041
 21
-599.000000
  0
LINE
  8
0
 10
97.953125
 20
-175.000000
 11
120.577347
 21
-11.019610
  0
LINE
  8
0
 10
97.952957
 20
-175.000000
 11
75.328735
 21
-11.019610
  0
LINE
  8
0
 10
438.333344
 20
-599.000000
 11
438.333344
 21
-18.201172
  0
LINE
  8
0
 10
438.333344
 20
-88.201172
 11
430.871582
 21
-17.445887
  0
LINE
  8
0
 10
438.333344
 20
-88.201172
 11
445.795105
 21
-17.445887
  0
LINE
  8
0
 10
97.953125
 20
-175.000000
 11
262.792877
 21
-91.671272
  0
LINE
  8
0
 10
172.956146
 20
-7.482277
 11
180.372986
 21
-133.335648
  0
LINE
  8
0
 10
0.000000
 20
0.000000
 11
100.000000
 21
0.000000
  0
LINE
  8
0
 10
0.000000
 20
0.000000
 11
100.000000
 21
0.000000
  0
LINE
  8
0
 10
0.000000
 20
0.000000
 11
100.000000
 21
0.000000
  0
LINE
  8
0
 10
180.424393
 20
-6.792920
 11
177.074265
 21
-77.361031
  0
LINE
  8
0
 10
165.458603
 20
-7.674890
 11
177.074265
 21
-77.361031
  0
LINE
  8
0
 10
438.333344
 20
-88.201172
 11
292.741699
 21
-70.000000
  0
LINE
  8
0
 10
377.660278
 20
-10.649885
 11
365.537537
 21
-79.100586
  0
LINE
  8
0
 10
370.312347
 20
-9.148199
 11
365.453125
 21
-79.577286
  0
POLYLINE
  8
0
 66
1
 70
    0
  0
VERTEX
  8
0
 10
275.000000
 20
-200.000000
  0
VERTEX
  8
0
 10
275.000000
 20
-197.500000
  0
VERTEX
  8
0
 10
275.204956
 20
-182.803741
  0
VERTEX
  8
0
 10
275.818115
 20
-167.904953
  0
VERTEX
  8
0
 10
276.834198
 20
-152.930679
  0
VERTEX
  8
0
 10
278.244568
 20
-138.008774
  0
VERTEX
  8
0
 10
280.037170
 20
-123.266457
  0
VERTEX
  8
0
 10
282.196747
 20
-108.829514
  0
VERTEX
  8
0
 10
284.704834
 20
-94.821152
  0
VERTEX
  8
0
 10
287.540039
 20
-81.360901
  0
VERTEX
  8
0
 10
290.678223
 20
-68.563522
  0
VERTEX
  8
0
 10
294.092560
 20
-56.538216
  0
VERTEX
  8
0
 10
297.753906
 20
-45.387657
  0
VERTEX
  8
0
 10
301.631073
 20
-35.206924
  0
VERTEX
  8
0
 10
305.690948
 20
-26.082850
  0
VERTEX
  8
0
 10
309.898926
 20
-18.093300
  0
VERTEX
  8
0
 10
314.219086
 20
-11.306467
  0
VERTEX
  8
0
 10
318.614532
 20
-5.780239
  0
VERTEX
  8
0
 10
323.047821
 20
-1.561752
  0
VERTEX
  8
0
 10
325.000000
 20
0.000000
  0
SEQEND
  0
POLYLINE
  8
0
 66
1
 70
    0
  0
VERTEX
  8
0
 10
275.000000
 20
-200.000000
  0
VERTEX
  8
0
 10
275.000000
 20
-197.500000
  0
VERTEX
  8
0
 10
274.795044
 20
-182.803741
  0
VERTEX
  8
0
 10
274.181885
 20
-167.904953
  0
VERTEX
  8
0
 10
273.165802
 20
-152.930679
  0
VERTEX
  8
0
 10
271.755432
 20
-138.008774
  0
VERTEX
  8
0
 10
269.962830
 20
-123.266457
  0
VERTEX
  8
0
 10
267.803253
 20
-108.829514
  0
VERTEX
  8
0
 10
265.295166
 20
-94.821152
  0
VERTEX
  8
0
 10
262.459961
 20
-81.360901
  0
VERTEX
  8
0
 10
259.321777
 20
-68.563522
  0
VERTEX
  8
0
 10
255.907440
 20
-56.538216
  0
VERTEX
  8
0
 10
252.246094
 20
-45.387657
  0
VERTEX
  8
0
 10
248.368927
 20
-35.206924
  0
VERTEX
  8
0
 10
244.309052
 20
-26.082850
  0
VERTEX
  8
0
 10
240.101074
 20
-18.093300
  0
VERTEX
  8
0
 10
235.780914
 20
-11.306467
  0
VERTEX
  8
0
 10
231.385468
 20
-5.780239
  0
VERTEX
  8
0
 10
226.952179
 20
-1.561752
  0
VERTEX
  8
0
 10
225.000000
 20
0.000000
  0
SEQEND
  0
LINE
  8
0
 10
385.077026
 20
-11.763052
 11
365.453125
 21
-79.577286
  0
LINE
  8
0
 10
275.000000
 20
-200.000000
 11
260.000000
 21
-300.000000
  0
LINE
  8
0
 10
275.000000
 20
-200.000000
 11
290.000000
 21
-300.000000
  0
LINE
  8
0
 10
0.000000
 20
-300.000000
 11
550.000000
 21
-300.000000
  0
LINE
  8
0
 10
290.000000
 20
-599.000000
 11
290.000000
 21
-300.000000
  0
LINE
  8
0
 10
260.000000
 20
-599.000000
 11
260.000000
 21
-300.000000
  0
POLYLINE
  8
0
 66
1
 70
    0
  0
VERTEX
  8
0
 10
0.000000
 20
-14.000000
  0
VERTEX
  8
0
 10
2.500000
 20
-14.000000
  0
VERTEX
  8
0
 10
4.203139
 20
-13.987844
  0
VERTEX
  8
0
 10
6.355755
 20
-13.951480
  0
VERTEX
  8
0
 10
8.939495
 20
-13.891219
  0
VERTEX
  8
0
 10
11.932318
 20
-13.807573
  0
VERTEX
  8
0
 10
15.308693
 20
-13.701259
  0
VERTEX
  8
0
 10
19.039814
 20
-13.573181
  0
VERTEX
  8
0
 10
23.093847
 20
-13.424432
  0
VERTEX
  8
0
 10
27.436186
 20
-13.256284
  0
VERTEX
  8
0
 10
32.029812
 20
-13.070168
  0
VERTEX
  8
0
 10
36.835526
 20
-12.867673
  0
VERTEX
  8
0
 10
41.812309
 20
-12.650528
  0
VERTEX
  8
0
 10
46.917709
 20
-12.420585
  0
VERTEX
  8
0
 10
52.108208
 20
-12.179803
  0
VERTEX
  8
0
 10
57.339485
 20
-11.930239
  0
VERTEX
  8
0
 10
62.566879
 20
-11.674024
  0
VERTEX
  8
0
 10
67.745834
 20
-11.413341
  0
VERTEX
  8
0
 10
72.832161
 20
-11.150414
  0
VERTEX
  8
0
 10
75.328735
 20
-11.019610
  0
SEQEND
  0
POLYLINE
  8
0
 66
1
 70
    0
  0
VERTEX
  8
0
 10
120.577347
 20
-11.019610
  0
VERTEX
  8
0
 10
123.073929
 20
-10.888806
  0
VERTEX
  8
0
 10
124.784012
 20
-10.795395
  0
VERTEX
  8
0
 10
126.670601
 20
-10.685144
  0
VERTEX
  8
0
 10
128.717575
 20
-10.558992
  0
VERTEX
  8
0
 10
130.907486
 20
-10.418017
  0
VERTEX
  8
0
 10
133.221649
 20
-10.263422
  0
VERTEX
  8
0
 10
135.640305
 20
-10.096522
  0
VERTEX
  8
0
 10
138.142838
 20
-9.918746
  0
VERTEX
  8
0
 10
140.707886
 20
-9.731606
  0
VERTEX
  8
0
 10
143.313583
 20
-9.536704
  0
VERTEX
  8
0
 10
145.937683
 20
-9.335698
  0
VERTEX
  8
0
 10
148.557800
 20
-9.130305
  0
VERTEX
  8
0
 10
151.151566
 20
-8.922277
  0
VERTEX
  8
0
 10
153.696884
 20
-8.713390
  0
VERTEX
  8
0
 10
156.172012
 20
-8.505424
  0
VERTEX
  8
0
 10
158.555832
 20
-8.300156
  0
VERTEX
  8
0
 10
160.828033
 20
-8.099335
  0
VERTEX
  8
0
 10
162.969193
 20
-7.904675
  0
VERTEX
  8
0
 10
165.458603
 20
-7.674890
  0
SEQEND
  0
POLYLINE
  8
0
 66
1
 70
    0
  0
VERTEX
  8
0
 10
180.424393
 20
-6.792920
  0
VERTEX
  8
0
 10
182.913803
 20
-6.563136
  0
VERTEX
  8
0
 10
185.444794
 20
-6.319899
  0
VERTEX
  8
0
 10
188.063675
 20
-6.049398
  0
VERTEX
  8
0
 10
190.748123
 20
-5.753940
  0
VERTEX
  8
0
 10
193.475220
 20
-5.436048
  0
VERTEX
  8
0
 10
196.221710
 20
-5.098432
  0
VERTEX
  8
0
 10
198.964172
 20
-4.743971
  0
VERTEX
  8
0
 10
201.679169
 20
-4.375693
  0
VERTEX
  8
0
 10
204.343552
 20
-3.996739
  0
VERTEX
  8
0
 10
206.934631
 20
-3.610340
  0
VERTEX
  8
0
 10
209.430267
 20
-3.219792
  0
VERTEX
  8
0
 10
211.809158
 20
-2.828432
  0
VERTEX
  8
0
 10
214.051010
 20
-2.439595
  0
VERTEX
  8
0
 10
216.136734
 20
-2.056597
  0
VERTEX
  8
0
 10
218.048492
 20
-1.682709
  0
VERTEX
  8
0
 10
219.769989
 20
-1.321121
  0
VERTEX
  8
0
 10
221.286530
 20
-0.974916
  0
VERTEX
  8
0
 10
222.585190
 20
-0.647049
  0
VERTEX
  8
0
 10
225.000000
 20
0.000000
  0
SEQEND
  0
LINE
  8
0
 10
0.000000
 20
0.000000
 11
100.000000
 21
0.000000
  0
POLYLINE
  8
0
 66
1
 70
    0
  0
VERTEX
  8
0
 10
550.000000
 20
-24.000000
  0
VERTEX
  8
0
 10
547.500000
 20
-24.000000
  0
VERTEX
  8
0
 10
543.562195
 20
-23.973166
  0
VERTEX
  8
0
 10
539.152161
 20
-23.892895
  0
VERTEX
  8
0
 10
534.307617
 20
-23.759871
  0
VERTEX
  8
0
 10
529.069824
 20
-23.575230
  0
VERTEX
  8
0
 10
523.483582
 20
-23.340544
  0
VERTEX
  8
0
 10
517.596375
 20
-23.057817
  0
VERTEX
  8
0
 10
511.458618
 20
-22.729462
  0
VERTEX
  8
0
 10
505.122498
 20
-22.358282
  0
VERTEX
  8
0
 10
498.642212
 20
-21.947441
  0
VERTEX
  8
0
 10
492.072937
 20
-21.500443
  0
VERTEX
  8
0
 10
485.470825
 20
-21.021105
  0
VERTEX
  8
0
 10
478.892151
 20
-20.513515
  0
VERTEX
  8
0
 10
472.393036
 20
-19.982004
  0
VERTEX
  8
0
 10
466.028900
 20
-19.431103
  0
VERTEX
  8
0
 10
459.854126
 20
-18.865520
  0
VERTEX
  8
0
 10
453.921356
 20
-18.290075
  0
VERTEX
  8
0
 10
448.281158
 20
-17.709679
  0
VERTEX
  8
0
 10
445.795105
 20
-17.445887
  0
SEQEND
  0
POLYLINE
  8
0
 66
1
 70
    0
  0
VERTEX
  8
0
 10
430.871582
 20
-17.445887
  0
VERTEX
  8
0
 10
428.385529
 20
-17.182095
  0
VERTEX
  8
0
 10
425.742065
 20
-16.898655
  0
VERTEX
  8
0
 10
423.012115
 20
-16.600172
  0
VERTEX
  8
0
 10
420.218964
 20
-16.289196
  0
VERTEX
  8
0
 10
417.386444
 20
-15.968378
  0
VERTEX
  8
0
 10
414.538727
 20
-15.640454
  0
VERTEX
  8
0
 10
411.700073
 20
-15.308224
  0
VERTEX
  8
0
 10
408.894745
 20
-14.974520
  0
VERTEX
  8
0
 10
406.146698
 20
-14.642191
  0
VERTEX
  8
0
 10
403.479279
 20
-14.314070
  0
VERTEX
  8
0
 10
400.915344
 20
-13.992959
  0
VERTEX
  8
0
 10
398.476746
 20
-13.681598
  0
VERTEX
  8
0
 10
396.184235
 20
-13.382641
  0
VERTEX
  8
0
 10
394.057434
 20
-13.098639
  0
VERTEX
  8
0
 10
392.114441
 20
-12.832016
  0
VERTEX
  8
0
 10
390.371887
 20
-12.585047
  0
VERTEX
  8
0
 10
388.844574
 20
-12.359839
  0
VERTEX
  8
0
 10
387.545593
 20
-12.158312
  0
VERTEX
  8
0
 10
385.077026
 20
-11.763052
  0
SEQEND
  0
POLYLINE
  8
0
 66
1
 70
    0
  0
VERTEX
  8
0
 10
370.312347
 20
-9.148199
  0
VERTEX
  8
0
 10
367.843781
 20
-8.752941
  0
VERTEX
  8
0
 10
365.445679
 20
-8.362000
  0
VERTEX
  8
0
 10
362.938904
 20
-7.939788
  0
VERTEX
  8
0
 10
360.344788
 20
-7.489905
  0
VERTEX
  8
0
 10
357.685516
 20
-7.016191
  0
VERTEX
  8
0
 10
354.983765
 20
-6.522684
  0
VERTEX
  8
0
 10
352.262543
 20
-6.013597
  0
VERTEX
  8
0
 10
349.545135
 20
-5.493273
  0
VERTEX
  8
0
 10
346.854675
 20
-4.966153
  0
VERTEX
  8
0
 10
344.214142
 20
-4.436732
  0
VERTEX
  8
0
 10
341.645996
 20
-3.909526
  0
VERTEX
  8
0
 10
339.172272
 20
-3.389035
  0
VERTEX
  8
0
 10
336.813965
 20
-2.879700
  0
VERTEX
  8
0
 10
334.591278
 20
-2.385863
  0
VERTEX
  8
0
 10
332.523102
 20
-1.911740
  0
VERTEX
  8
0
 10
330.627136
 20
-1.461377
  0
VERTEX
  8
0
 10
328.919495
 20
-1.038616
  0
VERTEX
  8
0
 10
327.414825
 20
-0.647063
  0
VERTEX
  8
0
 10
325.000000
 20
0.000000
  0
SEQEND
  0
LINE
  8
0
 10
0.000000
 20
0.000000
 11
100.000000
 21
0.000000
  0
LINE
  8
0
 10
0.000000
 20
0.000000
 11
100.000000
 21
0.000000
  0
ENDSEC
  0
EOF
