  0
SECTION
  2
HEADER
  9
$ACADVER
  1
AC1006
  9
$CLAYER
  8
1
  0
ENDSEC
  0
SECTION
  2
TABLES
  0
TABLE
  2
LTYPE
 70
1
  0
LTYPE
  2
CONTINUOUS
 70
0
  3
SOLIDLINE
 72
65
 73
0
 40
0.000000
  0
ENDTAB
  0
TABLE
  2
LAYER
 70
14
  0
LAYER
  2
1
 70
0
 62
7
  6
CONTINUOUS
  0
LAYER
  2
2
 70
0
 62
1
  6
CONTINUOUS
  0
LAYER
  2
3
 70
0
 62
2
  6
CONTINUOUS
  0
LAYER
  2
4
 70
0
 62
3
  6
CONTINUOUS
  0
LAYER
  2
5
 70
0
 62
5
  6
CONTINUOUS
  0
LAYER
  2
6
 70
0
 62
5
  6
CONTINUOUS
  0
LAYER
  2
7
 70
0
 62
5
  6
CONTINUOUS
  0
LAYER
  2
8
 70
0
 62
4
  6
CONTINUOUS
  0
LAYER
  2
9
 70
0
 62
5
  6
CONTINUOUS
  0
LAYER
  2
10
 70
0
 62
5
  6
CONTINUOUS
  0
LAYER
  2
11
 70
0
 62
4
  6
CONTINUOUS
  0
LAYER
  2
12
 70
0
 62
6
  6
CONTINUOUS
  0
LAYER
  2
13
 70
0
 62
4
  6
CONTINUOUS
  0
LAYER
  2
14
 70
0
 62
7
  6
CONTINUOUS
  0
ENDTAB
  0
TABLE
  2
STYLE
 70
1
  0
STYLE
  2
0
 70
0
 40
0.000000
 41
1.000000
 50
0.000000
 71
0
 42
1.000000
  3

  4

  0
ENDTAB
  0
ENDSEC
  0
SECTION
  2
BLOCKS
  0
ENDSEC
  0
SECTION
  2
ENTITIES
  0
POINT
  8
0
 10
590.000000
 20
0.000000
  0
POINT
  8
0
 10
680.000000
 20
-547.000000
  0
POINT
  8
0
 10
92.958069
 20
-96.802246
  0
POINT
  8
0
 10
103.728882
 20
-96.752441
  0
POINT
  8
0
 10
167.126511
 20
-96.273438
  0
POINT
  8
0
 10
167.126511
 20
-96.273438
  0
POINT
  8
0
 10
0.000000
 20
0.000000
  0
POINT
  8
0
 10
0.000000
 20
0.000000
  0
POINT
  8
0
 10
0.000000
 20
0.000000
  0
POINT
  8
0
 10
343.333344
 20
-103.702637
  0
POINT
  8
0
 10
0.000000
 20
0.000000
  0
POINT
  8
0
 10
0.000000
 20
0.000000
  0
POINT
  8
0
 10
0.000000
 20
0.000000
  0
POINT
  8
0
 10
249.844070
 20
-95.291412
  0
POINT
  8
0
 10
230.099792
 20
-95.012886
  0
POLYLINE
  8
0
 66
1
 70
    0
  0
VERTEX
  8
0
 10
92.958061
 20
-96.801476
  0
VERTEX
  8
0
 10
83.473526
 20
-96.844131
  0
VERTEX
  8
0
 10
63.730774
 20
-96.911819
  0
VERTEX
  8
0
 10
43.539093
 20
-96.960609
  0
VERTEX
  8
0
 10
23.070633
 20
-96.990082
  0
VERTEX
  8
0
 10
2.500000
 20
-96.999992
  0
VERTEX
  8
0
 10
0.000000
 20
-97.000000
  0
SEQEND
  0
POLYLINE
  8
0
 66
1
 70
    0
  0
VERTEX
  8
0
 10
167.126511
 20
-96.274071
  0
VERTEX
  8
0
 10
154.672195
 20
-96.398232
  0
VERTEX
  8
0
 10
138.350510
 20
-96.534210
  0
VERTEX
  8
0
 10
120.943222
 20
-96.654518
  0
VERTEX
  8
0
 10
103.728882
 20
-96.751732
  0
SEQEND
  0
POLYLINE
  8
0
 66
1
 70
    0
  0
VERTEX
  8
0
 10
235.791992
 20
-94.119873
  0
VERTEX
  8
0
 10
233.642899
 20
-94.695717
  0
VERTEX
  8
0
 10
231.900360
 20
-94.908249
  0
VERTEX
  8
0
 10
228.274017
 20
-95.118980
  0
VERTEX
  8
0
 10
222.794815
 20
-95.326103
  0
VERTEX
  8
0
 10
215.509460
 20
-95.527855
  0
VERTEX
  8
0
 10
206.480118
 20
-95.722519
  0
VERTEX
  8
0
 10
195.783829
 20
-95.908424
  0
VERTEX
  8
0
 10
183.511841
 20
-96.083992
  0
VERTEX
  8
0
 10
169.768921
 20
-96.247726
  0
VERTEX
  8
0
 10
167.126511
 20
-96.274071
  0
SEQEND
  0
LINE
  8
0
 10
0.000000
 20
0.000000
 11
100.000000
 21
0.000000
  0
POLYLINE
  8
0
 66
1
 70
    0
  0
VERTEX
  8
0
 10
343.333344
 20
-103.702446
  0
VERTEX
  8
0
 10
344.373962
 20
-103.756142
  0
VERTEX
  8
0
 10
360.930786
 20
-104.489502
  0
VERTEX
  8
0
 10
378.171722
 20
-105.138237
  0
VERTEX
  8
0
 10
395.949707
 20
-105.696846
  0
VERTEX
  8
0
 10
414.113159
 20
-106.160545
  0
VERTEX
  8
0
 10
432.507080
 20
-106.525391
  0
VERTEX
  8
0
 10
450.974396
 20
-106.788254
  0
VERTEX
  8
0
 10
469.357635
 20
-106.946915
  0
VERTEX
  8
0
 10
487.500000
 20
-106.999992
  0
VERTEX
  8
0
 10
490.000000
 20
-107.000000
  0
SEQEND
  0
POLYLINE
  8
0
 66
1
 70
    0
  0
VERTEX
  8
0
 10
244.225006
 20
-93.925217
  0
VERTEX
  8
0
 10
246.639832
 20
-94.572266
  0
VERTEX
  8
0
 10
251.748688
 20
-95.718880
  0
VERTEX
  8
0
 10
258.473206
 20
-96.855728
  0
VERTEX
  8
0
 10
266.755981
 20
-97.973099
  0
VERTEX
  8
0
 10
276.526428
 20
-99.061455
  0
VERTEX
  8
0
 10
287.701141
 20
-100.111519
  0
VERTEX
  8
0
 10
300.184814
 20
-101.114326
  0
VERTEX
  8
0
 10
313.870880
 20
-102.061340
  0
VERTEX
  8
0
 10
328.642578
 20
-102.944450
  0
VERTEX
  8
0
 10
343.333344
 20
-103.702446
  0
SEQEND
  0
LINE
  8
0
 10
0.000000
 20
0.000000
 11
100.000000
 21
0.000000
  0
POLYLINE
  8
0
 66
1
 70
    0
  0
VERTEX
  8
0
 10
244.225006
 20
-93.925217
  0
VERTEX
  8
0
 10
246.639832
 20
-94.572266
  0
VERTEX
  8
0
 10
251.748688
 20
-95.718880
  0
VERTEX
  8
0
 10
258.473206
 20
-96.855728
  0
VERTEX
  8
0
 10
266.755981
 20
-97.973099
  0
VERTEX
  8
0
 10
276.526428
 20
-99.061455
  0
VERTEX
  8
0
 10
287.701141
 20
-100.111519
  0
VERTEX
  8
0
 10
300.184814
 20
-101.114326
  0
VERTEX
  8
0
 10
313.870880
 20
-102.061340
  0
VERTEX
  8
0
 10
328.642578
 20
-102.944450
  0
VERTEX
  8
0
 10
344.373962
 20
-103.756142
  0
VERTEX
  8
0
 10
360.930786
 20
-104.489502
  0
VERTEX
  8
0
 10
378.171722
 20
-105.138237
  0
VERTEX
  8
0
 10
395.949707
 20
-105.696846
  0
VERTEX
  8
0
 10
414.113159
 20
-106.160545
  0
VERTEX
  8
0
 10
432.507080
 20
-106.525391
  0
VERTEX
  8
0
 10
450.974396
 20
-106.788254
  0
VERTEX
  8
0
 10
469.357635
 20
-106.946915
  0
VERTEX
  8
0
 10
487.500000
 20
-106.999992
  0
VERTEX
  8
0
 10
490.000000
 20
-107.000000
  0
SEQEND
  0
POLYLINE
  8
0
 66
1
 70
    0
  0
VERTEX
  8
0
 10
235.791992
 20
-94.119873
  0
VERTEX
  8
0
 10
233.642899
 20
-94.695717
  0
VERTEX
  8
0
 10
231.900360
 20
-94.908249
  0
VERTEX
  8
0
 10
228.274017
 20
-95.118980
  0
VERTEX
  8
0
 10
222.794815
 20
-95.326103
  0
VERTEX
  8
0
 10
215.509460
 20
-95.527855
  0
VERTEX
  8
0
 10
206.480118
 20
-95.722519
  0
VERTEX
  8
0
 10
195.783829
 20
-95.908424
  0
VERTEX
  8
0
 10
183.511841
 20
-96.083992
  0
VERTEX
  8
0
 10
169.768921
 20
-96.247726
  0
VERTEX
  8
0
 10
154.672195
 20
-96.398232
  0
VERTEX
  8
0
 10
138.350510
 20
-96.534210
  0
VERTEX
  8
0
 10
120.943222
 20
-96.654518
  0
VERTEX
  8
0
 10
102.598755
 20
-96.758118
  0
VERTEX
  8
0
 10
83.473526
 20
-96.844131
  0
VERTEX
  8
0
 10
63.730774
 20
-96.911819
  0
VERTEX
  8
0
 10
43.539093
 20
-96.960609
  0
VERTEX
  8
0
 10
23.070633
 20
-96.990082
  0
VERTEX
  8
0
 10
2.500000
 20
-96.999992
  0
VERTEX
  8
0
 10
0.000000
 20
-97.000000
  0
SEQEND
  0
LINE
  8
0
 10
490.000000
 20
-547.000000
 11
484.216034
 21
-547.000000
  0
POINT
  8
0
 10
0.000000
 20
0.000000
  0
POINT
  8
0
 10
0.000000
 20
-7.000000
  0
POINT
  8
0
 10
0.000000
 20
-547.000000
  0
POINT
  8
0
 10
0.000000
 20
-190.000000
  0
POINT
  8
0
 10
490.000000
 20
0.000000
  0
POINT
  8
0
 10
490.000000
 20
-190.000000
  0
POINT
  8
0
 10
490.000000
 20
-547.000000
  0
POINT
  8
0
 10
490.000000
 20
-12.000000
  0
POINT
  8
0
 10
0.000000
 20
-2.000000
  0
POINT
  8
0
 10
240.000000
 20
0.000000
  0
POINT
  8
0
 10
260.000000
 20
0.000000
  0
POINT
  8
0
 10
0.000000
 20
0.000000
  0
POINT
  8
0
 10
0.000000
 20
0.000000
  0
POINT
  8
0
 10
220.000000
 20
0.000000
  0
POINT
  8
0
 10
240.000000
 20
-547.000000
  0
POINT
  8
0
 10
240.000000
 20
-190.000000
  0
POINT
  8
0
 10
0.000000
 20
0.000000
  0
POINT
  8
0
 10
0.000000
 20
0.000000
  0
POINT
  8
0
 10
83.333328
 20
0.000000
  0
POINT
  8
0
 10
113.333328
 20
0.000000
  0
POINT
  8
0
 10
98.333328
 20
0.000000
  0
POINT
  8
0
 10
83.341225
 20
-1.762656
  0
POINT
  8
0
 10
113.340691
 20
-1.762656
  0
POINT
  8
0
 10
98.340958
 20
-1.825336
  0
POINT
  8
0
 10
98.340958
 20
-547.000000
  0
POINT
  8
0
 10
98.340820
 20
-190.000000
  0
POINT
  8
0
 10
98.340820
 20
-150.000000
  0
POINT
  8
0
 10
343.333344
 20
-8.531738
  0
POINT
  8
0
 10
343.333344
 20
-8.531674
  0
POINT
  8
0
 10
343.333344
 20
-78.531738
  0
POINT
  8
0
 10
343.333344
 20
-8.531674
  0
POINT
  8
0
 10
236.177490
 20
-98.458336
  0
POINT
  8
0
 10
167.259155
 20
-124.229172
  0
POINT
  8
0
 10
0.000000
 20
0.000000
  0
POINT
  8
0
 10
166.676453
 20
-1.415397
  0
POINT
  8
0
 10
166.676453
 20
-1.415397
  0
POINT
  8
0
 10
166.676453
 20
-1.415397
  0
POINT
  8
0
 10
0.000000
 20
0.000000
  0
POINT
  8
0
 10
0.000000
 20
0.000000
  0
POINT
  8
0
 10
0.000000
 20
0.000000
  0
POINT
  8
0
 10
0.000000
 20
0.000000
  0
POINT
  8
0
 10
167.008575
 20
-71.414604
  0
POINT
  8
0
 10
0.000000
 20
0.000000
  0
POINT
  8
0
 10
0.000000
 20
0.000000
  0
POINT
  8
0
 10
0.000000
 20
0.000000
  0
POINT
  8
0
 10
0.000000
 20
0.000000
  0
POINT
  8
0
 10
0.000000
 20
0.000000
  0
POINT
  8
0
 10
0.000000
 20
0.000000
  0
POINT
  8
0
 10
244.225006
 20
-93.925217
  0
POINT
  8
0
 10
490.000000
 20
-107.000000
  0
POINT
  8
0
 10
235.791992
 20
-94.119873
  0
POINT
  8
0
 10
0.000000
 20
-97.000000
  0
POINT
  8
0
 10
0.000000
 20
0.000000
  0
POINT
  8
0
 10
0.000000
 20
0.000000
  0
POINT
  8
0
 10
0.000000
 20
0.000000
  0
POINT
  8
0
 10
0.000000
 20
0.000000
  0
POINT
  8
0
 10
0.000000
 20
0.000000
  0
POINT
  8
0
 10
0.000000
 20
0.000000
  0
POINT
  8
0
 10
0.000000
 20
0.000000
  0
LINE
  8
0
 10
0.000000
 20
0.000000
 11
0.000000
 21
-547.000000
  0
LINE
  8
0
 10
0.000000
 20
-547.000000
 11
490.000000
 21
-547.000000
  0
LINE
  8
0
 10
490.000000
 20
-547.000000
 11
490.000000
 21
0.000000
  0
LINE
  8
0
 10
490.000000
 20
0.000000
 11
0.000000
 21
0.000000
  0
LINE
  8
0
 10
0.000000
 20
-190.000000
 11
490.000000
 21
-190.000000
  0
LINE
  8
0
 10
240.000000
 20
-547.000000
 11
240.000000
 21
0.000000
  0
LINE
  8
0
 10
98.340958
 20
-1.825336
 11
98.340958
 21
-547.000000
  0
LINE
  8
0
 10
98.340820
 20
-150.000000
 11
113.340691
 21
-1.762656
  0
LINE
  8
0
 10
98.341095
 20
-150.000000
 11
83.341225
 21
-1.762656
  0
LINE
  8
0
 10
343.333344
 20
-547.000000
 11
343.333344
 21
-8.531738
  0
LINE
  8
0
 10
343.333344
 20
-78.531738
 11
343.333344
 21
-8.531674
  0
LINE
  8
0
 10
343.333344
 20
-78.531738
 11
343.333344
 21
-8.531674
  0
LINE
  8
0
 10
98.340820
 20
-150.000000
 11
236.177490
 21
-98.458336
  0
LINE
  8
0
 10
166.676453
 20
-1.415397
 11
167.259155
 21
-124.229172
  0
LINE
  8
0
 10
0.000000
 20
0.000000
 11
100.000000
 21
0.000000
  0
LINE
  8
0
 10
0.000000
 20
0.000000
 11
100.000000
 21
0.000000
  0
LINE
  8
0
 10
0.000000
 20
0.000000
 11
100.000000
 21
0.000000
  0
LINE
  8
0
 10
166.676453
 20
-1.415397
 11
167.008575
 21
-71.414604
  0
LINE
  8
0
 10
166.676453
 20
-1.415397
 11
167.008575
 21
-71.414604
  0
LINE
  8
0
 10
0.000000
 20
0.000000
 11
100.000000
 21
0.000000
  0
LINE
  8
0
 10
0.000000
 20
0.000000
 11
100.000000
 21
0.000000
  0
LINE
  8
0
 10
0.000000
 20
0.000000
 11
100.000000
 21
0.000000
  0
POLYLINE
  8
0
 66
1
 70
    0
  0
VERTEX
  8
0
 10
240.000000
 20
-190.000000
  0
VERTEX
  8
0
 10
240.000000
 20
-187.500000
  0
VERTEX
  8
0
 10
240.080353
 20
-173.553207
  0
VERTEX
  8
0
 10
240.320709
 20
-159.420059
  0
VERTEX
  8
0
 10
240.719040
 20
-145.221161
  0
VERTEX
  8
0
 10
241.271927
 20
-131.077713
  0
VERTEX
  8
0
 10
241.974670
 20
-117.110237
  0
VERTEX
  8
0
 10
242.821259
 20
-103.437981
  0
VERTEX
  8
0
 10
243.804474
 20
-90.177589
  0
VERTEX
  8
0
 10
244.915939
 20
-77.442230
  0
VERTEX
  8
0
 10
246.146149
 20
-65.340485
  0
VERTEX
  8
0
 10
247.484634
 20
-53.975590
  0
VERTEX
  8
0
 10
248.919952
 20
-43.444611
  0
VERTEX
  8
0
 10
250.439865
 20
-33.837330
  0
VERTEX
  8
0
 10
252.031418
 20
-25.235697
  0
VERTEX
  8
0
 10
253.681030
 20
-17.713091
  0
VERTEX
  8
0
 10
255.374603
 20
-11.333775
  0
VERTEX
  8
0
 10
257.097717
 20
-6.152100
  0
VERTEX
  8
0
 10
258.835632
 20
-2.212311
  0
VERTEX
  8
0
 10
260.000000
 20
0.000000
  0
SEQEND
  0
POLYLINE
  8
0
 66
1
 70
    0
  0
VERTEX
  8
0
 10
240.000000
 20
-190.000000
  0
VERTEX
  8
0
 10
240.000000
 20
-187.500000
  0
VERTEX
  8
0
 10
239.919647
 20
-173.553207
  0
VERTEX
  8
0
 10
239.679291
 20
-159.420059
  0
VERTEX
  8
0
 10
239.280960
 20
-145.221161
  0
VERTEX
  8
0
 10
238.728073
 20
-131.077713
  0
VERTEX
  8
0
 10
238.025330
 20
-117.110237
  0
VERTEX
  8
0
 10
237.178741
 20
-103.437981
  0
VERTEX
  8
0
 10
236.195526
 20
-90.177589
  0
VERTEX
  8
0
 10
235.084061
 20
-77.442230
  0
VERTEX
  8
0
 10
233.853851
 20
-65.340485
  0
VERTEX
  8
0
 10
232.515366
 20
-53.975590
  0
VERTEX
  8
0
 10
231.080048
 20
-43.444611
  0
VERTEX
  8
0
 10
229.560135
 20
-33.837330
  0
VERTEX
  8
0
 10
227.968582
 20
-25.235697
  0
VERTEX
  8
0
 10
226.318970
 20
-17.713091
  0
VERTEX
  8
0
 10
224.625397
 20
-11.333775
  0
VERTEX
  8
0
 10
222.902283
 20
-6.152100
  0
VERTEX
  8
0
 10
221.164368
 20
-2.212311
  0
VERTEX
  8
0
 10
220.000000
 20
0.000000
  0
SEQEND
  0
LINE
  8
0
 10
0.000000
 20
0.000000
 11
100.000000
 21
0.000000
  0
LINE
  8
0
 10
0.000000
 20
0.000000
 11
100.000000
 21
0.000000
  0
LINE
  8
0
 10
0.000000
 20
0.000000
 11
100.000000
 21
0.000000
  0
LINE
  8
0
 10
0.000000
 20
0.000000
 11
100.000000
 21
0.000000
  0
LINE
  8
0
 10
0.000000
 20
0.000000
 11
100.000000
 21
0.000000
  0
LINE
  8
0
 10
0.000000
 20
0.000000
 11
100.000000
 21
0.000000
  0
POLYLINE
  8
0
 66
1
 70
    0
  0
VERTEX
  8
0
 10
0.000000
 20
-2.000000
  0
VERTEX
  8
0
 10
2.500000
 20
-2.000000
  0
VERTEX
  8
0
 10
4.950129
 20
-1.999032
  0
VERTEX
  8
0
 10
7.842597
 20
-1.996137
  0
VERTEX
  8
0
 10
11.152719
 20
-1.991338
  0
VERTEX
  8
0
 10
14.852263
 20
-1.984678
  0
VERTEX
  8
0
 10
18.909672
 20
-1.976213
  0
VERTEX
  8
0
 10
23.290331
 20
-1.966015
  0
VERTEX
  8
0
 10
27.956860
 20
-1.954171
  0
VERTEX
  8
0
 10
32.869431
 20
-1.940782
  0
VERTEX
  8
0
 10
37.986153
 20
-1.925962
  0
VERTEX
  8
0
 10
43.263382
 20
-1.909839
  0
VERTEX
  8
0
 10
48.656048
 20
-1.892549
  0
VERTEX
  8
0
 10
54.118176
 20
-1.874240
  0
VERTEX
  8
0
 10
59.603191
 20
-1.855067
  0
VERTEX
  8
0
 10
65.064262
 20
-1.835196
  0
VERTEX
  8
0
 10
70.454773
 20
-1.814795
  0
VERTEX
  8
0
 10
75.728775
 20
-1.794038
  0
VERTEX
  8
0
 10
80.841248
 20
-1.773103
  0
VERTEX
  8
0
 10
83.341225
 20
-1.762656
  0
SEQEND
  0
POLYLINE
  8
0
 66
1
 70
    0
  0
VERTEX
  8
0
 10
113.340691
 20
-1.762656
  0
VERTEX
  8
0
 10
115.840668
 20
-1.752209
  0
VERTEX
  8
0
 10
118.187286
 20
-1.741922
  0
VERTEX
  8
0
 10
120.718750
 20
-1.729906
  0
VERTEX
  8
0
 10
123.413483
 20
-1.716263
  0
VERTEX
  8
0
 10
126.248466
 20
-1.701110
  0
VERTEX
  8
0
 10
129.199539
 20
-1.684575
  0
VERTEX
  8
0
 10
132.241516
 20
-1.666800
  0
VERTEX
  8
0
 10
135.348450
 20
-1.647936
  0
VERTEX
  8
0
 10
138.493805
 20
-1.628145
  0
VERTEX
  8
0
 10
141.650787
 20
-1.607595
  0
VERTEX
  8
0
 10
144.792435
 20
-1.586462
  0
VERTEX
  8
0
 10
147.891953
 20
-1.564925
  0
VERTEX
  8
0
 10
150.922882
 20
-1.543169
  0
VERTEX
  8
0
 10
153.859406
 20
-1.521379
  0
VERTEX
  8
0
 10
156.676437
 20
-1.499741
  0
VERTEX
  8
0
 10
159.349930
 20
-1.478441
  0
VERTEX
  8
0
 10
161.857086
 20
-1.457658
  0
VERTEX
  8
0
 10
164.176544
 20
-1.437571
  0
VERTEX
  8
0
 10
166.676453
 20
-1.415397
  0
SEQEND
  0
POLYLINE
  8
0
 66
1
 70
    0
  0
VERTEX
  8
0
 10
166.676453
 20
-1.415397
  0
VERTEX
  8
0
 10
169.176361
 20
-1.393223
  0
VERTEX
  8
0
 10
173.542557
 20
-1.351279
  0
VERTEX
  8
0
 10
177.896317
 20
-1.303041
  0
VERTEX
  8
0
 10
182.200531
 20
-1.248919
  0
VERTEX
  8
0
 10
186.418442
 20
-1.189376
  0
VERTEX
  8
0
 10
190.514069
 20
-1.124919
  0
VERTEX
  8
0
 10
194.452499
 20
-1.056099
  0
VERTEX
  8
0
 10
198.200089
 20
-0.983502
  0
VERTEX
  8
0
 10
201.724899
 20
-0.907749
  0
VERTEX
  8
0
 10
204.996826
 20
-0.829485
  0
VERTEX
  8
0
 10
207.988007
 20
-0.749378
  0
VERTEX
  8
0
 10
210.672852
 20
-0.668112
  0
VERTEX
  8
0
 10
213.028519
 20
-0.586379
  0
VERTEX
  8
0
 10
215.034866
 20
-0.504878
  0
VERTEX
  8
0
 10
216.674789
 20
-0.424303
  0
VERTEX
  8
0
 10
217.934311
 20
-0.345342
  0
VERTEX
  8
0
 10
218.802673
 20
-0.268669
  0
VERTEX
  8
0
 10
219.272476
 20
-0.194937
  0
VERTEX
  8
0
 10
220.000000
 20
0.000000
  0
SEQEND
  0
LINE
  8
0
 10
0.000000
 20
0.000000
 11
100.000000
 21
0.000000
  0
POLYLINE
  8
0
 66
1
 70
    0
  0
VERTEX
  8
0
 10
490.000000
 20
-12.000000
  0
VERTEX
  8
0
 10
487.500000
 20
-12.000000
  0
VERTEX
  8
0
 10
480.259949
 20
-11.985742
  0
VERTEX
  8
0
 10
472.516327
 20
-11.943089
  0
VERTEX
  8
0
 10
464.335144
 20
-11.872406
  0
VERTEX
  8
0
 10
455.786316
 20
-11.774296
  0
VERTEX
  8
0
 10
446.942627
 20
-11.649594
  0
VERTEX
  8
0
 10
437.879608
 20
-11.499367
  0
VERTEX
  8
0
 10
428.674591
 20
-11.324894
  0
VERTEX
  8
0
 10
419.406128
 20
-11.127666
  0
VERTEX
  8
0
 10
410.153168
 20
-10.909364
  0
VERTEX
  8
0
 10
400.994781
 20
-10.671849
  0
VERTEX
  8
0
 10
392.009033
 20
-10.417151
  0
VERTEX
  8
0
 10
383.272675
 20
-10.147442
  0
VERTEX
  8
0
 10
374.860168
 20
-9.865021
  0
VERTEX
  8
0
 10
366.843262
 20
-9.572297
  0
VERTEX
  8
0
 10
359.290436
 20
-9.271772
  0
VERTEX
  8
0
 10
352.266113
 20
-8.966007
  0
VERTEX
  8
0
 10
345.830170
 20
-8.657611
  0
VERTEX
  8
0
 10
343.333344
 20
-8.531674
  0
SEQEND
  0
POLYLINE
  8
0
 66
1
 70
    0
  0
VERTEX
  8
0
 10
343.333344
 20
-8.531674
  0
VERTEX
  8
0
 10
340.836517
 20
-8.405737
  0
VERTEX
  8
0
 10
335.139343
 20
-8.102157
  0
VERTEX
  8
0
 10
329.341644
 20
-7.761194
  0
VERTEX
  8
0
 10
323.492828
 20
-7.385759
  0
VERTEX
  8
0
 10
317.642792
 20
-6.979056
  0
VERTEX
  8
0
 10
311.841461
 20
-6.544552
  0
VERTEX
  8
0
 10
306.138336
 20
-6.085956
  0
VERTEX
  8
0
 10
300.582092
 20
-5.607179
  0
VERTEX
  8
0
 10
295.220123
 20
-5.112309
  0
VERTEX
  8
0
 10
290.098145
 20
-4.605564
  0
VERTEX
  8
0
 10
285.259857
 20
-4.091269
  0
VERTEX
  8
0
 10
280.746582
 20
-3.573813
  0
VERTEX
  8
0
 10
276.596832
 20
-3.057610
  0
VERTEX
  8
0
 10
272.845886
 20
-2.547062
  0
VERTEX
  8
0
 10
269.525940
 20
-2.046526
  0
VERTEX
  8
0
 10
266.665161
 20
-1.560276
  0
VERTEX
  8
0
 10
264.288055
 20
-1.092458
  0
VERTEX
  8
0
 10
262.414825
 20
-0.647062
  0
VERTEX
  8
0
 10
260.000000
 20
0.000000
  0
SEQEND
  0
LINE
  8
0
 10
0.000000
 20
0.000000
 11
100.000000
 21
0.000000
  0
LINE
  8
0
 10
0.000000
 20
0.000000
 11
100.000000
 21
0.000000
  0
LINE
  8
0
 10
0.000000
 20
0.000000
 11
100.000000
 21
0.000000
  0
ENDSEC
  0
EOF
