  0
SECTION
  2
HEADER
  9
$ACADVER
  1
AC1006
  9
$CLAYER
  8
1
  0
ENDSEC
  0
SECTION
  2
TABLES
  0
TABLE
  2
LTYPE
 70
1
  0
LTYPE
  2
CONTINUOUS
 70
0
  3
SOLIDLINE
 72
65
 73
0
 40
0.000000
  0
ENDTAB
  0
TABLE
  2
LAYER
 70
14
  0
LAYER
  2
1
 70
0
 62
7
  6
CONTINUOUS
  0
LAYER
  2
2
 70
0
 62
1
  6
CONTINUOUS
  0
LAYER
  2
3
 70
0
 62
2
  6
CONTINUOUS
  0
LAYER
  2
4
 70
0
 62
3
  6
CONTINUOUS
  0
LAYER
  2
5
 70
0
 62
5
  6
CONTINUOUS
  0
LAYER
  2
6
 70
0
 62
5
  6
CONTINUOUS
  0
LAYER
  2
7
 70
0
 62
5
  6
CONTINUOUS
  0
LAYER
  2
8
 70
0
 62
4
  6
CONTINUOUS
  0
LAYER
  2
9
 70
0
 62
5
  6
CONTINUOUS
  0
LAYER
  2
10
 70
0
 62
5
  6
CONTINUOUS
  0
LAYER
  2
11
 70
0
 62
4
  6
CONTINUOUS
  0
LAYER
  2
12
 70
0
 62
6
  6
CONTINUOUS
  0
LAYER
  2
13
 70
0
 62
4
  6
CONTINUOUS
  0
LAYER
  2
14
 70
0
 62
7
  6
CONTINUOUS
  0
ENDTAB
  0
TABLE
  2
STYLE
 70
1
  0
STYLE
  2
0
 70
0
 40
0.000000
 41
1.000000
 50
0.000000
 71
0
 42
1.000000
  3

  4

  0
ENDTAB
  0
ENDSEC
  0
SECTION
  2
BLOCKS
  0
ENDSEC
  0
SECTION
  2
ENTITIES
  0
LINE
  8
0
 10
580.000000
 20
-600.000000
 11
580.000000
 21
-30.000000
  0
POLYLINE
  8
0
 66
1
 70
    0
  0
VERTEX
  8
0
 10
580.000000
 20
-30.000000
  0
VERTEX
  8
0
 10
577.500000
 20
-30.000000
  0
VERTEX
  8
0
 10
575.527344
 20
-29.950590
  0
VERTEX
  8
0
 10
572.313416
 20
-29.802792
  0
VERTEX
  8
0
 10
567.885681
 20
-29.557861
  0
VERTEX
  8
0
 10
562.281799
 20
-29.217888
  0
VERTEX
  8
0
 10
555.549622
 20
-28.785772
  0
VERTEX
  8
0
 10
547.746521
 20
-28.265202
  0
VERTEX
  8
0
 10
538.939209
 20
-27.660618
  0
VERTEX
  8
0
 10
529.202698
 20
-26.977180
  0
VERTEX
  8
0
 10
518.620178
 20
-26.220716
  0
VERTEX
  8
0
 10
507.281860
 20
-25.397678
  0
VERTEX
  8
0
 10
495.284454
 20
-24.515097
  0
VERTEX
  8
0
 10
482.730408
 20
-23.580498
  0
VERTEX
  8
0
 10
469.726685
 20
-22.601845
  0
VERTEX
  8
0
 10
456.384338
 20
-21.587498
  0
VERTEX
  8
0
 10
442.817261
 20
-20.546116
  0
VERTEX
  8
0
 10
429.141083
 20
-19.486572
  0
VERTEX
  8
0
 10
415.472534
 20
-18.417917
  0
VERTEX
  8
0
 10
412.980225
 20
-18.222168
  0
SEQEND
  0
LINE
  8
0
 10
405.240021
 20
-90.960938
 11
412.980225
 21
-18.222168
  0
LINE
  8
0
 10
405.240021
 20
-90.960938
 11
397.499817
 21
-18.222168
  0
LINE
  8
0
 10
580.000000
 20
-30.000000
 11
0.000000
 21
0.000000
  0
POLYLINE
  8
0
 66
1
 70
    0
  0
VERTEX
  8
0
 10
397.499817
 20
-18.222168
  0
VERTEX
  8
0
 10
395.007507
 20
-18.026419
  0
VERTEX
  8
0
 10
390.556580
 20
-17.689098
  0
VERTEX
  8
0
 10
385.792175
 20
-17.351572
  0
VERTEX
  8
0
 10
380.754944
 20
-17.016720
  0
VERTEX
  8
0
 10
375.487915
 20
-16.687397
  0
VERTEX
  8
0
 10
370.035889
 20
-16.366413
  0
VERTEX
  8
0
 10
364.445526
 20
-16.056507
  0
VERTEX
  8
0
 10
358.764465
 20
-15.760323
  0
VERTEX
  8
0
 10
353.041168
 20
-15.480389
  0
VERTEX
  8
0
 10
347.324402
 20
-15.219091
  0
VERTEX
  8
0
 10
341.663086
 20
-14.978660
  0
VERTEX
  8
0
 10
336.105377
 20
-14.761147
  0
VERTEX
  8
0
 10
330.698822
 20
-14.568406
  0
VERTEX
  8
0
 10
325.489441
 20
-14.402085
  0
VERTEX
  8
0
 10
320.521729
 20
-14.263600
  0
VERTEX
  8
0
 10
315.838043
 20
-14.154134
  0
VERTEX
  8
0
 10
311.478363
 20
-14.074620
  0
VERTEX
  8
0
 10
307.479889
 20
-14.025737
  0
VERTEX
  8
0
 10
304.979980
 20
-14.003796
  0
SEQEND
  0
POLYLINE
  8
0
 66
1
 70
    0
  0
VERTEX
  8
0
 10
287.860016
 20
-205.000000
  0
VERTEX
  8
0
 10
287.860016
 20
-202.499969
  0
VERTEX
  8
0
 10
287.929993
 20
-190.160400
  0
VERTEX
  8
0
 10
288.139343
 20
-177.457687
  0
VERTEX
  8
0
 10
288.486237
 20
-164.500214
  0
VERTEX
  8
0
 10
288.967773
 20
-151.398544
  0
VERTEX
  8
0
 10
289.579773
 20
-138.264389
  0
VERTEX
  8
0
 10
290.317108
 20
-125.209877
  0
VERTEX
  8
0
 10
291.173401
 20
-112.346344
  0
VERTEX
  8
0
 10
292.141388
 20
-99.783600
  0
VERTEX
  8
0
 10
293.212799
 20
-87.628738
  0
VERTEX
  8
0
 10
294.378510
 20
-75.985481
  0
VERTEX
  8
0
 10
295.628540
 20
-64.953232
  0
VERTEX
  8
0
 10
296.952271
 20
-54.626064
  0
VERTEX
  8
0
 10
298.338379
 20
-45.092030
  0
VERTEX
  8
0
 10
299.775055
 20
-36.432549
  0
VERTEX
  8
0
 10
301.250000
 20
-28.721519
  0
VERTEX
  8
0
 10
302.750702
 20
-22.024673
  0
VERTEX
  8
0
 10
304.264282
 20
-16.399178
  0
VERTEX
  8
0
 10
304.979980
 20
-14.003796
  0
SEQEND
  0
LINE
  8
0
 10
282.859863
 20
-307.500000
 11
287.860016
 21
-205.000000
  0
LINE
  8
0
 10
287.860016
 20
-600.000000
 11
287.860016
 21
-14.889311
  0
LINE
  8
0
 10
292.859863
 20
-307.500000
 11
287.860016
 21
-205.000000
  0
LINE
  8
0
 10
292.860016
 20
-600.000000
 11
292.859863
 21
-307.500000
  0
LINE
  8
0
 10
282.860016
 20
-600.000000
 11
282.859863
 21
-307.500000
  0
LINE
  8
0
 10
0.000000
 20
-307.500000
 11
580.000000
 21
-307.500000
  0
LINE
  8
0
 10
0.000000
 20
-205.000000
 11
580.000000
 21
-205.000000
  0
LINE
  8
0
 10
405.240021
 20
-600.000000
 11
405.240021
 21
-20.960938
  0
LINE
  8
0
 10
108.188690
 20
-5.595967
 11
108.188690
 21
-600.000000
  0
LINE
  8
0
 10
0.000000
 20
-600.000000
 11
580.000000
 21
-600.000000
  0
LINE
  8
0
 10
0.000000
 20
0.000000
 11
0.000000
 21
-600.000000
  0
LINE
  8
0
 10
93.208710
 20
-4.821140
 11
0.000000
 21
-4.821140
  0
LINE
  8
0
 10
108.188477
 20
-165.000000
 11
93.208710
 21
-4.821140
  0
LINE
  8
0
 10
108.188904
 20
-165.000000
 11
123.168671
 21
-4.821140
  0
LINE
  8
0
 10
186.668915
 20
-7.615622
 11
196.625061
 21
-88.290558
  0
LINE
  8
0
 10
207.344986
 20
-7.713554
 11
196.625061
 21
-88.290558
  0
LINE
  8
0
 10
197.003983
 20
-8.291449
 11
196.385178
 21
-138.937897
  0
LINE
  8
0
 10
0.000000
 20
-95.182129
 11
284.356934
 21
-109.890533
  0
LINE
  8
0
 10
108.188477
 20
-165.000000
 11
284.581879
 21
-112.875786
  0
LINE
  8
0
 10
580.000000
 20
-125.215820
 11
291.475098
 21
-108.434296
  0
POLYLINE
  8
0
 66
1
 70
    0
  0
VERTEX
  8
0
 10
123.168671
 20
-4.821140
  0
VERTEX
  8
0
 10
125.668671
 20
-4.821140
  0
VERTEX
  8
0
 10
129.807022
 20
-4.859384
  0
VERTEX
  8
0
 10
134.784256
 20
-4.973783
  0
VERTEX
  8
0
 10
140.557922
 20
-5.163365
  0
VERTEX
  8
0
 10
147.078781
 20
-5.426511
  0
VERTEX
  8
0
 10
154.291214
 20
-5.760977
  0
VERTEX
  8
0
 10
162.133636
 20
-6.163909
  0
VERTEX
  8
0
 10
170.539185
 20
-6.631869
  0
VERTEX
  8
0
 10
179.436111
 20
-7.160864
  0
VERTEX
  8
0
 10
186.668915
 20
-7.615626
  0
SEQEND
  0
POLYLINE
  8
0
 66
1
 70
    0
  0
VERTEX
  8
0
 10
207.344986
 20
-7.713554
  0
VERTEX
  8
0
 10
210.690079
 20
-7.939352
  0
VERTEX
  8
0
 10
214.032684
 20
-8.195109
  0
VERTEX
  8
0
 10
217.373093
 20
-8.477611
  0
VERTEX
  8
0
 10
220.711533
 20
-8.783628
  0
VERTEX
  8
0
 10
224.048340
 20
-9.109941
  0
VERTEX
  8
0
 10
227.383743
 20
-9.453322
  0
VERTEX
  8
0
 10
230.718018
 20
-9.810551
  0
VERTEX
  8
0
 10
234.051437
 20
-10.178401
  0
VERTEX
  8
0
 10
237.384262
 20
-10.553650
  0
VERTEX
  8
0
 10
240.716766
 20
-10.933072
  0
VERTEX
  8
0
 10
244.049271
 20
-11.313447
  0
VERTEX
  8
0
 10
247.381958
 20
-11.691547
  0
VERTEX
  8
0
 10
250.715164
 20
-12.064150
  0
VERTEX
  8
0
 10
254.049133
 20
-12.428033
  0
VERTEX
  8
0
 10
257.384155
 20
-12.779969
  0
VERTEX
  8
0
 10
260.720459
 20
-13.116737
  0
VERTEX
  8
0
 10
264.058380
 20
-13.435114
  0
VERTEX
  8
0
 10
267.398163
 20
-13.731873
  0
VERTEX
  8
0
 10
270.740051
 20
-14.003796
  0
SEQEND
  0
LINE
  8
0
 10
0.000000
 20
0.000000
 11
100.000000
 21
0.000000
  0
LINE
  8
0
 10
0.000000
 20
0.000000
 11
100.000000
 21
0.000000
  0
LINE
  8
0
 10
0.000000
 20
0.000000
 11
100.000000
 21
0.000000
  0
LINE
  8
0
 10
0.000000
 20
0.000000
 11
100.000000
 21
0.000000
  0
POLYLINE
  8
0
 66
1
 70
    0
  0
VERTEX
  8
0
 10
287.860016
 20
-205.000000
  0
VERTEX
  8
0
 10
287.860016
 20
-202.499969
  0
VERTEX
  8
0
 10
287.790039
 20
-190.160400
  0
VERTEX
  8
0
 10
287.580688
 20
-177.457687
  0
VERTEX
  8
0
 10
287.233795
 20
-164.500214
  0
VERTEX
  8
0
 10
286.752258
 20
-151.398544
  0
VERTEX
  8
0
 10
286.140259
 20
-138.264389
  0
VERTEX
  8
0
 10
285.402924
 20
-125.209877
  0
VERTEX
  8
0
 10
284.546631
 20
-112.346344
  0
VERTEX
  8
0
 10
283.578644
 20
-99.783600
  0
VERTEX
  8
0
 10
282.507233
 20
-87.628738
  0
VERTEX
  8
0
 10
281.341522
 20
-75.985481
  0
VERTEX
  8
0
 10
280.091492
 20
-64.953232
  0
VERTEX
  8
0
 10
278.767761
 20
-54.626064
  0
VERTEX
  8
0
 10
277.381653
 20
-45.092030
  0
VERTEX
  8
0
 10
275.944977
 20
-36.432549
  0
VERTEX
  8
0
 10
274.470032
 20
-28.721519
  0
VERTEX
  8
0
 10
272.969330
 20
-22.024673
  0
VERTEX
  8
0
 10
271.455750
 20
-16.399178
  0
VERTEX
  8
0
 10
270.740051
 20
-14.003796
  0
SEQEND
  0
ENDSEC
  0
EOF
