  0
SECTION
  2
HEADER
  9
$ACADVER
  1
AC1006
  9
$CLAYER
  8
1
  0
ENDSEC
  0
SECTION
  2
TABLES
  0
TABLE
  2
LTYPE
 70
1
  0
LTYPE
  2
CONTINUOUS
 70
0
  3
SOLIDLINE
 72
65
 73
0
 40
0.000000
  0
ENDTAB
  0
TABLE
  2
LAYER
 70
14
  0
LAYER
  2
1
 70
0
 62
7
  6
CONTINUOUS
  0
LAYER
  2
2
 70
0
 62
1
  6
CONTINUOUS
  0
LAYER
  2
3
 70
0
 62
2
  6
CONTINUOUS
  0
LAYER
  2
4
 70
0
 62
3
  6
CONTINUOUS
  0
LAYER
  2
5
 70
0
 62
5
  6
CONTINUOUS
  0
LAYER
  2
6
 70
0
 62
5
  6
CONTINUOUS
  0
LAYER
  2
7
 70
0
 62
5
  6
CONTINUOUS
  0
LAYER
  2
8
 70
0
 62
4
  6
CONTINUOUS
  0
LAYER
  2
9
 70
0
 62
5
  6
CONTINUOUS
  0
LAYER
  2
10
 70
0
 62
5
  6
CONTINUOUS
  0
LAYER
  2
11
 70
0
 62
4
  6
CONTINUOUS
  0
LAYER
  2
12
 70
0
 62
6
  6
CONTINUOUS
  0
LAYER
  2
13
 70
0
 62
4
  6
CONTINUOUS
  0
LAYER
  2
14
 70
0
 62
7
  6
CONTINUOUS
  0
ENDTAB
  0
TABLE
  2
STYLE
 70
1
  0
STYLE
  2
0
 70
0
 40
0.000000
 41
1.000000
 50
0.000000
 71
0
 42
1.000000
  3

  4

  0
ENDTAB
  0
ENDSEC
  0
SECTION
  2
BLOCKS
  0
ENDSEC
  0
SECTION
  2
ENTITIES
  0
LINE
  8
0
 10
630.000000
 20
-580.000000
 11
630.000000
 21
-50.000000
  0
POLYLINE
  8
0
 66
1
 70
    0
  0
VERTEX
  8
0
 10
630.000000
 20
-50.000000
  0
VERTEX
  8
0
 10
627.500000
 20
-50.000000
  0
VERTEX
  8
0
 10
625.213623
 20
-49.917828
  0
VERTEX
  8
0
 10
621.571167
 20
-49.672016
  0
VERTEX
  8
0
 10
616.603699
 20
-49.264664
  0
VERTEX
  8
0
 10
610.353455
 20
-48.699245
  0
VERTEX
  8
0
 10
602.873901
 20
-47.980579
  0
VERTEX
  8
0
 10
594.228699
 20
-47.114799
  0
VERTEX
  8
0
 10
584.491760
 20
-46.109299
  0
VERTEX
  8
0
 10
573.746155
 20
-44.972649
  0
VERTEX
  8
0
 10
562.083374
 20
-43.714550
  0
VERTEX
  8
0
 10
549.603149
 20
-42.345734
  0
VERTEX
  8
0
 10
536.411865
 20
-40.877884
  0
VERTEX
  8
0
 10
522.622070
 20
-39.323521
  0
VERTEX
  8
0
 10
508.351257
 20
-37.695892
  0
VERTEX
  8
0
 10
493.721405
 20
-36.008904
  0
VERTEX
  8
0
 10
478.857330
 20
-34.276943
  0
VERTEX
  8
0
 10
463.885742
 20
-32.514786
  0
VERTEX
  8
0
 10
448.934387
 20
-30.737469
  0
VERTEX
  8
0
 10
446.452026
 20
-30.440918
  0
SEQEND
  0
LINE
  8
0
 10
438.575928
 20
-104.807617
 11
446.452026
 21
-30.440918
  0
LINE
  8
0
 10
438.575928
 20
-104.807617
 11
430.699829
 21
-30.440918
  0
LINE
  8
0
 10
630.000000
 20
-50.000000
 11
0.000000
 21
0.000000
  0
POLYLINE
  8
0
 66
1
 70
    0
  0
VERTEX
  8
0
 10
430.699829
 20
-30.440918
  0
VERTEX
  8
0
 10
428.217468
 20
-30.144367
  0
VERTEX
  8
0
 10
423.364075
 20
-29.585052
  0
VERTEX
  8
0
 10
418.165985
 20
-29.025366
  0
VERTEX
  8
0
 10
412.667511
 20
-28.470079
  0
VERTEX
  8
0
 10
406.915619
 20
-27.923939
  0
VERTEX
  8
0
 10
400.959381
 20
-27.391594
  0
VERTEX
  8
0
 10
394.849579
 20
-26.877594
  0
VERTEX
  8
0
 10
388.638336
 20
-26.386318
  0
VERTEX
  8
0
 10
382.378632
 20
-25.921963
  0
VERTEX
  8
0
 10
376.123962
 20
-25.488487
  0
VERTEX
  8
0
 10
369.927551
 20
-25.089588
  0
VERTEX
  8
0
 10
363.842377
 20
-24.728672
  0
VERTEX
  8
0
 10
357.920349
 20
-24.408819
  0
VERTEX
  8
0
 10
352.211914
 20
-24.132753
  0
VERTEX
  8
0
 10
346.765839
 20
-23.902830
  0
VERTEX
  8
0
 10
341.628601
 20
-23.721018
  0
VERTEX
  8
0
 10
336.843964
 20
-23.588863
  0
VERTEX
  8
0
 10
332.452789
 20
-23.507492
  0
VERTEX
  8
0
 10
329.953003
 20
-23.474188
  0
SEQEND
  0
POLYLINE
  8
0
 66
1
 70
    0
  0
VERTEX
  8
0
 10
312.863892
 20
-225.000000
  0
VERTEX
  8
0
 10
312.863892
 20
-222.499969
  0
VERTEX
  8
0
 10
312.933899
 20
-209.466888
  0
VERTEX
  8
0
 10
313.143280
 20
-196.049713
  0
VERTEX
  8
0
 10
313.490295
 20
-182.362915
  0
VERTEX
  8
0
 10
313.971954
 20
-168.523315
  0
VERTEX
  8
0
 10
314.584167
 20
-154.648911
  0
VERTEX
  8
0
 10
315.321686
 20
-140.858093
  0
VERTEX
  8
0
 10
316.178253
 20
-127.268547
  0
VERTEX
  8
0
 10
317.146515
 20
-113.996239
  0
VERTEX
  8
0
 10
318.218262
 20
-101.154327
  0
VERTEX
  8
0
 10
319.384308
 20
-88.852402
  0
VERTEX
  8
0
 10
320.634705
 20
-77.195473
  0
VERTEX
  8
0
 10
321.958832
 20
-66.282959
  0
VERTEX
  8
0
 10
323.345337
 20
-56.207893
  0
VERTEX
  8
0
 10
324.782440
 20
-47.056313
  0
VERTEX
  8
0
 10
326.257812
 20
-38.906322
  0
VERTEX
  8
0
 10
327.758942
 20
-31.827393
  0
VERTEX
  8
0
 10
329.272980
 20
-25.879944
  0
VERTEX
  8
0
 10
329.953003
 20
-23.474188
  0
SEQEND
  0
LINE
  8
0
 10
302.863770
 20
-337.500000
 11
312.863892
 21
-225.000000
  0
LINE
  8
0
 10
312.863892
 20
-580.000000
 11
312.863892
 21
-24.830467
  0
LINE
  8
0
 10
322.863770
 20
-337.500000
 11
312.863892
 21
-225.000000
  0
LINE
  8
0
 10
322.863892
 20
-580.000000
 11
322.863770
 21
-337.500000
  0
LINE
  8
0
 10
302.863892
 20
-580.000000
 11
302.863770
 21
-337.500000
  0
LINE
  8
0
 10
0.000000
 20
-337.500000
 11
630.000000
 21
-337.500000
  0
LINE
  8
0
 10
0.000000
 20
-225.000000
 11
630.000000
 21
-225.000000
  0
LINE
  8
0
 10
438.575928
 20
-580.000000
 11
438.575928
 21
-34.807617
  0
LINE
  8
0
 10
112.978058
 20
-8.966513
 11
112.978058
 21
-580.000000
  0
LINE
  8
0
 10
0.000000
 20
-580.000000
 11
630.000000
 21
-580.000000
  0
LINE
  8
0
 10
0.000000
 20
0.000000
 11
0.000000
 21
-580.000000
  0
LINE
  8
0
 10
98.025078
 20
-7.779768
 11
0.000000
 21
-7.779768
  0
LINE
  8
0
 10
112.978058
 20
-108.966515
 11
98.025078
 21
-7.779768
  0
LINE
  8
0
 10
112.978058
 20
-108.966515
 11
127.931038
 21
-7.779768
  0
LINE
  8
0
 10
173.824875
 20
-9.856566
 11
179.430313
 21
-80.505951
  0
LINE
  8
0
 10
189.507034
 20
-10.354569
 11
179.430313
 21
-80.505951
  0
LINE
  8
0
 10
181.652115
 20
-10.541208
 11
178.384064
 21
-113.452400
  0
LINE
  8
0
 10
0.000000
 20
-100.399414
 11
309.380371
 21
-124.953400
  0
LINE
  8
0
 10
112.978058
 20
-108.966515
 11
309.196106
 21
-122.424164
  0
LINE
  8
0
 10
630.000000
 20
-150.475098
 11
316.506836
 21
-122.760620
  0
POLYLINE
  8
0
 66
1
 70
    0
  0
VERTEX
  8
0
 10
127.931038
 20
-7.779768
  0
VERTEX
  8
0
 10
136.799362
 20
-7.865888
  0
VERTEX
  8
0
 10
145.659760
 20
-8.117177
  0
VERTEX
  8
0
 10
154.512955
 20
-8.519000
  0
VERTEX
  8
0
 10
163.359711
 20
-9.056715
  0
VERTEX
  8
0
 10
172.200699
 20
-9.715685
  0
VERTEX
  8
0
 10
173.824890
 20
-9.856410
  0
SEQEND
  0
POLYLINE
  8
0
 66
1
 70
    0
  0
VERTEX
  8
0
 10
189.507034
 20
-10.354569
  0
VERTEX
  8
0
 10
191.922318
 20
-10.575790
  0
VERTEX
  8
0
 10
194.334946
 20
-10.820727
  0
VERTEX
  8
0
 10
196.745148
 20
-11.087351
  0
VERTEX
  8
0
 10
199.153137
 20
-11.373625
  0
VERTEX
  8
0
 10
201.559143
 20
-11.677510
  0
VERTEX
  8
0
 10
203.963409
 20
-11.996974
  0
VERTEX
  8
0
 10
206.366165
 20
-12.329977
  0
VERTEX
  8
0
 10
208.767624
 20
-12.674484
  0
VERTEX
  8
0
 10
211.168030
 20
-13.028459
  0
VERTEX
  8
0
 10
213.567581
 20
-13.389864
  0
VERTEX
  8
0
 10
215.966553
 20
-13.756663
  0
VERTEX
  8
0
 10
218.365112
 20
-14.126821
  0
VERTEX
  8
0
 10
220.763565
 20
-14.498299
  0
VERTEX
  8
0
 10
223.162079
 20
-14.869061
  0
VERTEX
  8
0
 10
225.560913
 20
-15.237074
  0
VERTEX
  8
0
 10
227.960266
 20
-15.600296
  0
VERTEX
  8
0
 10
230.360413
 20
-15.956694
  0
VERTEX
  8
0
 10
232.761536
 20
-16.304230
  0
VERTEX
  8
0
 10
235.163879
 20
-16.640873
  0
SEQEND
  0
POLYLINE
  8
0
 66
1
 70
    0
  0
VERTEX
  8
0
 10
250.024200
 20
-16.465567
  0
VERTEX
  8
0
 10
252.435638
 20
-16.817841
  0
VERTEX
  8
0
 10
254.843521
 20
-17.208220
  0
VERTEX
  8
0
 10
257.248383
 20
-17.630318
  0
VERTEX
  8
0
 10
259.650818
 20
-18.077736
  0
VERTEX
  8
0
 10
262.051331
 20
-18.544065
  0
VERTEX
  8
0
 10
264.450562
 20
-19.022909
  0
VERTEX
  8
0
 10
266.849030
 20
-19.507870
  0
VERTEX
  8
0
 10
269.247284
 20
-19.992538
  0
VERTEX
  8
0
 10
271.645874
 20
-20.470520
  0
VERTEX
  8
0
 10
274.045380
 20
-20.935411
  0
VERTEX
  8
0
 10
276.446381
 20
-21.380812
  0
VERTEX
  8
0
 10
278.849457
 20
-21.800318
  0
VERTEX
  8
0
 10
281.255066
 20
-22.187531
  0
VERTEX
  8
0
 10
283.663849
 20
-22.536049
  0
VERTEX
  8
0
 10
286.076355
 20
-22.839470
  0
VERTEX
  8
0
 10
288.493134
 20
-23.091393
  0
VERTEX
  8
0
 10
290.914764
 20
-23.285416
  0
VERTEX
  8
0
 10
293.341827
 20
-23.415140
  0
VERTEX
  8
0
 10
295.774780
 20
-23.474188
  0
SEQEND
  0
LINE
  8
0
 10
243.431793
 20
-87.565674
 11
250.024200
 21
-16.465567
  0
LINE
  8
0
 10
243.431763
 20
-87.565674
 11
235.163879
 21
-16.640873
  0
LINE
  8
0
 10
242.606033
 20
-17.570545
 11
243.790070
 21
-117.938278
  0
POLYLINE
  8
0
 66
1
 70
    0
  0
VERTEX
  8
0
 10
312.863892
 20
-225.000000
  0
VERTEX
  8
0
 10
312.863892
 20
-222.499969
  0
VERTEX
  8
0
 10
312.793884
 20
-209.466888
  0
VERTEX
  8
0
 10
312.584503
 20
-196.049713
  0
VERTEX
  8
0
 10
312.237488
 20
-182.362915
  0
VERTEX
  8
0
 10
311.755829
 20
-168.523315
  0
VERTEX
  8
0
 10
311.143616
 20
-154.648911
  0
VERTEX
  8
0
 10
310.406097
 20
-140.858093
  0
VERTEX
  8
0
 10
309.549530
 20
-127.268547
  0
VERTEX
  8
0
 10
308.581268
 20
-113.996239
  0
VERTEX
  8
0
 10
307.509521
 20
-101.154327
  0
VERTEX
  8
0
 10
306.343475
 20
-88.852402
  0
VERTEX
  8
0
 10
305.093079
 20
-77.195473
  0
VERTEX
  8
0
 10
303.768951
 20
-66.282959
  0
VERTEX
  8
0
 10
302.382446
 20
-56.207893
  0
VERTEX
  8
0
 10
300.945343
 20
-47.056313
  0
VERTEX
  8
0
 10
299.469971
 20
-38.906322
  0
VERTEX
  8
0
 10
297.968842
 20
-31.827393
  0
VERTEX
  8
0
 10
296.454803
 20
-25.879944
  0
VERTEX
  8
0
 10
295.774780
 20
-23.474188
  0
SEQEND
  0
ENDSEC
  0
EOF
