  0
SECTION
  2
HEADER
  9
$ACADVER
  1
AC1006
  9
$CLAYER
  8
1
  0
ENDSEC
  0
SECTION
  2
TABLES
  0
TABLE
  2
LTYPE
 70
1
  0
LTYPE
  2
CONTINUOUS
 70
0
  3
SOLIDLINE
 72
65
 73
0
 40
0.000000
  0
ENDTAB
  0
TABLE
  2
LAYER
 70
14
  0
LAYER
  2
1
 70
0
 62
7
  6
CONTINUOUS
  0
LAYER
  2
2
 70
0
 62
1
  6
CONTINUOUS
  0
LAYER
  2
3
 70
0
 62
2
  6
CONTINUOUS
  0
LAYER
  2
4
 70
0
 62
3
  6
CONTINUOUS
  0
LAYER
  2
5
 70
0
 62
5
  6
CONTINUOUS
  0
LAYER
  2
6
 70
0
 62
5
  6
CONTINUOUS
  0
LAYER
  2
7
 70
0
 62
5
  6
CONTINUOUS
  0
LAYER
  2
8
 70
0
 62
4
  6
CONTINUOUS
  0
LAYER
  2
9
 70
0
 62
5
  6
CONTINUOUS
  0
LAYER
  2
10
 70
0
 62
5
  6
CONTINUOUS
  0
LAYER
  2
11
 70
0
 62
4
  6
CONTINUOUS
  0
LAYER
  2
12
 70
0
 62
6
  6
CONTINUOUS
  0
LAYER
  2
13
 70
0
 62
4
  6
CONTINUOUS
  0
LAYER
  2
14
 70
0
 62
7
  6
CONTINUOUS
  0
ENDTAB
  0
TABLE
  2
STYLE
 70
1
  0
STYLE
  2
0
 70
0
 40
0.000000
 41
1.000000
 50
0.000000
 71
0
 42
1.000000
  3

  4

  0
ENDTAB
  0
ENDSEC
  0
SECTION
  2
BLOCKS
  0
ENDSEC
  0
SECTION
  2
ENTITIES
  0
POLYLINE
  8
0
 66
1
 70
    0
  0
VERTEX
  8
0
 10
170.000000
 20
100.000000
  0
VERTEX
  8
0
 10
169.603424
 20
107.440544
  0
VERTEX
  8
0
 10
168.418243
 20
114.796783
  0
VERTEX
  8
0
 10
166.457825
 20
121.985374
  0
VERTEX
  8
0
 10
163.744431
 20
128.924850
  0
VERTEX
  8
0
 10
160.308777
 20
135.536606
  0
VERTEX
  8
0
 10
156.189819
 20
141.745728
  0
VERTEX
  8
0
 10
151.434189
 20
147.481827
  0
VERTEX
  8
0
 10
146.095795
 20
152.679962
  0
VERTEX
  8
0
 10
140.235107
 20
157.281189
  0
VERTEX
  8
0
 10
133.918549
 20
161.233414
  0
VERTEX
  8
0
 10
127.217690
 20
164.491837
  0
VERTEX
  8
0
 10
120.208427
 20
167.019531
  0
VERTEX
  8
0
 10
112.970200
 20
168.787888
  0
VERTEX
  8
0
 10
105.585022
 20
169.776840
  0
VERTEX
  8
0
 10
98.136559
 20
169.975189
  0
VERTEX
  8
0
 10
90.709206
 20
169.380692
  0
VERTEX
  8
0
 10
83.387123
 20
168.000092
  0
VERTEX
  8
0
 10
76.253273
 20
165.849014
  0
VERTEX
  8
0
 10
69.388474
 20
162.951843
  0
VERTEX
  8
0
 10
62.870522
 20
159.341400
  0
VERTEX
  8
0
 10
56.773262
 20
155.058594
  0
VERTEX
  8
0
 10
51.165783
 20
150.151962
  0
VERTEX
  8
0
 10
46.111614
 20
144.677078
  0
VERTEX
  8
0
 10
41.668018
 20
138.695999
  0
VERTEX
  8
0
 10
37.885353
 20
132.276459
  0
VERTEX
  8
0
 10
34.806465
 20
125.491226
  0
VERTEX
  8
0
 10
32.466248
 20
118.417160
  0
VERTEX
  8
0
 10
30.891220
 20
111.134430
  0
VERTEX
  8
0
 10
30.099213
 20
103.725540
  0
VERTEX
  8
0
 10
30.099220
 20
96.274437
  0
VERTEX
  8
0
 10
30.891220
 20
88.865540
  0
VERTEX
  8
0
 10
32.466255
 20
81.582809
  0
VERTEX
  8
0
 10
34.806480
 20
74.508743
  0
VERTEX
  8
0
 10
37.885361
 20
67.723511
  0
VERTEX
  8
0
 10
41.668034
 20
61.303986
  0
VERTEX
  8
0
 10
46.111629
 20
55.322895
  0
VERTEX
  8
0
 10
51.165806
 20
49.848022
  0
VERTEX
  8
0
 10
56.773300
 20
44.941376
  0
VERTEX
  8
0
 10
62.870548
 20
40.658581
  0
VERTEX
  8
0
 10
69.388512
 20
37.048138
  0
VERTEX
  8
0
 10
76.253288
 20
34.150978
  0
VERTEX
  8
0
 10
83.387161
 20
31.999901
  0
VERTEX
  8
0
 10
90.709229
 20
30.619301
  0
VERTEX
  8
0
 10
98.136597
 20
30.024811
  0
VERTEX
  8
0
 10
105.585037
 20
30.223167
  0
VERTEX
  8
0
 10
112.970238
 20
31.212120
  0
VERTEX
  8
0
 10
120.208450
 20
32.980461
  0
VERTEX
  8
0
 10
127.217720
 20
35.508171
  0
VERTEX
  8
0
 10
133.918579
 20
38.766590
  0
VERTEX
  8
0
 10
140.235138
 20
42.718822
  0
VERTEX
  8
0
 10
146.095810
 20
47.320057
  0
VERTEX
  8
0
 10
151.434204
 20
52.518192
  0
VERTEX
  8
0
 10
156.189819
 20
58.254299
  0
VERTEX
  8
0
 10
160.308807
 20
64.463417
  0
VERTEX
  8
0
 10
163.744446
 20
71.075157
  0
VERTEX
  8
0
 10
166.457840
 20
78.014656
  0
VERTEX
  8
0
 10
168.418243
 20
85.203262
  0
VERTEX
  8
0
 10
169.603439
 20
92.559517
  0
VERTEX
  8
0
 10
170.000000
 20
100.000000
  0
SEQEND
  0
ENDSEC
  0
EOF
