  0
SECTION
  2
HEADER
  9
$ACADVER
  1
AC1006
  9
$CLAYER
  8
1
  0
ENDSEC
  0
SECTION
  2
TABLES
  0
TABLE
  2
LTYPE
 70
1
  0
LTYPE
  2
CONTINUOUS
 70
0
  3
SOLIDLINE
 72
65
 73
0
 40
0.000000
  0
ENDTAB
  0
TABLE
  2
LAYER
 70
14
  0
LAYER
  2
1
 70
0
 62
7
  6
CONTINUOUS
  0
LAYER
  2
2
 70
0
 62
1
  6
CONTINUOUS
  0
LAYER
  2
3
 70
0
 62
2
  6
CONTINUOUS
  0
LAYER
  2
4
 70
0
 62
3
  6
CONTINUOUS
  0
LAYER
  2
5
 70
0
 62
5
  6
CONTINUOUS
  0
LAYER
  2
6
 70
0
 62
5
  6
CONTINUOUS
  0
LAYER
  2
7
 70
0
 62
5
  6
CONTINUOUS
  0
LAYER
  2
8
 70
0
 62
4
  6
CONTINUOUS
  0
LAYER
  2
9
 70
0
 62
5
  6
CONTINUOUS
  0
LAYER
  2
10
 70
0
 62
5
  6
CONTINUOUS
  0
LAYER
  2
11
 70
0
 62
4
  6
CONTINUOUS
  0
LAYER
  2
12
 70
0
 62
6
  6
CONTINUOUS
  0
LAYER
  2
13
 70
0
 62
4
  6
CONTINUOUS
  0
LAYER
  2
14
 70
0
 62
7
  6
CONTINUOUS
  0
ENDTAB
  0
TABLE
  2
STYLE
 70
1
  0
STYLE
  2
0
 70
0
 40
0.000000
 41
1.000000
 50
0.000000
 71
0
 42
1.000000
  3

  4

  0
ENDTAB
  0
ENDSEC
  0
SECTION
  2
BLOCKS
  0
ENDSEC
  0
SECTION
  2
ENTITIES
  0
LINE
  8
0
 10
104.006248
 20
227.188889
 11
317.259369
 21
227.188889
  0
LINE
  8
0
 10
317.259369
 20
227.188889
 11
317.259369
 21
90.338890
  0
LINE
  8
0
 10
317.259369
 20
90.562485
 11
104.006248
 21
90.562485
  0
LINE
  8
0
 10
104.006248
 20
227.188889
 11
104.006248
 21
90.338852
  0
POLYLINE
  8
0
 66
1
 70
    0
  0
VERTEX
  8
0
 10
275.631012
 20
201.031387
  0
VERTEX
  8
0
 10
273.988617
 20
202.781403
  0
VERTEX
  8
0
 10
272.455597
 20
204.249039
  0
VERTEX
  8
0
 10
270.790558
 20
205.511017
  0
VERTEX
  8
0
 10
268.999420
 20
206.572998
  0
VERTEX
  8
0
 10
267.088104
 20
207.440842
  0
VERTEX
  8
0
 10
265.062622
 20
208.120270
  0
VERTEX
  8
0
 10
262.928864
 20
208.617081
  0
VERTEX
  8
0
 10
260.692841
 20
208.937057
  0
VERTEX
  8
0
 10
258.360535
 20
209.085968
  0
VERTEX
  8
0
 10
253.430801
 20
208.893707
  0
VERTEX
  8
0
 10
248.187347
 20
208.086594
  0
VERTEX
  8
0
 10
242.677872
 20
206.710815
  0
VERTEX
  8
0
 10
236.950058
 20
204.812637
  0
VERTEX
  8
0
 10
231.051559
 20
202.438339
  0
VERTEX
  8
0
 10
225.030106
 20
199.634094
  0
VERTEX
  8
0
 10
218.933350
 20
196.446152
  0
VERTEX
  8
0
 10
212.809006
 20
192.920822
  0
VERTEX
  8
0
 10
206.704742
 20
189.104279
  0
VERTEX
  8
0
 10
200.668228
 20
185.042770
  0
VERTEX
  8
0
 10
194.747192
 20
180.782562
  0
VERTEX
  8
0
 10
188.989288
 20
176.369904
  0
VERTEX
  8
0
 10
183.442215
 20
171.850983
  0
VERTEX
  8
0
 10
178.153656
 20
167.272095
  0
VERTEX
  8
0
 10
173.171326
 20
162.679474
  0
VERTEX
  8
0
 10
168.542831
 20
158.119308
  0
VERTEX
  8
0
 10
164.315918
 20
153.637878
  0
VERTEX
  8
0
 10
160.538269
 20
149.281448
  0
VERTEX
  8
0
 10
157.257553
 20
145.096222
  0
VERTEX
  8
0
 10
154.521454
 20
141.128418
  0
VERTEX
  8
0
 10
152.377655
 20
137.424362
  0
VERTEX
  8
0
 10
150.873856
 20
134.030212
  0
VERTEX
  8
0
 10
150.057770
 20
130.992218
  0
VERTEX
  8
0
 10
149.922501
 20
129.621262
  0
VERTEX
  8
0
 10
149.977036
 20
128.356674
  0
VERTEX
  8
0
 10
150.227325
 20
127.204239
  0
VERTEX
  8
0
 10
150.679352
 20
126.169769
  0
VERTEX
  8
0
 10
151.339050
 20
125.259003
  0
VERTEX
  8
0
 10
152.212418
 20
124.477768
  0
VERTEX
  8
0
 10
153.305359
 20
123.831818
  0
VERTEX
  8
0
 10
154.623871
 20
123.326904
  0
VERTEX
  8
0
 10
156.173920
 20
122.968842
  0
VERTEX
  8
0
 10
157.961456
 20
122.763397
  0
VERTEX
  8
0
 10
159.992477
 20
122.716309
  0
VERTEX
  8
0
 10
162.492249
 20
122.750137
  0
SEQEND
  0
ENDSEC
  0
EOF
