  0
SECTION
  2
HEADER
  9
$ACADVER
  1
AC1006
  9
$CLAYER
  8
1
  0
ENDSEC
  0
SECTION
  2
TABLES
  0
TABLE
  2
LTYPE
 70
1
  0
LTYPE
  2
CONTINUOUS
 70
0
  3
SOLIDLINE
 72
65
 73
0
 40
0.000000
  0
ENDTAB
  0
TABLE
  2
LAYER
 70
14
  0
LAYER
  2
1
 70
0
 62
7
  6
CONTINUOUS
  0
LAYER
  2
2
 70
0
 62
1
  6
CONTINUOUS
  0
LAYER
  2
3
 70
0
 62
2
  6
CONTINUOUS
  0
LAYER
  2
4
 70
0
 62
3
  6
CONTINUOUS
  0
LAYER
  2
5
 70
0
 62
5
  6
CONTINUOUS
  0
LAYER
  2
6
 70
0
 62
5
  6
CONTINUOUS
  0
LAYER
  2
7
 70
0
 62
5
  6
CONTINUOUS
  0
LAYER
  2
8
 70
0
 62
4
  6
CONTINUOUS
  0
LAYER
  2
9
 70
0
 62
5
  6
CONTINUOUS
  0
LAYER
  2
10
 70
0
 62
5
  6
CONTINUOUS
  0
LAYER
  2
11
 70
0
 62
4
  6
CONTINUOUS
  0
LAYER
  2
12
 70
0
 62
6
  6
CONTINUOUS
  0
LAYER
  2
13
 70
0
 62
4
  6
CONTINUOUS
  0
LAYER
  2
14
 70
0
 62
7
  6
CONTINUOUS
  0
ENDTAB
  0
TABLE
  2
STYLE
 70
1
  0
STYLE
  2
0
 70
0
 40
0.000000
 41
1.000000
 50
0.000000
 71
0
 42
1.000000
  3

  4

  0
ENDTAB
  0
ENDSEC
  0
SECTION
  2
BLOCKS
  0
ENDSEC
  0
SECTION
  2
ENTITIES
  0
POINT
  8
0
 10
610.000000
 20
0.000000
  0
POINT
  8
0
 10
655.000000
 20
-599.000000
  0
POINT
  8
0
 10
83.624634
 20
-115.892090
  0
POINT
  8
0
 10
100.412292
 20
-114.615234
  0
POINT
  8
0
 10
165.849548
 20
-107.658203
  0
POINT
  8
0
 10
165.849548
 20
-107.658203
  0
POINT
  8
0
 10
0.000000
 20
0.000000
  0
POINT
  8
0
 10
0.000000
 20
0.000000
  0
POINT
  8
0
 10
0.000000
 20
0.000000
  0
POINT
  8
0
 10
401.885193
 20
-113.981934
  0
POINT
  8
0
 10
0.000000
 20
0.000000
  0
POINT
  8
0
 10
334.343323
 20
-106.302246
  0
POINT
  8
0
 10
0.000000
 20
0.000000
  0
POINT
  8
0
 10
273.250244
 20
-94.949005
  0
POINT
  8
0
 10
236.749252
 20
-94.949112
  0
POLYLINE
  8
0
 66
1
 70
    0
  0
VERTEX
  8
0
 10
83.624619
 20
-115.891945
  0
VERTEX
  8
0
 10
76.823761
 20
-116.374001
  0
VERTEX
  8
0
 10
61.104721
 20
-117.308487
  0
VERTEX
  8
0
 10
45.683182
 20
-118.043716
  0
VERTEX
  8
0
 10
30.690796
 20
-118.573433
  0
VERTEX
  8
0
 10
16.255341
 20
-118.893097
  0
VERTEX
  8
0
 10
2.500000
 20
-118.999992
  0
VERTEX
  8
0
 10
0.000000
 20
-119.000000
  0
SEQEND
  0
POLYLINE
  8
0
 66
1
 70
    0
  0
VERTEX
  8
0
 10
165.849472
 20
-107.657616
  0
VERTEX
  8
0
 10
155.162521
 20
-109.047134
  0
VERTEX
  8
0
 10
139.978333
 20
-110.826958
  0
VERTEX
  8
0
 10
124.418671
 20
-112.462830
  0
VERTEX
  8
0
 10
108.616257
 20
-113.940796
  0
VERTEX
  8
0
 10
100.412270
 20
-114.614967
  0
SEQEND
  0
POLYLINE
  8
0
 66
1
 70
    0
  0
VERTEX
  8
0
 10
243.145996
 20
-93.306396
  0
VERTEX
  8
0
 10
240.731186
 20
-93.953445
  0
VERTEX
  8
0
 10
231.489059
 20
-96.264397
  0
VERTEX
  8
0
 10
221.090805
 20
-98.555641
  0
VERTEX
  8
0
 10
209.625061
 20
-100.807625
  0
VERTEX
  8
0
 10
197.189713
 20
-103.001137
  0
VERTEX
  8
0
 10
183.890762
 20
-105.117462
  0
VERTEX
  8
0
 10
169.841751
 20
-107.138542
  0
VERTEX
  8
0
 10
165.849472
 20
-107.657616
  0
SEQEND
  0
LINE
  8
0
 10
0.000000
 20
0.000000
 11
100.000000
 21
0.000000
  0
POLYLINE
  8
0
 66
1
 70
    0
  0
VERTEX
  8
0
 10
405.000000
 20
-114.238144
  0
VERTEX
  8
0
 10
417.294006
 20
-115.248413
  0
VERTEX
  8
0
 10
433.176300
 20
-116.374168
  0
VERTEX
  8
0
 10
448.895355
 20
-117.308632
  0
VERTEX
  8
0
 10
464.316864
 20
-118.043839
  0
VERTEX
  8
0
 10
479.309265
 20
-118.573517
  0
VERTEX
  8
0
 10
493.744690
 20
-118.893150
  0
VERTEX
  8
0
 10
507.500000
 20
-119.000000
  0
VERTEX
  8
0
 10
510.000000
 20
-119.000000
  0
SEQEND
  0
POLYLINE
  8
0
 66
1
 70
    0
  0
VERTEX
  8
0
 10
334.343323
 20
-106.302155
  0
VERTEX
  8
0
 10
340.158142
 20
-107.138672
  0
VERTEX
  8
0
 10
354.837433
 20
-109.047295
  0
VERTEX
  8
0
 10
370.021667
 20
-110.827133
  0
VERTEX
  8
0
 10
385.581360
 20
-112.463013
  0
VERTEX
  8
0
 10
401.383789
 20
-113.940979
  0
VERTEX
  8
0
 10
405.000000
 20
-114.238144
  0
SEQEND
  0
POLYLINE
  8
0
 66
1
 70
    0
  0
VERTEX
  8
0
 10
266.853516
 20
-93.306274
  0
VERTEX
  8
0
 10
269.268341
 20
-93.953331
  0
VERTEX
  8
0
 10
278.510559
 20
-96.264343
  0
VERTEX
  8
0
 10
288.908875
 20
-98.555634
  0
VERTEX
  8
0
 10
300.374695
 20
-100.807663
  0
VERTEX
  8
0
 10
312.810120
 20
-103.001213
  0
VERTEX
  8
0
 10
326.109070
 20
-105.117569
  0
VERTEX
  8
0
 10
334.343323
 20
-106.302155
  0
SEQEND
  0
POLYLINE
  8
0
 66
1
 70
    0
  0
VERTEX
  8
0
 10
266.853516
 20
-93.306274
  0
VERTEX
  8
0
 10
269.268341
 20
-93.953331
  0
VERTEX
  8
0
 10
278.510559
 20
-96.264343
  0
VERTEX
  8
0
 10
288.908875
 20
-98.555634
  0
VERTEX
  8
0
 10
300.374695
 20
-100.807663
  0
VERTEX
  8
0
 10
312.810120
 20
-103.001213
  0
VERTEX
  8
0
 10
326.109070
 20
-105.117569
  0
VERTEX
  8
0
 10
340.158142
 20
-107.138672
  0
VERTEX
  8
0
 10
354.837433
 20
-109.047295
  0
VERTEX
  8
0
 10
370.021667
 20
-110.827133
  0
VERTEX
  8
0
 10
385.581360
 20
-112.463013
  0
VERTEX
  8
0
 10
401.383789
 20
-113.940979
  0
VERTEX
  8
0
 10
417.294006
 20
-115.248413
  0
VERTEX
  8
0
 10
433.176300
 20
-116.374168
  0
VERTEX
  8
0
 10
448.895355
 20
-117.308632
  0
VERTEX
  8
0
 10
464.316864
 20
-118.043839
  0
VERTEX
  8
0
 10
479.309265
 20
-118.573517
  0
VERTEX
  8
0
 10
493.744690
 20
-118.893150
  0
VERTEX
  8
0
 10
507.500000
 20
-119.000000
  0
VERTEX
  8
0
 10
510.000000
 20
-119.000000
  0
SEQEND
  0
POLYLINE
  8
0
 66
1
 70
    0
  0
VERTEX
  8
0
 10
243.145996
 20
-93.306396
  0
VERTEX
  8
0
 10
240.731186
 20
-93.953445
  0
VERTEX
  8
0
 10
231.489059
 20
-96.264397
  0
VERTEX
  8
0
 10
221.090805
 20
-98.555641
  0
VERTEX
  8
0
 10
209.625061
 20
-100.807625
  0
VERTEX
  8
0
 10
197.189713
 20
-103.001137
  0
VERTEX
  8
0
 10
183.890762
 20
-105.117462
  0
VERTEX
  8
0
 10
169.841751
 20
-107.138542
  0
VERTEX
  8
0
 10
155.162521
 20
-109.047134
  0
VERTEX
  8
0
 10
139.978333
 20
-110.826958
  0
VERTEX
  8
0
 10
124.418671
 20
-112.462830
  0
VERTEX
  8
0
 10
108.616257
 20
-113.940796
  0
VERTEX
  8
0
 10
92.706085
 20
-115.248238
  0
VERTEX
  8
0
 10
76.823761
 20
-116.374001
  0
VERTEX
  8
0
 10
61.104721
 20
-117.308487
  0
VERTEX
  8
0
 10
45.683182
 20
-118.043716
  0
VERTEX
  8
0
 10
30.690796
 20
-118.573433
  0
VERTEX
  8
0
 10
16.255341
 20
-118.893097
  0
VERTEX
  8
0
 10
2.500000
 20
-118.999992
  0
VERTEX
  8
0
 10
0.000000
 20
-119.000000
  0
SEQEND
  0
LINE
  8
0
 10
510.000000
 20
-599.000000
 11
503.395477
 21
-599.000000
  0
POINT
  8
0
 10
0.000000
 20
0.000000
  0
POINT
  8
0
 10
0.000000
 20
-19.000000
  0
POINT
  8
0
 10
0.000000
 20
-599.000000
  0
POINT
  8
0
 10
0.000000
 20
-200.000000
  0
POINT
  8
0
 10
510.000000
 20
0.000000
  0
POINT
  8
0
 10
510.000000
 20
-200.000000
  0
POINT
  8
0
 10
510.000000
 20
-599.000000
  0
POINT
  8
0
 10
510.000000
 20
-19.000000
  0
POINT
  8
0
 10
0.000000
 20
-19.000000
  0
POINT
  8
0
 10
255.000000
 20
0.000000
  0
POINT
  8
0
 10
305.000000
 20
0.000000
  0
POINT
  8
0
 10
0.000000
 20
0.000000
  0
POINT
  8
0
 10
0.000000
 20
0.000000
  0
POINT
  8
0
 10
205.000000
 20
0.000000
  0
POINT
  8
0
 10
255.000000
 20
-599.000000
  0
POINT
  8
0
 10
255.000000
 20
-200.000000
  0
POINT
  8
0
 10
0.000000
 20
0.000000
  0
POINT
  8
0
 10
0.000000
 20
0.000000
  0
POINT
  8
0
 10
68.333328
 20
0.000000
  0
POINT
  8
0
 10
113.333328
 20
0.000000
  0
POINT
  8
0
 10
90.833328
 20
0.000000
  0
POINT
  8
0
 10
69.267563
 20
-13.700091
  0
POINT
  8
0
 10
114.589981
 20
-13.700091
  0
POINT
  8
0
 10
91.928772
 20
-15.554285
  0
POINT
  8
0
 10
91.928772
 20
-599.000000
  0
POINT
  8
0
 10
91.928711
 20
-200.000000
  0
POINT
  8
0
 10
91.928711
 20
-175.000000
  0
POINT
  8
0
 10
405.000000
 20
-14.535645
  0
POINT
  8
0
 10
397.527588
 20
-13.894071
  0
POINT
  8
0
 10
405.000000
 20
-84.535645
  0
POINT
  8
0
 10
412.472412
 20
-13.894071
  0
POINT
  8
0
 10
242.792862
 20
-91.671272
  0
POINT
  8
0
 10
167.360779
 20
-133.335632
  0
POINT
  8
0
 10
0.000000
 20
0.000000
  0
POINT
  8
0
 10
152.520523
 20
-8.374834
  0
POINT
  8
0
 10
167.440323
 20
-7.496736
  0
POINT
  8
0
 10
160.017914
 20
-8.572780
  0
POINT
  8
0
 10
0.000000
 20
0.000000
  0
POINT
  8
0
 10
0.000000
 20
0.000000
  0
POINT
  8
0
 10
0.000000
 20
0.000000
  0
POINT
  8
0
 10
0.000000
 20
0.000000
  0
POINT
  8
0
 10
164.130615
 20
-78.451859
  0
POINT
  8
0
 10
274.873840
 20
-62.675533
  0
POINT
  8
0
 10
339.936920
 20
-73.605591
  0
POINT
  8
0
 10
351.036102
 20
-8.725467
  0
POINT
  8
0
 10
358.472565
 20
-9.698960
  0
POINT
  8
0
 10
343.698975
 20
-7.171609
  0
POINT
  8
0
 10
339.232513
 20
-77.723114
  0
POINT
  8
0
 10
266.853516
 20
-93.306274
  0
POINT
  8
0
 10
510.000000
 20
-119.000000
  0
POINT
  8
0
 10
243.145996
 20
-93.306396
  0
POINT
  8
0
 10
0.000000
 20
-119.000000
  0
POINT
  8
0
 10
0.000000
 20
0.000000
  0
POINT
  8
0
 10
0.000000
 20
0.000000
  0
POINT
  8
0
 10
0.000000
 20
0.000000
  0
POINT
  8
0
 10
0.000000
 20
0.000000
  0
POINT
  8
0
 10
0.000000
 20
0.000000
  0
POINT
  8
0
 10
0.000000
 20
0.000000
  0
POINT
  8
0
 10
0.000000
 20
0.000000
  0
LINE
  8
0
 10
0.000000
 20
0.000000
 11
0.000000
 21
-599.000000
  0
LINE
  8
0
 10
0.000000
 20
-599.000000
 11
510.000000
 21
-599.000000
  0
LINE
  8
0
 10
510.000000
 20
-599.000000
 11
510.000000
 21
0.000000
  0
LINE
  8
0
 10
510.000000
 20
0.000000
 11
0.000000
 21
0.000000
  0
LINE
  8
0
 10
0.000000
 20
-200.000000
 11
510.000000
 21
-200.000000
  0
LINE
  8
0
 10
255.000000
 20
-599.000000
 11
255.000000
 21
0.000000
  0
LINE
  8
0
 10
91.928772
 20
-15.554285
 11
91.928772
 21
-599.000000
  0
LINE
  8
0
 10
91.928711
 20
-175.000000
 11
114.589981
 21
-13.700091
  0
LINE
  8
0
 10
91.928833
 20
-175.000000
 11
69.267563
 21
-13.700091
  0
LINE
  8
0
 10
405.000000
 20
-14.535645
 11
405.000000
 21
-599.000000
  0
LINE
  8
0
 10
405.000000
 20
-84.535645
 11
397.527588
 21
-13.894071
  0
LINE
  8
0
 10
405.000000
 20
-84.535645
 11
412.472412
 21
-13.894071
  0
LINE
  8
0
 10
91.928711
 20
-175.000000
 11
242.792862
 21
-91.671272
  0
LINE
  8
0
 10
160.017914
 20
-8.572780
 11
167.360779
 21
-133.335632
  0
LINE
  8
0
 10
0.000000
 20
0.000000
 11
100.000000
 21
0.000000
  0
LINE
  8
0
 10
0.000000
 20
0.000000
 11
100.000000
 21
0.000000
  0
LINE
  8
0
 10
0.000000
 20
0.000000
 11
100.000000
 21
0.000000
  0
LINE
  8
0
 10
167.440323
 20
-7.496736
 11
164.130615
 21
-78.451859
  0
LINE
  8
0
 10
152.520523
 20
-8.374834
 11
164.130585
 21
-78.451859
  0
LINE
  8
0
 10
405.000000
 20
-84.535645
 11
274.873840
 21
-62.675533
  0
LINE
  8
0
 10
351.036102
 20
-8.725467
 11
339.936920
 21
-73.605591
  0
LINE
  8
0
 10
343.698975
 20
-7.171609
 11
339.232574
 21
-77.723122
  0
POLYLINE
  8
0
 66
1
 70
    0
  0
VERTEX
  8
0
 10
255.000000
 20
-200.000000
  0
VERTEX
  8
0
 10
255.000000
 20
-197.500000
  0
VERTEX
  8
0
 10
255.204971
 20
-182.803741
  0
VERTEX
  8
0
 10
255.818115
 20
-167.904953
  0
VERTEX
  8
0
 10
256.834198
 20
-152.930679
  0
VERTEX
  8
0
 10
258.244568
 20
-138.008774
  0
VERTEX
  8
0
 10
260.037170
 20
-123.266457
  0
VERTEX
  8
0
 10
262.196747
 20
-108.829514
  0
VERTEX
  8
0
 10
264.704834
 20
-94.821152
  0
VERTEX
  8
0
 10
267.540039
 20
-81.360901
  0
VERTEX
  8
0
 10
270.678223
 20
-68.563522
  0
VERTEX
  8
0
 10
274.092560
 20
-56.538216
  0
VERTEX
  8
0
 10
277.753906
 20
-45.387657
  0
VERTEX
  8
0
 10
281.631073
 20
-35.206924
  0
VERTEX
  8
0
 10
285.690948
 20
-26.082850
  0
VERTEX
  8
0
 10
289.898926
 20
-18.093300
  0
VERTEX
  8
0
 10
294.219086
 20
-11.306467
  0
VERTEX
  8
0
 10
298.614532
 20
-5.780239
  0
VERTEX
  8
0
 10
303.047821
 20
-1.561752
  0
VERTEX
  8
0
 10
305.000000
 20
0.000000
  0
SEQEND
  0
POLYLINE
  8
0
 66
1
 70
    0
  0
VERTEX
  8
0
 10
255.000000
 20
-200.000000
  0
VERTEX
  8
0
 10
255.000000
 20
-197.500000
  0
VERTEX
  8
0
 10
254.795029
 20
-182.803741
  0
VERTEX
  8
0
 10
254.181885
 20
-167.904953
  0
VERTEX
  8
0
 10
253.165802
 20
-152.930679
  0
VERTEX
  8
0
 10
251.755432
 20
-138.008774
  0
VERTEX
  8
0
 10
249.962830
 20
-123.266457
  0
VERTEX
  8
0
 10
247.803253
 20
-108.829514
  0
VERTEX
  8
0
 10
245.295166
 20
-94.821152
  0
VERTEX
  8
0
 10
242.459961
 20
-81.360901
  0
VERTEX
  8
0
 10
239.321777
 20
-68.563522
  0
VERTEX
  8
0
 10
235.907440
 20
-56.538216
  0
VERTEX
  8
0
 10
232.246094
 20
-45.387657
  0
VERTEX
  8
0
 10
228.368927
 20
-35.206924
  0
VERTEX
  8
0
 10
224.309052
 20
-26.082850
  0
VERTEX
  8
0
 10
220.101074
 20
-18.093300
  0
VERTEX
  8
0
 10
215.780914
 20
-11.306467
  0
VERTEX
  8
0
 10
211.385468
 20
-5.780239
  0
VERTEX
  8
0
 10
206.952179
 20
-1.561752
  0
VERTEX
  8
0
 10
205.000000
 20
0.000000
  0
SEQEND
  0
LINE
  8
0
 10
358.472565
 20
-9.698960
 11
339.232513
 21
-77.723114
  0
LINE
  8
0
 10
0.000000
 20
0.000000
 11
100.000000
 21
0.000000
  0
LINE
  8
0
 10
0.000000
 20
0.000000
 11
100.000000
 21
0.000000
  0
LINE
  8
0
 10
0.000000
 20
0.000000
 11
100.000000
 21
0.000000
  0
LINE
  8
0
 10
0.000000
 20
0.000000
 11
100.000000
 21
0.000000
  0
LINE
  8
0
 10
0.000000
 20
0.000000
 11
100.000000
 21
0.000000
  0
POLYLINE
  8
0
 66
1
 70
    0
  0
VERTEX
  8
0
 10
0.000000
 20
-19.000000
  0
VERTEX
  8
0
 10
2.297609
 20
-19.000000
  0
VERTEX
  8
0
 10
3.381462
 20
-18.978365
  0
VERTEX
  8
0
 10
4.927774
 20
-18.913647
  0
VERTEX
  8
0
 10
6.923356
 20
-18.806396
  0
VERTEX
  8
0
 10
9.351188
 20
-18.657530
  0
VERTEX
  8
0
 10
12.190562
 20
-18.468315
  0
VERTEX
  8
0
 10
15.417248
 20
-18.240368
  0
VERTEX
  8
0
 10
19.003716
 20
-17.975634
  0
VERTEX
  8
0
 10
22.919357
 20
-17.676371
  0
VERTEX
  8
0
 10
27.130793
 20
-17.345131
  0
VERTEX
  8
0
 10
31.602074
 20
-16.984739
  0
VERTEX
  8
0
 10
36.295036
 20
-16.598276
  0
VERTEX
  8
0
 10
41.169662
 20
-16.189034
  0
VERTEX
  8
0
 10
46.184387
 20
-15.760503
  0
VERTEX
  8
0
 10
51.296394
 20
-15.316341
  0
VERTEX
  8
0
 10
56.462051
 20
-14.860341
  0
VERTEX
  8
0
 10
61.637306
 20
-14.396391
  0
VERTEX
  8
0
 10
66.778015
 20
-13.928449
  0
VERTEX
  8
0
 10
69.267563
 20
-13.700091
  0
SEQEND
  0
POLYLINE
  8
0
 66
1
 70
    0
  0
VERTEX
  8
0
 10
114.589981
 20
-13.700091
  0
VERTEX
  8
0
 10
115.242233
 20
-13.640263
  0
VERTEX
  8
0
 10
115.620308
 20
-13.598270
  0
VERTEX
  8
0
 10
116.269829
 20
-13.516816
  0
VERTEX
  8
0
 10
117.185257
 20
-13.396595
  0
VERTEX
  8
0
 10
118.358788
 20
-13.238631
  0
VERTEX
  8
0
 10
119.780411
 20
-13.044272
  0
VERTEX
  8
0
 10
121.437988
 20
-12.815178
  0
VERTEX
  8
0
 10
123.317390
 20
-12.553301
  0
VERTEX
  8
0
 10
125.402565
 20
-12.260880
  0
VERTEX
  8
0
 10
127.675743
 20
-11.940402
  0
VERTEX
  8
0
 10
130.117523
 20
-11.594608
  0
VERTEX
  8
0
 10
132.707062
 20
-11.226448
  0
VERTEX
  8
0
 10
135.422256
 20
-10.839059
  0
VERTEX
  8
0
 10
138.239990
 20
-10.435746
  0
VERTEX
  8
0
 10
141.136200
 20
-10.019953
  0
VERTEX
  8
0
 10
144.086136
 20
-9.595228
  0
VERTEX
  8
0
 10
147.064667
 20
-9.165193
  0
VERTEX
  8
0
 10
150.046387
 20
-8.733518
  0
VERTEX
  8
0
 10
152.520523
 20
-8.374834
  0
SEQEND
  0
POLYLINE
  8
0
 66
1
 70
    0
  0
VERTEX
  8
0
 10
167.440323
 20
-7.496736
  0
VERTEX
  8
0
 10
169.914459
 20
-7.138053
  0
VERTEX
  8
0
 10
171.673294
 20
-6.875586
  0
VERTEX
  8
0
 10
173.538864
 20
-6.582740
  0
VERTEX
  8
0
 10
175.495224
 20
-6.262013
  0
VERTEX
  8
0
 10
177.525711
 20
-5.916144
  0
VERTEX
  8
0
 10
179.612991
 20
-5.548081
  0
VERTEX
  8
0
 10
181.739258
 20
-5.160966
  0
VERTEX
  8
0
 10
183.886383
 20
-4.758100
  0
VERTEX
  8
0
 10
186.036026
 20
-4.342923
  0
VERTEX
  8
0
 10
188.169846
 20
-3.918974
  0
VERTEX
  8
0
 10
190.269669
 20
-3.489870
  0
VERTEX
  8
0
 10
192.317551
 20
-3.059275
  0
VERTEX
  8
0
 10
194.296021
 20
-2.630861
  0
VERTEX
  8
0
 10
196.188232
 20
-2.208282
  0
VERTEX
  8
0
 10
197.978012
 20
-1.795143
  0
VERTEX
  8
0
 10
199.650070
 20
-1.394972
  0
VERTEX
  8
0
 10
201.190186
 20
-1.011182
  0
VERTEX
  8
0
 10
202.585190
 20
-0.647046
  0
VERTEX
  8
0
 10
205.000000
 20
0.000000
  0
SEQEND
  0
LINE
  8
0
 10
0.000000
 20
0.000000
 11
100.000000
 21
0.000000
  0
POLYLINE
  8
0
 66
1
 70
    0
  0
VERTEX
  8
0
 10
510.000000
 20
-19.000000
  0
VERTEX
  8
0
 10
507.500000
 20
-19.000000
  0
VERTEX
  8
0
 10
503.641266
 20
-18.979193
  0
VERTEX
  8
0
 10
499.361786
 20
-18.916950
  0
VERTEX
  8
0
 10
494.698029
 20
-18.813801
  0
VERTEX
  8
0
 10
489.689850
 20
-18.670628
  0
VERTEX
  8
0
 10
484.379974
 20
-18.488651
  0
VERTEX
  8
0
 10
478.813629
 20
-18.269423
  0
VERTEX
  8
0
 10
473.038330
 20
-18.014814
  0
VERTEX
  8
0
 10
467.103394
 20
-17.726997
  0
VERTEX
  8
0
 10
461.059448
 20
-17.408426
  0
VERTEX
  8
0
 10
454.958038
 20
-17.061819
  0
VERTEX
  8
0
 10
448.851196
 20
-16.690138
  0
VERTEX
  8
0
 10
442.791077
 20
-16.296547
  0
VERTEX
  8
0
 10
436.829315
 20
-15.884408
  0
VERTEX
  8
0
 10
431.016815
 20
-15.457235
  0
VERTEX
  8
0
 10
425.403198
 20
-15.018676
  0
VERTEX
  8
0
 10
420.036316
 20
-14.572471
  0
VERTEX
  8
0
 10
414.961975
 20
-14.122426
  0
VERTEX
  8
0
 10
412.472412
 20
-13.894071
  0
SEQEND
  0
POLYLINE
  8
0
 66
1
 70
    0
  0
VERTEX
  8
0
 10
397.527588
 20
-13.894071
  0
VERTEX
  8
0
 10
395.038025
 20
-13.665714
  0
VERTEX
  8
0
 10
392.686768
 20
-13.447955
  0
VERTEX
  8
0
 10
390.277039
 20
-13.220666
  0
VERTEX
  8
0
 10
387.829376
 20
-12.985785
  0
VERTEX
  8
0
 10
385.364685
 20
-12.745320
  0
VERTEX
  8
0
 10
382.903961
 20
-12.501319
  0
VERTEX
  8
0
 10
380.468201
 20
-12.255866
  0
VERTEX
  8
0
 10
378.078186
 20
-12.011052
  0
VERTEX
  8
0
 10
375.754364
 20
-11.768969
  0
VERTEX
  8
0
 10
373.516479
 20
-11.531681
  0
VERTEX
  8
0
 10
371.383667
 20
-11.301212
  0
VERTEX
  8
0
 10
369.374115
 20
-11.079530
  0
VERTEX
  8
0
 10
367.504974
 20
-10.868524
  0
VERTEX
  8
0
 10
365.792175
 20
-10.669995
  0
VERTEX
  8
0
 10
364.250366
 20
-10.485638
  0
VERTEX
  8
0
 10
362.892639
 20
-10.317025
  0
VERTEX
  8
0
 10
361.730652
 20
-10.165595
  0
VERTEX
  8
0
 10
360.774261
 20
-10.032639
  0
VERTEX
  8
0
 10
358.472565
 20
-9.698960
  0
SEQEND
  0
POLYLINE
  8
0
 66
1
 70
    0
  0
VERTEX
  8
0
 10
343.698975
 20
-7.171609
  0
VERTEX
  8
0
 10
341.224823
 20
-6.812933
  0
VERTEX
  8
0
 10
339.009979
 20
-6.486453
  0
VERTEX
  8
0
 10
336.726318
 20
-6.139255
  0
VERTEX
  8
0
 10
334.393341
 20
-5.774302
  0
VERTEX
  8
0
 10
332.030914
 20
-5.394706
  0
VERTEX
  8
0
 10
329.659210
 20
-5.003706
  0
VERTEX
  8
0
 10
327.298462
 20
-4.604639
  0
VERTEX
  8
0
 10
324.968811
 20
-4.200907
  0
VERTEX
  8
0
 10
322.690155
 20
-3.795959
  0
VERTEX
  8
0
 10
320.481934
 20
-3.393246
  0
VERTEX
  8
0
 10
318.362915
 20
-2.996204
  0
VERTEX
  8
0
 10
316.351288
 20
-2.608223
  0
VERTEX
  8
0
 10
314.464142
 20
-2.232612
  0
VERTEX
  8
0
 10
312.717590
 20
-1.872573
  0
VERTEX
  8
0
 10
311.126526
 20
-1.531180
  0
VERTEX
  8
0
 10
309.704559
 20
-1.211347
  0
VERTEX
  8
0
 10
308.463776
 20
-0.915802
  0
VERTEX
  8
0
 10
307.414795
 20
-0.647065
  0
VERTEX
  8
0
 10
305.000000
 20
0.000000
  0
SEQEND
  0
ENDSEC
  0
EOF
