  0
SECTION
  2
HEADER
  9
$ACADVER
  1
AC1006
  9
$CLAYER
  8
1
  0
ENDSEC
  0
SECTION
  2
TABLES
  0
TABLE
  2
LTYPE
 70
1
  0
LTYPE
  2
CONTINUOUS
 70
0
  3
SOLIDLINE
 72
65
 73
0
 40
0.000000
  0
ENDTAB
  0
TABLE
  2
LAYER
 70
14
  0
LAYER
  2
1
 70
0
 62
7
  6
CONTINUOUS
  0
LAYER
  2
2
 70
0
 62
1
  6
CONTINUOUS
  0
LAYER
  2
3
 70
0
 62
2
  6
CONTINUOUS
  0
LAYER
  2
4
 70
0
 62
3
  6
CONTINUOUS
  0
LAYER
  2
5
 70
0
 62
5
  6
CONTINUOUS
  0
LAYER
  2
6
 70
0
 62
5
  6
CONTINUOUS
  0
LAYER
  2
7
 70
0
 62
5
  6
CONTINUOUS
  0
LAYER
  2
8
 70
0
 62
4
  6
CONTINUOUS
  0
LAYER
  2
9
 70
0
 62
5
  6
CONTINUOUS
  0
LAYER
  2
10
 70
0
 62
5
  6
CONTINUOUS
  0
LAYER
  2
11
 70
0
 62
4
  6
CONTINUOUS
  0
LAYER
  2
12
 70
0
 62
6
  6
CONTINUOUS
  0
LAYER
  2
13
 70
0
 62
4
  6
CONTINUOUS
  0
LAYER
  2
14
 70
0
 62
7
  6
CONTINUOUS
  0
ENDTAB
  0
TABLE
  2
STYLE
 70
1
  0
STYLE
  2
0
 70
0
 40
0.000000
 41
1.000000
 50
0.000000
 71
0
 42
1.000000
  3

  4

  0
ENDTAB
  0
ENDSEC
  0
SECTION
  2
BLOCKS
  0
ENDSEC
  0
SECTION
  2
ENTITIES
  0
POINT
  8
0
 10
665.000000
 20
0.000000
  0
POINT
  8
0
 10
745.000000
 20
-617.500000
  0
POINT
  8
0
 10
92.402100
 20
-102.917480
  0
POINT
  8
0
 10
105.589905
 20
-102.472656
  0
POINT
  8
0
 10
183.117813
 20
-98.429688
  0
POINT
  8
0
 10
183.117813
 20
-98.429688
  0
POINT
  8
0
 10
0.000000
 20
0.000000
  0
POINT
  8
0
 10
0.000000
 20
0.000000
  0
POINT
  8
0
 10
0.000000
 20
0.000000
  0
POINT
  8
0
 10
396.666656
 20
-106.894043
  0
POINT
  8
0
 10
0.000000
 20
0.000000
  0
POINT
  8
0
 10
0.000000
 20
0.000000
  0
POINT
  8
0
 10
0.000000
 20
0.000000
  0
POINT
  8
0
 10
314.494904
 20
-92.456055
  0
POINT
  8
0
 10
250.326859
 20
-91.612885
  0
POLYLINE
  8
0
 66
1
 70
    0
  0
VERTEX
  8
0
 10
92.402100
 20
-102.917336
  0
VERTEX
  8
0
 10
80.681229
 20
-103.279396
  0
VERTEX
  8
0
 10
60.941437
 20
-103.755524
  0
VERTEX
  8
0
 10
41.219421
 20
-104.098579
  0
VERTEX
  8
0
 10
21.683380
 20
-104.305649
  0
VERTEX
  8
0
 10
2.500000
 20
-104.374977
  0
VERTEX
  8
0
 10
0.000000
 20
-104.375000
  0
SEQEND
  0
POLYLINE
  8
0
 66
1
 70
    0
  0
VERTEX
  8
0
 10
183.117828
 20
-98.429825
  0
VERTEX
  8
0
 10
173.825699
 20
-99.082611
  0
VERTEX
  8
0
 10
156.476700
 20
-100.141800
  0
VERTEX
  8
0
 10
138.330292
 20
-101.098763
  0
VERTEX
  8
0
 10
119.541397
 20
-101.945328
  0
VERTEX
  8
0
 10
105.589935
 20
-102.473061
  0
SEQEND
  0
POLYLINE
  8
0
 66
1
 70
    0
  0
VERTEX
  8
0
 10
270.541992
 20
-87.510864
  0
VERTEX
  8
0
 10
268.127167
 20
-88.157921
  0
VERTEX
  8
0
 10
261.668457
 20
-89.654106
  0
VERTEX
  8
0
 10
253.514984
 20
-91.137535
  0
VERTEX
  8
0
 10
243.736206
 20
-92.595551
  0
VERTEX
  8
0
 10
232.415619
 20
-94.015717
  0
VERTEX
  8
0
 10
219.649734
 20
-95.385933
  0
VERTEX
  8
0
 10
205.547501
 20
-96.694496
  0
VERTEX
  8
0
 10
190.229248
 20
-97.930237
  0
VERTEX
  8
0
 10
183.117828
 20
-98.429825
  0
SEQEND
  0
LINE
  8
0
 10
0.000000
 20
0.000000
 11
100.000000
 21
0.000000
  0
POLYLINE
  8
0
 66
1
 70
    0
  0
VERTEX
  8
0
 10
396.666656
 20
-106.893929
  0
VERTEX
  8
0
 10
397.201508
 20
-106.970291
  0
VERTEX
  8
0
 10
414.279846
 20
-109.188622
  0
VERTEX
  8
0
 10
431.628906
 20
-111.227524
  0
VERTEX
  8
0
 10
449.100525
 20
-113.069611
  0
VERTEX
  8
0
 10
466.545654
 20
-114.699158
  0
VERTEX
  8
0
 10
483.815430
 20
-116.102257
  0
VERTEX
  8
0
 10
500.762665
 20
-117.266945
  0
VERTEX
  8
0
 10
517.242615
 20
-118.183281
  0
VERTEX
  8
0
 10
533.114685
 20
-118.843452
  0
VERTEX
  8
0
 10
548.243530
 20
-119.241821
  0
VERTEX
  8
0
 10
562.500000
 20
-119.375000
  0
VERTEX
  8
0
 10
565.000000
 20
-119.375000
  0
SEQEND
  0
POLYLINE
  8
0
 66
1
 70
    0
  0
VERTEX
  8
0
 10
294.457520
 20
-87.510620
  0
VERTEX
  8
0
 10
296.872345
 20
-88.157677
  0
VERTEX
  8
0
 10
308.258026
 20
-91.038048
  0
VERTEX
  8
0
 10
320.818787
 20
-93.893837
  0
VERTEX
  8
0
 10
334.447510
 20
-96.700684
  0
VERTEX
  8
0
 10
349.027985
 20
-99.434654
  0
VERTEX
  8
0
 10
364.435730
 20
-102.072411
  0
VERTEX
  8
0
 10
380.539398
 20
-104.591446
  0
VERTEX
  8
0
 10
396.666656
 20
-106.893929
  0
SEQEND
  0
LINE
  8
0
 10
0.000000
 20
0.000000
 11
100.000000
 21
0.000000
  0
POLYLINE
  8
0
 66
1
 70
    0
  0
VERTEX
  8
0
 10
294.457520
 20
-87.510620
  0
VERTEX
  8
0
 10
296.872345
 20
-88.157677
  0
VERTEX
  8
0
 10
308.258026
 20
-91.038048
  0
VERTEX
  8
0
 10
320.818787
 20
-93.893837
  0
VERTEX
  8
0
 10
334.447510
 20
-96.700684
  0
VERTEX
  8
0
 10
349.027985
 20
-99.434654
  0
VERTEX
  8
0
 10
364.435730
 20
-102.072411
  0
VERTEX
  8
0
 10
380.539398
 20
-104.591446
  0
VERTEX
  8
0
 10
397.201508
 20
-106.970291
  0
VERTEX
  8
0
 10
414.279846
 20
-109.188622
  0
VERTEX
  8
0
 10
431.628906
 20
-111.227524
  0
VERTEX
  8
0
 10
449.100525
 20
-113.069611
  0
VERTEX
  8
0
 10
466.545654
 20
-114.699158
  0
VERTEX
  8
0
 10
483.815430
 20
-116.102257
  0
VERTEX
  8
0
 10
500.762665
 20
-117.266945
  0
VERTEX
  8
0
 10
517.242615
 20
-118.183281
  0
VERTEX
  8
0
 10
533.114685
 20
-118.843452
  0
VERTEX
  8
0
 10
548.243530
 20
-119.241821
  0
VERTEX
  8
0
 10
562.500000
 20
-119.375000
  0
VERTEX
  8
0
 10
565.000000
 20
-119.375000
  0
SEQEND
  0
POLYLINE
  8
0
 66
1
 70
    0
  0
VERTEX
  8
0
 10
270.541992
 20
-87.510864
  0
VERTEX
  8
0
 10
268.127167
 20
-88.157921
  0
VERTEX
  8
0
 10
261.668457
 20
-89.654106
  0
VERTEX
  8
0
 10
253.514984
 20
-91.137535
  0
VERTEX
  8
0
 10
243.736206
 20
-92.595551
  0
VERTEX
  8
0
 10
232.415619
 20
-94.015717
  0
VERTEX
  8
0
 10
219.649734
 20
-95.385933
  0
VERTEX
  8
0
 10
205.547501
 20
-96.694496
  0
VERTEX
  8
0
 10
190.229248
 20
-97.930237
  0
VERTEX
  8
0
 10
173.825699
 20
-99.082611
  0
VERTEX
  8
0
 10
156.476700
 20
-100.141800
  0
VERTEX
  8
0
 10
138.330292
 20
-101.098763
  0
VERTEX
  8
0
 10
119.541397
 20
-101.945328
  0
VERTEX
  8
0
 10
100.270279
 20
-102.674286
  0
VERTEX
  8
0
 10
80.681229
 20
-103.279396
  0
VERTEX
  8
0
 10
60.941437
 20
-103.755524
  0
VERTEX
  8
0
 10
41.219421
 20
-104.098579
  0
VERTEX
  8
0
 10
21.683380
 20
-104.305649
  0
VERTEX
  8
0
 10
2.500000
 20
-104.374977
  0
VERTEX
  8
0
 10
0.000000
 20
-104.375000
  0
SEQEND
  0
LINE
  8
0
 10
565.000000
 20
-617.500000
 11
544.359558
 21
-617.500000
  0
POINT
  8
0
 10
0.000000
 20
0.000000
  0
POINT
  8
0
 10
0.000000
 20
-17.500000
  0
POINT
  8
0
 10
0.000000
 20
-617.500000
  0
POINT
  8
0
 10
0.000000
 20
-188.750000
  0
POINT
  8
0
 10
565.000000
 20
0.000000
  0
POINT
  8
0
 10
565.000000
 20
-188.750000
  0
POINT
  8
0
 10
565.000000
 20
-617.500000
  0
POINT
  8
0
 10
565.000000
 20
-25.000000
  0
POINT
  8
0
 10
0.000000
 20
-10.000000
  0
POINT
  8
0
 10
282.500000
 20
0.000000
  0
POINT
  8
0
 10
332.500000
 20
0.000000
  0
POINT
  8
0
 10
0.000000
 20
0.000000
  0
POINT
  8
0
 10
0.000000
 20
0.000000
  0
POINT
  8
0
 10
232.500000
 20
0.000000
  0
POINT
  8
0
 10
282.500000
 20
-617.500000
  0
POINT
  8
0
 10
282.500000
 20
-188.750000
  0
POINT
  8
0
 10
0.000000
 20
0.000000
  0
POINT
  8
0
 10
0.000000
 20
0.000000
  0
POINT
  8
0
 10
80.000000
 20
0.000000
  0
POINT
  8
0
 10
117.500000
 20
0.000000
  0
POINT
  8
0
 10
98.750000
 20
0.000000
  0
POINT
  8
0
 10
80.187805
 20
-8.345416
  0
POINT
  8
0
 10
117.746857
 20
-8.345416
  0
POINT
  8
0
 10
98.967331
 20
-8.849723
  0
POINT
  8
0
 10
98.967331
 20
-617.500000
  0
POINT
  8
0
 10
98.967285
 20
-188.750000
  0
POINT
  8
0
 10
98.967285
 20
-153.750000
  0
POINT
  8
0
 10
396.666656
 20
-12.509277
  0
POINT
  8
0
 10
385.543976
 20
-10.823591
  0
POINT
  8
0
 10
396.666656
 20
-92.509277
  0
POINT
  8
0
 10
407.789337
 20
-10.823591
  0
POINT
  8
0
 10
271.366882
 20
-91.107475
  0
POINT
  8
0
 10
185.167084
 20
-122.428741
  0
POINT
  8
0
 10
0.000000
 20
0.000000
  0
POINT
  8
0
 10
167.736115
 20
-6.398715
  0
POINT
  8
0
 10
182.674042
 20
-5.123201
  0
POINT
  8
0
 10
175.225357
 20
-5.998285
  0
POINT
  8
0
 10
0.000000
 20
0.000000
  0
POINT
  8
0
 10
0.000000
 20
0.000000
  0
POINT
  8
0
 10
0.000000
 20
0.000000
  0
POINT
  8
0
 10
0.000000
 20
0.000000
  0
POINT
  8
0
 10
181.180817
 20
-75.744484
  0
POINT
  8
0
 10
0.000000
 20
0.000000
  0
POINT
  8
0
 10
0.000000
 20
0.000000
  0
POINT
  8
0
 10
0.000000
 20
0.000000
  0
POINT
  8
0
 10
0.000000
 20
0.000000
  0
POINT
  8
0
 10
0.000000
 20
0.000000
  0
POINT
  8
0
 10
0.000000
 20
0.000000
  0
POINT
  8
0
 10
294.457520
 20
-87.510620
  0
POINT
  8
0
 10
565.000000
 20
-119.375000
  0
POINT
  8
0
 10
270.541992
 20
-87.510864
  0
POINT
  8
0
 10
0.000000
 20
-104.375000
  0
POINT
  8
0
 10
282.500000
 20
-283.125000
  0
POINT
  8
0
 10
297.500000
 20
-283.125000
  0
POINT
  8
0
 10
297.500000
 20
-617.500000
  0
POINT
  8
0
 10
267.500000
 20
-283.125000
  0
POINT
  8
0
 10
267.500000
 20
-617.500000
  0
POINT
  8
0
 10
0.000000
 20
0.000000
  0
POINT
  8
0
 10
0.000000
 20
0.000000
  0
LINE
  8
0
 10
0.000000
 20
0.000000
 11
0.000000
 21
-617.500000
  0
LINE
  8
0
 10
0.000000
 20
-617.500000
 11
565.000000
 21
-617.500000
  0
LINE
  8
0
 10
565.000000
 20
-617.500000
 11
565.000000
 21
0.000000
  0
LINE
  8
0
 10
565.000000
 20
0.000000
 11
0.000000
 21
0.000000
  0
LINE
  8
0
 10
0.000000
 20
-188.750000
 11
565.000000
 21
-188.750000
  0
LINE
  8
0
 10
282.500000
 20
-617.500000
 11
282.500000
 21
0.000000
  0
LINE
  8
0
 10
98.967331
 20
-8.849723
 11
98.967331
 21
-617.500000
  0
LINE
  8
0
 10
98.967285
 20
-153.750000
 11
117.746857
 21
-8.345416
  0
LINE
  8
0
 10
98.967377
 20
-153.750000
 11
80.187805
 21
-8.345416
  0
LINE
  8
0
 10
396.666656
 20
-617.500000
 11
396.666656
 21
-12.509277
  0
LINE
  8
0
 10
396.666656
 20
-92.509277
 11
385.543976
 21
-10.823591
  0
LINE
  8
0
 10
396.666656
 20
-92.509277
 11
407.789337
 21
-10.823591
  0
LINE
  8
0
 10
98.967285
 20
-153.750000
 11
271.366882
 21
-91.107475
  0
LINE
  8
0
 10
175.225357
 20
-5.998285
 11
185.167084
 21
-122.428741
  0
LINE
  8
0
 10
0.000000
 20
0.000000
 11
100.000000
 21
0.000000
  0
LINE
  8
0
 10
0.000000
 20
0.000000
 11
100.000000
 21
0.000000
  0
LINE
  8
0
 10
0.000000
 20
0.000000
 11
100.000000
 21
0.000000
  0
LINE
  8
0
 10
182.674042
 20
-5.123201
 11
181.180817
 21
-75.744484
  0
LINE
  8
0
 10
167.736115
 20
-6.398715
 11
181.180817
 21
-75.744484
  0
LINE
  8
0
 10
0.000000
 20
0.000000
 11
100.000000
 21
0.000000
  0
LINE
  8
0
 10
0.000000
 20
0.000000
 11
100.000000
 21
0.000000
  0
LINE
  8
0
 10
0.000000
 20
0.000000
 11
100.000000
 21
0.000000
  0
POLYLINE
  8
0
 66
1
 70
    0
  0
VERTEX
  8
0
 10
282.500000
 20
-188.750000
  0
VERTEX
  8
0
 10
282.500000
 20
-186.250000
  0
VERTEX
  8
0
 10
282.704773
 20
-172.393509
  0
VERTEX
  8
0
 10
283.317383
 20
-158.346039
  0
VERTEX
  8
0
 10
284.332550
 20
-144.227448
  0
VERTEX
  8
0
 10
285.741669
 20
-130.158157
  0
VERTEX
  8
0
 10
287.532654
 20
-116.258179
  0
VERTEX
  8
0
 10
289.690308
 20
-102.646118
  0
VERTEX
  8
0
 10
292.196136
 20
-89.438133
  0
VERTEX
  8
0
 10
295.028809
 20
-76.746948
  0
VERTEX
  8
0
 10
298.164185
 20
-64.680717
  0
VERTEX
  8
0
 10
301.575439
 20
-53.342445
  0
VERTEX
  8
0
 10
305.233521
 20
-42.828918
  0
VERTEX
  8
0
 10
309.107208
 20
-33.229805
  0
VERTEX
  8
0
 10
313.163483
 20
-24.626938
  0
VERTEX
  8
0
 10
317.367676
 20
-17.093782
  0
VERTEX
  8
0
 10
321.683960
 20
-10.694601
  0
VERTEX
  8
0
 10
326.075470
 20
-5.483994
  0
VERTEX
  8
0
 10
330.504791
 20
-1.506393
  0
VERTEX
  8
0
 10
332.500000
 20
0.000000
  0
SEQEND
  0
POLYLINE
  8
0
 66
1
 70
    0
  0
VERTEX
  8
0
 10
282.500000
 20
-188.750000
  0
VERTEX
  8
0
 10
282.500000
 20
-186.250000
  0
VERTEX
  8
0
 10
282.295227
 20
-172.393509
  0
VERTEX
  8
0
 10
281.682617
 20
-158.346039
  0
VERTEX
  8
0
 10
280.667450
 20
-144.227448
  0
VERTEX
  8
0
 10
279.258331
 20
-130.158157
  0
VERTEX
  8
0
 10
277.467346
 20
-116.258179
  0
VERTEX
  8
0
 10
275.309692
 20
-102.646118
  0
VERTEX
  8
0
 10
272.803864
 20
-89.438133
  0
VERTEX
  8
0
 10
269.971191
 20
-76.746948
  0
VERTEX
  8
0
 10
266.835815
 20
-64.680717
  0
VERTEX
  8
0
 10
263.424561
 20
-53.342445
  0
VERTEX
  8
0
 10
259.766479
 20
-42.828918
  0
VERTEX
  8
0
 10
255.892792
 20
-33.229805
  0
VERTEX
  8
0
 10
251.836517
 20
-24.626938
  0
VERTEX
  8
0
 10
247.632324
 20
-17.093782
  0
VERTEX
  8
0
 10
243.316040
 20
-10.694601
  0
VERTEX
  8
0
 10
238.924530
 20
-5.483994
  0
VERTEX
  8
0
 10
234.495209
 20
-1.506393
  0
VERTEX
  8
0
 10
232.500000
 20
0.000000
  0
SEQEND
  0
LINE
  8
0
 10
0.000000
 20
0.000000
 11
100.000000
 21
0.000000
  0
LINE
  8
0
 10
282.500000
 20
-188.750000
 11
267.500000
 21
-283.125000
  0
LINE
  8
0
 10
282.500000
 20
-188.750000
 11
297.500000
 21
-283.125000
  0
LINE
  8
0
 10
0.000000
 20
-283.125000
 11
565.000000
 21
-283.125000
  0
LINE
  8
0
 10
297.500000
 20
-617.500000
 11
297.500000
 21
-283.125000
  0
LINE
  8
0
 10
267.500000
 20
-617.500000
 11
267.500000
 21
-283.125000
  0
POLYLINE
  8
0
 66
1
 70
    0
  0
VERTEX
  8
0
 10
0.000000
 20
-10.000000
  0
VERTEX
  8
0
 10
2.500000
 20
-10.000000
  0
VERTEX
  8
0
 10
4.734912
 20
-9.993257
  0
VERTEX
  8
0
 10
7.406661
 20
-9.973086
  0
VERTEX
  8
0
 10
10.492454
 20
-9.939659
  0
VERTEX
  8
0
 10
13.965970
 20
-9.893261
  0
VERTEX
  8
0
 10
17.797583
 20
-9.834288
  0
VERTEX
  8
0
 10
21.954590
 20
-9.763243
  0
VERTEX
  8
0
 10
26.401531
 20
-9.680732
  0
VERTEX
  8
0
 10
31.100456
 20
-9.587460
  0
VERTEX
  8
0
 10
36.011288
 20
-9.484221
  0
VERTEX
  8
0
 10
41.092140
 20
-9.371897
  0
VERTEX
  8
0
 10
46.299622
 20
-9.251447
  0
VERTEX
  8
0
 10
51.589340
 20
-9.123897
  0
VERTEX
  8
0
 10
56.916183
 20
-8.990335
  0
VERTEX
  8
0
 10
62.234665
 20
-8.851902
  0
VERTEX
  8
0
 10
67.499405
 20
-8.709779
  0
VERTEX
  8
0
 10
72.665512
 20
-8.565178
  0
VERTEX
  8
0
 10
77.688889
 20
-8.419333
  0
VERTEX
  8
0
 10
80.187805
 20
-8.345416
  0
SEQEND
  0
POLYLINE
  8
0
 66
1
 70
    0
  0
VERTEX
  8
0
 10
117.746857
 20
-8.345416
  0
VERTEX
  8
0
 10
120.245773
 20
-8.271500
  0
VERTEX
  8
0
 10
123.060539
 20
-8.186525
  0
VERTEX
  8
0
 10
125.980888
 20
-8.095013
  0
VERTEX
  8
0
 10
128.981903
 20
-7.997743
  0
VERTEX
  8
0
 10
132.037979
 20
-7.895545
  0
VERTEX
  8
0
 10
135.123047
 20
-7.789292
  0
VERTEX
  8
0
 10
138.210785
 20
-7.679891
  0
VERTEX
  8
0
 10
141.274872
 20
-7.568273
  0
VERTEX
  8
0
 10
144.289108
 20
-7.455392
  0
VERTEX
  8
0
 10
147.227829
 20
-7.342211
  0
VERTEX
  8
0
 10
150.065948
 20
-7.229695
  0
VERTEX
  8
0
 10
152.779266
 20
-7.118804
  0
VERTEX
  8
0
 10
155.344589
 20
-7.010485
  0
VERTEX
  8
0
 10
157.740097
 20
-6.905661
  0
VERTEX
  8
0
 10
159.945282
 20
-6.805227
  0
VERTEX
  8
0
 10
161.941360
 20
-6.710040
  0
VERTEX
  8
0
 10
163.711319
 20
-6.620912
  0
VERTEX
  8
0
 10
165.240036
 20
-6.538603
  0
VERTEX
  8
0
 10
167.736115
 20
-6.398715
  0
SEQEND
  0
POLYLINE
  8
0
 66
1
 70
    0
  0
VERTEX
  8
0
 10
182.674042
 20
-5.123201
  0
VERTEX
  8
0
 10
185.170120
 20
-4.983315
  0
VERTEX
  8
0
 10
188.559814
 20
-4.785392
  0
VERTEX
  8
0
 10
191.995682
 20
-4.569044
  0
VERTEX
  8
0
 10
195.448364
 20
-4.336113
  0
VERTEX
  8
0
 10
198.888443
 20
-4.088589
  0
VERTEX
  8
0
 10
202.286545
 20
-3.828581
  0
VERTEX
  8
0
 10
205.613708
 20
-3.558310
  0
VERTEX
  8
0
 10
208.841522
 20
-3.280079
  0
VERTEX
  8
0
 10
211.942444
 20
-2.996266
  0
VERTEX
  8
0
 10
214.890030
 20
-2.709288
  0
VERTEX
  8
0
 10
217.659149
 20
-2.421595
  0
VERTEX
  8
0
 10
220.226120
 20
-2.135643
  0
VERTEX
  8
0
 10
222.569107
 20
-1.853870
  0
VERTEX
  8
0
 10
224.668091
 20
-1.578679
  0
VERTEX
  8
0
 10
226.505173
 20
-1.312420
  0
VERTEX
  8
0
 10
228.064651
 20
-1.057364
  0
VERTEX
  8
0
 10
229.333252
 20
-0.815687
  0
VERTEX
  8
0
 10
230.300140
 20
-0.589452
  0
VERTEX
  8
0
 10
232.500000
 20
0.000000
  0
SEQEND
  0
LINE
  8
0
 10
0.000000
 20
0.000000
 11
100.000000
 21
0.000000
  0
POLYLINE
  8
0
 66
1
 70
    0
  0
VERTEX
  8
0
 10
565.000000
 20
-25.000000
  0
VERTEX
  8
0
 10
562.500000
 20
-25.000000
  0
VERTEX
  8
0
 10
555.983582
 20
-24.941219
  0
VERTEX
  8
0
 10
548.792664
 20
-24.765385
  0
VERTEX
  8
0
 10
540.988647
 20
-24.473995
  0
VERTEX
  8
0
 10
532.638000
 20
-24.069536
  0
VERTEX
  8
0
 10
523.812073
 20
-23.555456
  0
VERTEX
  8
0
 10
514.586121
 20
-22.936144
  0
VERTEX
  8
0
 10
505.038849
 20
-22.216881
  0
VERTEX
  8
0
 10
495.251770
 20
-21.403809
  0
VERTEX
  8
0
 10
485.308319
 20
-20.503857
  0
VERTEX
  8
0
 10
475.293304
 20
-19.524706
  0
VERTEX
  8
0
 10
465.292267
 20
-18.474714
  0
VERTEX
  8
0
 10
455.390533
 20
-17.362839
  0
VERTEX
  8
0
 10
445.672424
 20
-16.198555
  0
VERTEX
  8
0
 10
436.220978
 20
-14.991806
  0
VERTEX
  8
0
 10
427.116882
 20
-13.752894
  0
VERTEX
  8
0
 10
418.437683
 20
-12.492377
  0
VERTEX
  8
0
 10
410.257538
 20
-11.221017
  0
VERTEX
  8
0
 10
407.789337
 20
-10.823591
  0
SEQEND
  0
POLYLINE
  8
0
 66
1
 70
    0
  0
VERTEX
  8
0
 10
385.543976
 20
-10.823591
  0
VERTEX
  8
0
 10
383.075775
 20
-10.426165
  0
VERTEX
  8
0
 10
380.297852
 20
-9.970237
  0
VERTEX
  8
0
 10
377.382172
 20
-9.474924
  0
VERTEX
  8
0
 10
374.353516
 20
-8.944452
  0
VERTEX
  8
0
 10
371.237823
 20
-8.383348
  0
VERTEX
  8
0
 10
368.061615
 20
-7.796395
  0
VERTEX
  8
0
 10
364.852020
 20
-7.188605
  0
VERTEX
  8
0
 10
361.636383
 20
-6.565160
  0
VERTEX
  8
0
 10
358.442169
 20
-5.931385
  0
VERTEX
  8
0
 10
355.296600
 20
-5.292679
  0
VERTEX
  8
0
 10
352.226532
 20
-4.654495
  0
VERTEX
  8
0
 10
349.258209
 20
-4.022281
  0
VERTEX
  8
0
 10
346.416870
 20
-3.401427
  0
VERTEX
  8
0
 10
343.726807
 20
-2.797228
  0
VERTEX
  8
0
 10
341.210968
 20
-2.214842
  0
VERTEX
  8
0
 10
338.890747
 20
-1.659239
  0
VERTEX
  8
0
 10
336.786072
 20
-1.135158
  0
VERTEX
  8
0
 10
334.914795
 20
-0.647069
  0
VERTEX
  8
0
 10
332.500000
 20
0.000000
  0
SEQEND
  0
LINE
  8
0
 10
0.000000
 20
0.000000
 11
100.000000
 21
0.000000
  0
LINE
  8
0
 10
0.000000
 20
0.000000
 11
100.000000
 21
0.000000
  0
LINE
  8
0
 10
0.000000
 20
0.000000
 11
100.000000
 21
0.000000
  0
ENDSEC
  0
EOF
